<svg id="svg" version="1.1" xmlns="http://www.w3.org/2000/svg" xmlns:xlink="http://www.w3.org/1999/xlink" width="400" height="361.16666666666663" viewBox="0, 0, 400,361.16666666666663"><g id="svgg"><path id="path0" d="M188.292 34.052 C 186.215 34.189,185.833 34.256,185.830 34.482 C 185.825 34.807,187.538 60.404,187.567 60.447 C 187.611 60.511,194.213 60.009,194.286 59.937 C 194.328 59.894,193.980 54.210,193.513 47.305 C 193.046 40.400,192.664 34.544,192.665 34.292 C 192.667 33.759,192.701 33.761,188.292 34.052 M204.917 40.277 C 199.254 40.956,196.298 44.514,196.283 50.667 C 196.267 57.315,200.291 60.600,208.417 60.571 C 213.965 60.551,217.618 58.174,218.416 54.065 L 218.516 53.547 217.300 53.442 C 216.631 53.385,215.166 53.288,214.045 53.227 L 212.006 53.117 210.961 53.682 C 208.582 54.969,204.457 54.208,203.485 52.303 C 203.037 51.426,202.263 51.454,210.965 52.035 C 215.204 52.319,218.726 52.497,218.792 52.431 C 219.310 51.912,218.648 47.124,217.815 45.377 C 216.057 41.688,210.724 39.579,204.917 40.277 M173.922 42.178 C 171.185 42.598,168.752 44.029,167.447 45.987 C 167.139 46.449,167.117 46.412,166.831 44.958 C 166.662 44.098,166.606 44.008,166.280 44.083 C 166.080 44.129,164.604 44.436,163.000 44.766 C 161.396 45.096,160.057 45.391,160.025 45.422 C 159.935 45.508,165.534 72.396,165.675 72.557 C 165.779 72.677,172.079 71.477,172.252 71.304 C 172.285 71.270,171.837 68.957,171.254 66.163 C 170.672 63.369,170.209 61.070,170.226 61.053 C 170.242 61.036,170.779 61.280,171.419 61.595 C 174.324 63.024,178.279 62.688,181.098 60.772 C 181.441 60.539,181.804 60.394,181.903 60.451 C 182.002 60.507,182.029 60.494,181.963 60.421 C 181.897 60.348,182.190 59.904,182.614 59.436 C 185.117 56.666,185.310 51.485,183.081 46.890 C 181.318 43.257,178.004 41.551,173.922 42.178 M223.419 47.472 C 222.616 50.375,221.915 52.824,221.862 52.914 C 221.809 53.004,221.756 53.191,221.743 53.330 C 221.731 53.470,221.246 55.289,220.664 57.373 C 220.083 59.458,219.640 61.189,219.679 61.221 C 219.911 61.410,226.078 62.985,226.171 62.879 C 226.233 62.808,226.893 60.539,227.638 57.837 C 229.128 52.432,229.045 52.594,230.578 52.079 C 233.359 51.145,236.555 51.952,237.370 53.793 C 237.871 54.927,237.702 56.053,236.278 61.083 C 235.452 64.003,235.111 65.452,235.234 65.526 C 235.485 65.676,241.545 67.344,241.609 67.280 C 242.046 66.843,245.045 54.988,245.120 53.403 C 245.402 47.390,239.365 43.860,232.300 45.907 C 230.651 46.384,230.791 46.480,231.165 45.131 L 231.474 44.017 230.945 43.852 C 230.655 43.761,229.404 43.412,228.167 43.076 C 226.929 42.740,225.845 42.422,225.757 42.368 C 224.966 41.886,224.964 41.889,223.419 47.472 M209.750 46.266 C 210.666 46.526,211.114 46.843,211.589 47.568 L 211.902 48.046 210.826 47.943 C 210.234 47.887,208.438 47.756,206.833 47.652 C 203.515 47.437,203.644 47.473,204.180 46.901 C 205.145 45.869,207.434 45.608,209.750 46.266 M175.998 49.417 C 178.130 50.527,178.250 54.339,176.185 55.407 C 174.455 56.302,171.379 56.643,170.240 56.067 C 168.867 55.372,168.114 52.785,168.863 51.333 C 169.720 49.672,174.184 48.473,175.998 49.417 M149.490 49.404 C 146.795 49.996,141.455 52.366,139.391 53.887 C 138.827 54.303,138.320 54.611,138.266 54.571 C 138.211 54.532,138.203 54.549,138.248 54.609 C 138.292 54.669,138.023 55.049,137.650 55.455 C 136.046 57.194,135.753 59.535,136.850 61.833 C 138.739 65.788,141.092 65.997,149.299 62.941 C 153.683 61.308,154.000 61.267,154.000 62.334 C 154.000 63.568,146.562 66.395,145.668 65.501 L 145.294 65.127 142.234 66.438 C 138.798 67.911,138.936 67.757,139.825 69.133 C 141.899 72.342,145.590 72.693,151.651 70.256 C 160.055 66.877,162.286 63.753,159.939 58.653 C 158.430 55.375,155.745 54.973,149.583 57.105 C 143.381 59.251,143.320 59.268,143.057 58.908 C 142.909 58.707,142.886 58.566,142.995 58.529 C 143.091 58.498,143.132 58.412,143.087 58.339 C 142.699 57.712,149.872 55.023,150.487 55.565 C 150.754 55.801,151.204 55.660,153.500 54.623 C 153.821 54.478,154.683 54.103,155.417 53.789 C 157.005 53.108,157.034 53.029,156.180 51.708 C 154.757 49.506,152.526 48.738,149.490 49.404 M267.014 55.835 L 264.944 59.820 264.568 58.896 C 262.670 54.226,256.670 51.740,252.268 53.800 C 247.503 56.030,244.395 63.855,246.545 68.205 C 248.349 71.856,253.168 74.181,257.042 73.269 C 257.569 73.145,258.000 73.074,258.000 73.110 C 258.000 73.146,257.770 73.632,257.489 74.188 C 257.208 74.745,257.002 75.218,257.031 75.240 C 257.273 75.424,263.036 78.350,263.071 78.307 C 263.095 78.275,265.313 74.012,267.999 68.833 C 270.686 63.654,273.378 58.468,273.983 57.308 C 274.588 56.148,275.158 55.240,275.250 55.290 C 275.342 55.340,275.304 55.264,275.167 55.123 C 275.029 54.981,273.604 54.187,272.000 53.358 L 269.083 51.851 267.014 55.835 M277.762 60.150 C 275.875 62.777,275.877 62.449,277.740 63.747 C 278.663 64.391,279.290 64.936,279.226 65.039 C 279.160 65.145,279.193 65.170,279.307 65.100 C 279.413 65.034,279.973 65.321,280.569 65.746 L 281.640 66.510 283.070 64.519 C 283.856 63.424,284.543 62.416,284.595 62.279 C 284.673 62.075,281.111 59.342,279.387 58.282 C 279.260 58.205,278.682 58.869,277.762 60.150 M114.711 60.969 C 113.224 62.040,112.005 62.980,112.003 63.057 C 112.000 63.217,114.994 67.333,115.114 67.333 C 115.295 67.333,120.500 63.458,120.500 63.323 C 120.500 63.198,117.853 59.468,117.529 59.135 C 117.467 59.072,116.199 59.897,114.711 60.969 M258.958 61.198 C 259.715 61.567,260.333 61.930,260.333 62.006 C 260.333 62.082,260.487 62.193,260.676 62.253 C 262.736 62.907,262.121 67.219,259.833 68.167 C 258.882 68.561,255.614 67.822,255.945 67.288 C 256.006 67.189,255.971 67.165,255.863 67.232 C 255.625 67.379,254.004 66.353,253.537 65.759 C 252.656 64.639,252.705 63.341,253.687 61.805 C 254.839 60.002,256.189 59.847,258.958 61.198 M270.584 70.292 C 267.944 74.027,265.683 77.167,265.559 77.268 C 265.435 77.370,265.333 77.507,265.333 77.573 C 265.333 77.639,265.032 78.113,264.664 78.627 C 264.296 79.141,264.052 79.613,264.122 79.677 C 265.606 81.015,269.581 83.510,269.788 83.233 C 270.839 81.826,280.831 67.667,280.869 67.532 C 280.906 67.398,275.651 63.500,275.433 63.500 C 275.405 63.500,273.223 66.556,270.584 70.292 M119.167 65.764 C 118.112 66.535,117.175 67.224,117.083 67.295 C 116.992 67.367,116.673 67.598,116.375 67.808 C 116.077 68.018,115.833 68.250,115.833 68.325 C 115.833 68.570,127.169 84.082,127.378 84.124 C 127.558 84.159,132.056 81.000,132.634 80.434 C 132.845 80.226,121.674 64.505,121.241 64.400 C 121.154 64.379,120.221 64.993,119.167 65.764 M105.169 68.272 C 103.884 69.521,102.833 70.601,102.833 70.671 C 102.833 70.741,104.185 72.213,105.837 73.941 C 108.817 77.059,108.836 77.084,108.295 77.125 C 102.621 77.562,98.195 82.709,99.211 87.689 C 100.405 93.541,106.939 98.373,111.910 97.078 C 115.376 96.175,118.464 92.804,119.045 89.289 L 119.259 87.995 119.998 88.748 C 120.956 89.724,120.724 89.828,123.475 87.190 L 125.866 84.896 121.403 80.240 C 118.949 77.679,115.282 73.858,113.254 71.750 C 111.227 69.642,109.167 67.485,108.676 66.958 C 107.553 65.751,107.889 65.625,105.169 68.272 M113.109 81.768 C 115.684 83.235,115.788 85.491,113.392 87.911 C 110.765 90.564,108.927 90.676,107.074 88.294 C 105.861 86.736,106.145 85.405,108.114 83.417 C 110.296 81.213,111.461 80.828,113.109 81.768 M292.334 81.435 C 291.296 81.812,290.367 82.484,289.360 83.586 C 286.992 86.177,287.710 88.746,292.465 94.701 C 295.506 98.508,295.646 98.762,294.973 99.234 C 294.462 99.592,293.929 99.248,292.399 97.575 C 289.638 94.554,288.769 93.127,289.247 92.398 C 289.557 91.925,289.855 92.353,286.787 88.875 C 284.886 86.720,285.077 86.816,284.303 87.625 C 280.873 91.212,283.474 97.955,290.538 103.784 C 291.181 104.315,291.793 104.830,291.896 104.929 C 291.999 105.027,292.139 105.123,292.206 105.142 C 292.274 105.161,292.686 105.343,293.123 105.545 C 296.678 107.197,301.747 104.128,301.743 100.326 C 301.741 98.266,300.777 96.570,296.252 90.667 C 294.647 88.572,294.337 87.831,295.011 87.703 C 295.900 87.535,300.621 93.167,300.182 93.871 C 299.940 94.259,299.808 94.069,302.265 96.877 C 304.661 99.616,304.497 99.546,305.530 98.263 C 307.808 95.436,307.182 92.463,303.322 87.789 C 298.966 82.514,295.261 80.371,292.334 81.435 M91.417 93.507 C 88.122 94.785,85.346 99.444,85.336 103.708 C 85.333 105.159,85.342 105.147,84.614 104.605 C 84.322 104.388,83.887 104.086,83.647 103.934 L 83.212 103.658 82.503 104.746 C 82.113 105.344,81.728 105.833,81.647 105.833 C 81.566 105.833,81.517 105.890,81.538 105.958 C 81.558 106.027,81.108 106.774,80.538 107.619 C 79.967 108.463,79.500 109.214,79.500 109.288 C 79.500 109.432,95.375 120.366,95.611 120.385 C 95.939 120.412,99.505 114.934,99.293 114.730 C 99.178 114.619,97.246 113.273,95.000 111.739 C 92.754 110.204,90.886 108.923,90.849 108.893 C 89.912 108.119,90.964 103.889,92.483 102.324 C 94.427 100.320,94.796 100.456,103.378 106.345 C 104.498 107.113,104.702 107.200,104.900 106.991 C 105.292 106.576,108.500 101.860,108.500 101.699 C 108.500 101.528,99.054 95.003,97.791 94.302 C 95.690 93.135,93.182 92.822,91.417 93.507 M198.581 98.466 C 195.188 99.640,192.616 102.917,190.120 109.250 C 185.719 120.416,185.375 132.332,188.939 150.167 C 191.972 165.341,201.747 170.101,208.621 159.750 C 215.553 149.312,217.092 124.869,211.731 110.355 C 208.306 101.082,203.523 96.758,198.581 98.466 M231.167 99.842 C 222.344 101.667,216.157 121.945,218.712 140.667 C 220.434 153.289,222.029 158.733,225.237 162.934 C 225.562 163.359,225.780 163.792,225.721 163.895 C 225.662 163.999,225.673 164.029,225.747 163.963 C 225.820 163.897,226.301 164.228,226.815 164.698 C 234.613 171.836,243.657 161.878,246.070 143.500 C 246.831 137.704,246.371 123.841,245.240 118.485 C 242.696 106.436,236.833 98.669,231.167 99.842 M167.815 100.217 C 157.613 104.513,152.831 134.544,159.200 154.333 C 162.814 165.566,170.054 170.064,175.965 164.750 C 185.495 156.182,187.518 123.234,179.506 107.083 C 176.646 101.317,171.867 98.510,167.815 100.217 M312.169 100.080 C 311.941 100.203,311.685 100.262,311.601 100.210 C 311.517 100.158,311.490 100.183,311.540 100.266 C 311.591 100.349,306.428 103.378,300.066 106.998 C 293.705 110.617,288.500 113.638,288.500 113.711 C 288.500 113.944,291.696 119.500,291.831 119.500 C 291.902 119.500,293.986 118.349,296.461 116.942 C 300.896 114.421,300.961 114.391,300.857 114.900 C 299.873 119.673,303.108 125.140,307.519 126.157 C 311.860 127.157,318.155 123.966,320.294 119.682 C 322.555 115.151,319.515 108.812,314.255 107.090 C 313.986 107.002,314.113 106.877,314.963 106.398 C 316.219 105.690,316.296 106.173,314.405 102.870 C 312.532 99.598,312.692 99.798,312.169 100.080 M310.838 110.567 C 311.585 111.061,312.999 113.117,313.485 114.414 C 314.899 118.193,310.130 120.920,307.625 117.764 C 305.504 115.092,305.126 112.689,306.610 111.311 C 308.000 110.020,309.590 109.741,310.838 110.567 M78.667 117.314 C 75.972 118.183,74.273 119.885,72.555 123.435 C 69.313 130.135,70.524 135.421,75.939 138.206 C 82.570 141.617,88.035 139.488,90.878 132.385 C 93.231 126.506,92.655 122.412,89.099 119.728 C 87.910 118.831,88.110 118.637,86.664 122.083 L 85.474 124.917 85.673 126.003 C 86.078 128.211,84.570 131.670,82.800 132.598 C 82.225 132.899,81.096 132.918,81.216 132.625 C 81.263 132.510,82.620 129.276,84.231 125.438 C 85.842 121.599,87.124 118.399,87.079 118.326 C 86.973 118.155,85.231 117.581,83.833 117.257 C 82.347 116.911,79.828 116.939,78.667 117.314 M323.833 124.009 C 319.938 125.562,316.652 126.796,316.533 126.752 C 316.414 126.707,316.353 126.731,316.399 126.805 C 316.445 126.878,314.343 127.794,311.728 128.839 C 309.114 129.884,306.950 130.779,306.920 130.828 C 306.833 130.971,309.356 137.171,309.475 137.106 C 309.535 137.073,313.333 135.566,317.917 133.757 C 322.500 131.948,326.475 130.369,326.750 130.248 C 327.025 130.127,328.694 129.452,330.458 128.747 C 332.223 128.042,333.667 127.380,333.667 127.275 C 333.668 126.848,331.284 121.167,331.107 121.176 C 331.002 121.181,327.729 122.456,323.833 124.009 M80.500 123.598 C 80.500 123.651,79.814 125.343,78.976 127.356 L 77.451 131.017 77.156 130.567 C 75.881 128.623,78.073 123.823,80.375 123.517 C 80.444 123.507,80.500 123.544,80.500 123.598 M321.333 135.448 C 317.330 136.113,314.397 137.908,313.086 140.495 C 310.594 145.412,313.371 155.006,317.953 157.314 C 319.175 157.929,323.021 158.548,322.998 158.125 C 322.946 157.201,321.288 151.583,321.010 151.388 C 318.656 149.740,317.838 144.487,319.741 143.240 C 320.286 142.884,320.204 142.740,320.735 145.000 C 321.581 148.605,323.953 158.008,324.037 158.092 C 324.173 158.228,326.834 157.336,327.917 156.791 C 332.922 154.271,334.281 149.518,331.978 142.583 C 330.207 137.250,326.291 134.625,321.333 135.448 M60.110 140.423 C 59.666 142.123,59.338 143.604,59.382 143.715 C 59.468 143.934,84.449 150.607,84.604 150.452 C 84.728 150.327,86.167 144.869,86.214 144.344 C 86.246 143.978,62.553 137.349,61.167 137.336 C 60.982 137.334,60.706 138.141,60.110 140.423 M325.176 142.588 C 326.383 143.212,327.614 146.840,327.173 148.476 C 327.009 149.085,326.369 150.092,326.233 149.955 C 326.175 149.897,324.333 142.581,324.333 142.410 C 324.333 142.261,324.690 142.337,325.176 142.588 M69.724 150.504 C 65.208 151.320,62.286 155.475,62.736 160.439 C 62.893 162.171,63.864 164.702,64.569 165.215 C 64.669 165.288,64.188 165.325,63.502 165.299 L 62.254 165.250 61.859 168.552 C 61.642 170.367,61.491 171.874,61.524 171.899 C 61.574 171.937,87.990 175.146,88.890 175.224 C 89.136 175.245,89.211 175.106,89.267 174.525 C 89.305 174.127,89.481 172.629,89.658 171.196 C 89.835 169.763,89.956 168.567,89.927 168.538 C 89.897 168.509,87.633 168.220,84.895 167.896 C 82.157 167.572,79.824 167.278,79.711 167.243 C 79.596 167.207,79.900 166.808,80.404 166.331 C 83.188 163.698,83.938 158.462,82.036 154.947 C 80.300 151.740,74.489 149.643,69.724 150.504 M74.665 157.710 C 77.086 158.913,76.496 165.315,73.884 166.177 C 70.811 167.192,68.655 165.023,69.156 161.420 C 69.689 157.586,71.695 156.235,74.665 157.710 M325.614 161.089 C 320.314 161.297,315.948 161.496,315.912 161.533 C 315.824 161.621,316.081 168.136,316.176 168.232 C 316.217 168.273,317.751 168.243,319.584 168.165 C 321.417 168.087,323.803 168.002,324.886 167.975 L 326.856 167.928 327.428 168.589 C 329.901 171.451,329.974 175.421,327.575 176.595 C 326.609 177.067,326.409 177.086,318.773 177.432 L 316.463 177.536 316.583 180.893 C 316.649 182.739,316.720 184.268,316.739 184.290 C 316.801 184.360,329.223 183.844,329.917 183.743 C 331.949 183.446,334.048 182.383,334.934 181.202 C 335.190 180.862,335.441 180.546,335.491 180.500 C 335.542 180.454,335.602 180.342,335.624 180.250 C 335.646 180.158,335.830 179.633,336.032 179.083 C 337.089 176.210,336.226 171.514,334.101 168.583 L 333.498 167.750 334.612 167.622 C 335.226 167.552,335.754 167.468,335.787 167.436 C 335.930 167.292,335.570 160.774,335.417 160.745 C 335.325 160.727,330.914 160.882,325.614 161.089 M271.833 174.600 C 268.209 175.245,266.909 176.565,266.927 179.583 C 266.947 182.964,268.224 184.074,272.045 184.027 C 274.170 184.001,274.173 184.002,274.089 184.376 C 274.044 184.582,273.851 185.950,273.662 187.417 C 272.853 193.701,271.199 199.116,268.350 204.811 C 266.386 208.738,262.842 214.294,262.454 214.055 C 262.358 213.996,262.332 214.029,262.395 214.131 C 262.799 214.785,252.116 226.130,251.471 225.732 C 251.360 225.663,251.328 225.689,251.393 225.795 C 251.456 225.897,250.978 226.402,250.294 226.956 C 239.394 235.789,223.976 242.402,211.333 243.667 C 209.052 243.895,190.813 243.887,188.685 243.656 C 183.235 243.067,174.867 240.784,168.815 238.236 C 164.697 236.503,158.246 233.109,158.448 232.783 C 158.508 232.686,158.468 232.667,158.354 232.737 C 157.993 232.960,151.982 228.831,148.333 225.853 C 136.473 216.176,127.379 199.646,126.438 186.060 L 126.356 184.869 128.136 184.808 C 131.524 184.692,132.996 183.318,132.999 180.269 C 133.002 177.500,131.742 176.362,127.667 175.452 C 125.724 175.018,119.952 174.928,118.250 175.305 C 111.641 176.768,107.849 179.163,107.550 182.064 C 107.218 185.283,111.044 187.605,114.750 186.434 C 115.982 186.044,115.939 186.000,116.049 187.792 C 117.262 207.675,132.194 229.302,153.365 241.837 C 153.886 242.146,154.268 242.471,154.214 242.558 C 154.160 242.646,154.193 242.670,154.289 242.611 C 154.385 242.551,155.278 242.966,156.273 243.531 C 180.677 257.396,214.762 257.792,242.167 244.528 C 265.431 233.268,284.117 207.133,284.166 185.787 C 284.167 185.504,284.189 185.504,284.708 185.787 C 285.662 186.308,288.317 186.206,289.633 185.598 C 292.204 184.411,293.210 181.776,291.928 179.588 C 291.699 179.197,291.547 178.830,291.589 178.772 C 291.632 178.714,291.621 178.700,291.564 178.741 C 291.508 178.782,291.077 178.528,290.606 178.176 C 288.829 176.847,285.856 175.665,282.583 174.984 C 280.977 174.650,273.130 174.370,271.833 174.600 M73.333 176.231 C 69.924 176.987,69.167 178.974,69.167 187.165 C 69.167 192.032,69.151 192.167,68.572 192.167 C 68.073 192.167,67.915 191.610,67.676 189.000 C 67.349 185.415,67.471 184.000,68.108 184.000 C 68.328 184.000,68.355 183.854,68.272 183.125 C 68.217 182.644,68.087 181.125,67.983 179.750 C 67.759 176.799,67.899 177.052,66.631 177.314 C 62.749 178.116,61.417 180.946,61.846 187.490 C 62.397 195.911,64.234 198.917,68.833 198.917 C 73.751 198.917,74.846 196.757,74.589 187.568 C 74.483 183.799,74.499 183.358,74.748 183.110 C 75.503 182.355,76.050 183.048,76.312 185.093 C 76.901 189.692,76.693 191.589,75.555 192.017 C 75.433 192.063,75.462 193.110,75.648 195.417 L 75.917 198.750 76.417 198.699 C 78.655 198.472,80.329 197.344,81.302 195.407 C 82.883 192.255,82.502 182.776,80.647 179.129 C 80.324 178.495,78.845 176.729,78.676 176.776 C 78.625 176.791,78.321 176.693,78.000 176.557 C 76.658 175.993,74.948 175.873,73.333 176.231 M321.210 187.241 C 315.448 188.556,312.465 197.182,316.273 201.517 C 316.488 201.762,316.405 201.767,315.296 201.576 C 314.629 201.460,314.062 201.386,314.036 201.411 C 313.971 201.472,312.828 208.054,312.877 208.085 C 313.051 208.194,338.660 212.396,338.730 212.326 C 338.852 212.203,339.905 205.850,339.818 205.762 C 339.779 205.724,337.911 205.382,335.666 205.002 C 333.420 204.621,331.486 204.279,331.367 204.241 C 331.231 204.197,331.382 203.969,331.776 203.627 C 335.844 200.094,336.220 193.387,332.543 189.983 C 330.054 187.680,324.828 186.415,321.210 187.241 M326.500 194.380 C 327.879 195.061,328.349 196.374,328.005 198.583 C 327.490 201.881,326.593 203.002,324.467 202.998 C 321.666 202.994,320.507 201.419,320.989 198.272 C 321.593 194.325,323.567 192.931,326.500 194.380 M311.920 209.708 C 311.882 209.823,311.534 210.929,311.148 212.167 C 310.761 213.404,310.401 214.454,310.348 214.500 C 310.294 214.546,310.240 214.696,310.228 214.833 C 310.216 214.971,310.155 215.275,310.093 215.510 L 309.980 215.937 315.115 217.566 C 317.939 218.462,321.501 219.579,323.030 220.049 C 324.559 220.518,325.766 220.974,325.713 221.060 C 325.659 221.147,325.701 221.165,325.805 221.101 C 325.909 221.036,326.608 221.178,327.358 221.414 C 328.108 221.651,328.770 221.786,328.830 221.714 C 329.027 221.476,330.860 215.471,330.764 215.375 C 330.657 215.268,312.378 209.500,312.145 209.500 C 312.059 209.500,311.958 209.594,311.920 209.708 M84.333 211.333 C 83.279 211.685,79.070 213.067,74.980 214.404 L 67.543 216.834 68.576 220.042 C 69.144 221.806,69.682 223.250,69.771 223.250 C 70.288 223.250,88.331 217.219,88.332 217.046 C 88.333 216.836,86.345 210.656,86.284 210.680 C 86.265 210.687,85.388 210.981,84.333 211.333 M331.934 215.807 C 331.818 215.999,330.000 221.895,330.000 222.080 C 330.000 222.220,334.296 223.673,334.896 223.735 C 334.976 223.743,335.156 223.412,335.296 223.000 C 335.436 222.588,335.614 222.225,335.693 222.194 C 335.771 222.163,335.798 222.078,335.752 222.003 C 335.706 221.929,335.968 220.932,336.334 219.787 C 337.156 217.218,337.157 217.280,336.292 217.038 C 335.902 216.929,334.777 216.583,333.792 216.268 C 332.807 215.954,331.971 215.747,331.934 215.807 M63.781 218.031 C 62.199 218.567,61.338 218.939,61.387 219.065 C 61.428 219.174,61.896 220.610,62.427 222.256 C 62.957 223.903,63.411 225.277,63.435 225.309 C 63.495 225.389,68.214 223.824,68.387 223.667 C 68.535 223.533,66.545 217.158,66.362 217.180 C 66.300 217.187,65.139 217.570,63.781 218.031 M86.784 219.597 C 85.978 220.008,85.236 220.293,85.134 220.230 C 85.032 220.167,84.991 220.184,85.043 220.268 C 85.095 220.353,80.601 222.633,75.055 225.336 C 69.510 228.039,64.952 230.287,64.926 230.333 C 64.848 230.472,67.830 236.419,67.962 236.389 C 68.030 236.373,69.856 235.502,72.019 234.453 L 75.954 232.545 75.709 233.314 C 74.490 237.142,76.848 242.420,80.606 244.277 C 85.692 246.791,94.345 242.621,95.666 237.019 C 96.592 233.093,93.941 227.924,90.228 226.415 L 89.282 226.030 90.383 225.473 L 91.484 224.917 90.003 221.875 C 89.188 220.202,88.461 218.837,88.386 218.842 C 88.311 218.846,87.591 219.186,86.784 219.597 M85.479 229.073 C 87.814 230.280,89.357 234.846,87.965 236.431 C 85.328 239.434,81.735 237.606,80.695 232.732 C 80.180 230.314,83.286 227.938,85.479 229.073 M306.726 230.673 C 303.965 231.220,300.448 235.130,297.662 240.750 C 295.100 245.918,295.831 249.247,299.977 251.296 C 303.204 252.891,305.489 251.712,309.083 246.598 C 313.056 240.945,313.115 240.877,313.609 241.371 C 314.269 242.031,310.287 248.464,309.334 248.277 C 308.969 248.205,305.500 253.410,305.500 254.030 C 305.500 254.383,307.826 255.083,308.997 255.083 C 314.261 255.083,321.721 242.516,319.291 237.743 C 317.926 235.063,314.328 233.623,311.957 234.809 C 311.126 235.225,309.167 236.821,309.167 237.082 C 309.167 237.114,308.688 237.776,308.102 238.552 C 307.517 239.328,306.277 241.092,305.347 242.472 C 303.561 245.120,303.199 245.439,302.625 244.866 C 302.201 244.441,302.330 244.022,303.534 241.917 C 305.511 238.459,306.554 237.244,307.425 237.386 L 307.970 237.474 309.652 234.667 C 311.617 231.386,311.556 231.637,310.501 231.183 C 309.081 230.572,307.985 230.424,306.726 230.673 M94.083 244.258 C 88.459 248.649,87.787 249.288,86.887 251.111 C 84.789 255.357,88.213 261.163,93.994 263.165 L 95.331 263.628 94.416 264.334 C 93.912 264.723,93.500 265.095,93.500 265.161 C 93.500 265.266,97.121 270.007,97.492 270.389 C 97.596 270.495,111.944 259.556,112.973 258.586 C 113.157 258.412,112.835 257.909,111.149 255.729 C 110.024 254.274,109.087 253.059,109.068 253.030 C 109.049 253.001,107.142 254.445,104.831 256.239 C 102.520 258.032,100.494 259.500,100.329 259.500 C 97.406 259.500,93.888 255.942,94.513 253.619 C 94.717 252.860,97.074 250.333,97.578 250.333 C 97.718 250.333,97.833 250.271,97.833 250.195 C 97.833 250.118,99.073 249.095,100.589 247.920 C 102.105 246.745,103.323 245.735,103.297 245.675 C 103.196 245.443,99.245 240.354,99.167 240.354 C 99.121 240.354,96.833 242.111,94.083 244.258 M286.041 244.125 C 285.578 244.652,284.594 245.721,283.854 246.500 C 283.114 247.279,282.507 247.992,282.505 248.083 C 282.504 248.175,284.224 249.825,286.328 251.750 L 290.154 255.250 289.035 255.442 C 283.419 256.404,279.643 262.219,281.400 267.198 C 282.566 270.501,286.402 274.080,289.885 275.114 C 294.657 276.531,300.300 272.509,301.034 267.167 C 301.141 266.387,301.252 265.719,301.280 265.681 C 301.308 265.644,301.702 265.925,302.154 266.307 L 302.977 267.001 305.239 264.556 C 306.482 263.212,307.500 262.059,307.500 261.996 C 307.500 261.932,306.808 261.251,305.963 260.482 C 304.122 258.807,300.048 255.057,299.000 254.072 C 298.378 253.487,294.279 249.722,288.271 244.216 C 286.889 242.950,287.068 242.957,286.041 244.125 M294.750 259.674 C 297.597 261.410,297.606 263.528,294.780 266.392 C 292.870 268.327,291.631 268.604,290.032 267.456 C 287.604 265.712,287.647 263.925,290.182 261.257 C 292.127 259.209,293.313 258.798,294.750 259.674 M114.000 263.033 C 112.794 263.168,110.521 264.184,109.868 264.880 L 109.488 265.284 110.202 265.930 C 110.595 266.285,110.898 266.634,110.875 266.705 C 110.852 266.775,110.927 266.815,111.042 266.792 C 111.156 266.769,111.229 266.849,111.204 266.971 C 111.179 267.092,111.229 267.148,111.315 267.095 C 111.401 267.041,112.117 267.551,112.905 268.226 C 114.217 269.350,114.418 269.464,115.265 269.564 C 117.796 269.861,120.855 272.688,120.822 274.700 C 120.796 276.283,121.052 276.439,114.614 270.930 C 111.338 268.127,108.625 265.833,108.584 265.833 C 108.044 265.833,105.669 270.080,105.232 271.829 C 103.762 277.702,110.830 285.417,117.680 285.417 L 119.776 285.417 121.222 284.700 C 125.639 282.511,128.627 277.095,127.586 273.163 C 127.429 272.569,127.289 271.971,127.275 271.833 C 127.261 271.696,127.192 271.508,127.122 271.417 C 127.051 271.325,126.689 270.769,126.316 270.182 C 123.502 265.739,118.053 262.576,114.000 263.033 M273.752 267.915 C 272.378 269.055,271.230 270.059,271.202 270.145 C 271.173 270.231,273.853 273.571,277.158 277.566 C 280.463 281.561,283.167 284.906,283.167 284.998 C 283.167 285.091,283.227 285.167,283.300 285.167 C 283.373 285.167,284.393 286.329,285.565 287.750 C 286.737 289.171,287.752 290.333,287.820 290.333 C 287.968 290.333,293.000 286.185,293.000 286.063 C 293.000 285.993,285.500 276.826,283.813 274.833 C 283.541 274.512,281.766 272.360,279.868 270.050 C 277.970 267.740,276.379 265.848,276.333 265.846 C 276.287 265.844,275.126 266.775,273.752 267.915 M112.588 274.610 C 113.083 275.037,113.447 275.451,113.398 275.530 C 113.349 275.610,113.389 275.654,113.488 275.629 C 113.779 275.555,117.658 278.900,117.441 279.039 C 115.779 280.105,110.810 276.078,111.419 274.159 C 111.558 273.721,111.560 273.722,112.588 274.610 M125.623 285.305 C 121.803 291.248,118.639 296.217,118.590 296.347 C 118.510 296.565,124.085 300.314,124.238 300.145 C 124.283 300.095,133.527 285.758,134.083 284.876 C 134.175 284.730,135.139 283.222,136.226 281.524 C 137.312 279.826,138.235 278.349,138.276 278.241 C 138.344 278.066,133.029 274.500,132.700 274.500 C 132.628 274.500,129.443 279.362,125.623 285.305 M265.417 274.903 C 260.507 276.036,255.190 280.620,254.501 284.314 C 254.211 285.868,254.594 288.827,255.158 289.392 C 255.494 289.727,260.860 286.157,261.110 285.432 C 262.071 282.642,267.586 280.283,268.749 282.165 C 268.791 282.233,265.827 284.144,262.163 286.411 C 257.900 289.048,255.541 290.602,255.613 290.725 C 259.533 297.439,265.307 298.522,272.161 293.828 C 277.356 290.270,278.709 285.890,276.172 280.844 C 275.415 279.339,273.293 276.500,272.925 276.500 C 272.884 276.500,272.524 276.280,272.125 276.011 C 270.350 274.812,267.703 274.376,265.417 274.903 M156.942 278.958 C 156.814 279.210,155.828 281.329,154.750 283.667 C 153.673 286.004,152.774 287.937,152.753 287.962 C 152.733 287.986,152.467 287.499,152.163 286.878 C 151.477 285.480,149.816 283.783,148.417 283.052 C 142.167 279.790,136.886 282.501,134.229 290.333 C 133.826 291.522,133.780 295.947,134.167 296.333 C 134.212 296.379,134.437 296.792,134.667 297.250 C 136.433 300.783,142.076 303.080,145.775 301.771 L 146.467 301.526 145.974 302.614 C 145.702 303.213,145.528 303.751,145.587 303.810 C 145.837 304.061,151.593 306.626,151.684 306.526 C 151.740 306.466,153.540 302.618,155.684 297.975 C 157.829 293.332,159.651 289.575,159.734 289.626 C 159.817 289.677,159.835 289.637,159.774 289.539 C 159.713 289.440,160.490 287.577,161.501 285.399 C 162.512 283.221,163.280 281.380,163.208 281.308 C 163.075 281.175,157.408 278.500,157.258 278.500 C 157.212 278.500,157.070 278.706,156.942 278.958 M246.583 285.088 C 245.025 285.671,243.681 286.174,243.597 286.208 C 243.513 286.241,244.259 288.506,245.253 291.240 L 247.062 296.212 246.592 297.110 C 245.621 298.964,243.403 300.473,241.440 300.616 C 239.262 300.773,238.625 299.923,236.486 294.000 C 235.642 291.662,234.890 289.681,234.815 289.598 C 234.735 289.509,233.371 289.917,231.524 290.583 L 228.370 291.721 228.669 292.569 C 233.006 304.871,233.815 306.476,236.366 307.839 C 239.694 309.616,245.580 307.625,248.446 303.753 C 249.423 302.433,249.336 302.434,249.805 303.741 L 250.190 304.815 252.053 304.142 C 253.078 303.771,254.469 303.271,255.145 303.030 C 255.820 302.789,256.407 302.501,256.449 302.392 C 256.491 302.282,255.468 299.284,254.174 295.730 C 252.881 292.176,251.862 289.166,251.910 289.042 C 251.957 288.918,251.932 288.856,251.854 288.904 C 251.775 288.953,251.308 287.869,250.815 286.496 C 250.184 284.736,249.846 284.004,249.668 284.015 C 249.530 284.023,248.142 284.506,246.583 285.088 M270.778 286.607 C 270.440 288.693,266.462 291.159,264.525 290.484 C 264.236 290.383,264.002 290.252,264.005 290.192 C 264.014 289.993,266.351 288.658,266.514 288.759 C 266.603 288.813,266.654 288.783,266.629 288.691 C 266.586 288.533,270.422 286.021,270.730 286.007 C 270.811 286.003,270.833 286.273,270.778 286.607 M145.441 289.185 C 149.840 290.541,151.173 293.025,148.991 295.800 C 147.167 298.118,140.838 295.724,140.833 292.714 C 140.828 290.097,143.000 288.433,145.441 289.185 M164.478 290.670 C 161.506 291.172,159.497 293.853,159.502 297.309 C 159.506 300.482,161.322 301.796,168.878 304.092 C 173.227 305.414,173.813 305.728,173.075 306.340 C 172.328 306.960,165.333 305.002,165.333 304.172 C 165.333 303.964,165.193 303.807,164.958 303.752 C 164.752 303.704,163.282 303.361,161.690 302.989 C 158.300 302.198,158.583 302.078,158.584 304.306 C 158.586 307.660,160.439 309.381,165.583 310.808 C 175.246 313.489,179.769 312.033,180.125 306.126 C 180.355 302.316,179.046 301.443,168.333 298.268 C 166.556 297.741,166.248 297.531,166.395 296.945 C 166.550 296.326,167.096 296.242,168.802 296.572 C 173.340 297.451,175.167 298.238,175.167 299.312 C 175.167 299.590,181.603 301.269,181.833 301.051 C 182.167 300.735,181.890 297.529,181.451 296.635 C 179.755 293.181,169.970 289.742,164.478 290.670 M218.083 292.990 C 215.749 293.370,213.953 294.245,212.603 295.660 C 211.573 296.740,211.675 296.793,211.411 295.042 C 211.282 294.190,211.571 294.208,207.583 294.803 C 205.189 295.160,204.589 295.301,204.612 295.500 C 205.563 303.726,208.296 321.167,208.634 321.167 C 209.131 321.167,214.876 320.346,214.959 320.263 C 214.993 320.229,214.754 318.345,214.427 316.076 C 213.705 311.061,213.715 311.448,214.320 311.795 C 214.588 311.949,214.779 312.120,214.744 312.176 C 214.710 312.232,214.772 312.287,214.882 312.298 C 214.993 312.309,215.646 312.524,216.333 312.775 C 222.598 315.061,228.654 310.805,228.664 304.110 C 228.675 296.628,224.258 291.986,218.083 292.990 M196.236 297.958 C 196.289 299.677,196.380 304.150,196.437 307.899 L 196.540 314.714 198.046 314.607 C 198.874 314.548,200.410 314.500,201.461 314.500 L 203.370 314.500 203.267 308.208 C 203.210 304.748,203.118 300.323,203.063 298.375 L 202.963 294.833 199.551 294.833 L 196.138 294.833 196.236 297.958 M220.169 300.208 C 222.287 301.283,222.385 305.061,220.322 306.121 C 218.590 307.012,215.593 307.263,214.327 306.625 C 212.912 305.911,212.165 303.287,212.965 301.833 C 213.856 300.212,218.231 299.225,220.169 300.208 M196.693 315.814 C 196.512 315.928,196.493 316.464,196.591 318.583 L 196.713 321.211 200.065 321.090 C 201.908 321.024,203.439 320.948,203.466 320.921 C 203.493 320.895,203.463 319.702,203.399 318.270 L 203.283 315.667 200.100 315.669 C 198.349 315.671,196.816 315.736,196.693 315.814 " stroke="none" fill="#7c34fc" fill-rule="evenodd"></path><path id="path1" d="" stroke="none" fill="#8034fc" fill-rule="evenodd"></path><path id="path2" d="" stroke="none" fill="#8034fc" fill-rule="evenodd"></path><path id="path3" d="" stroke="none" fill="#8034fc" fill-rule="evenodd"></path><path id="path4" d="" stroke="none" fill="#8034fc" fill-rule="evenodd"></path></g></svg>