<?xml version="1.0" standalone="no"?>
<!DOCTYPE svg PUBLIC "-//W3C//DTD SVG 20010904//EN"
 "http://www.w3.org/TR/2001/REC-SVG-20010904/DTD/svg10.dtd">
<svg version="1.0" xmlns="http://www.w3.org/2000/svg"
 width="328.000000pt" height="328.000000pt" viewBox="0 0 328.000000 328.000000"
 preserveAspectRatio="xMidYMid meet">

<g transform="translate(0.000000,328.000000) scale(0.100000,-0.100000)"
fill="#000000" stroke="none">
<path d="M0 1640 l0 -1640 1640 0 1640 0 0 1640 0 1640 -1640 0 -1640 0 0
-1640z m2930 1610 c-9 -6 -10 -10 -3 -10 19 0 16 -357 -3 -364 -8 -3 -14 -13
-13 -23 0 -11 3 -13 6 -5 2 6 9 12 14 12 12 0 12 -127 -1 -135 -6 -3 -7 1 -4
9 3 9 2 16 -4 16 -5 0 -12 14 -16 32 -6 30 -7 31 -21 12 -9 -10 -15 -14 -14
-9 3 26 -2 46 -11 40 -5 -3 -10 3 -10 15 0 14 -4 19 -12 14 -7 -4 -10 -3 -5 1
4 5 0 19 -8 32 -10 15 -12 23 -4 23 9 0 9 3 0 14 -6 7 -9 22 -5 32 4 14 3 16
-4 5 -8 -11 -12 -10 -21 5 -6 11 -11 13 -11 6 0 -10 -5 -10 -22 -2 -21 10 -22
10 -5 -4 10 -8 18 -17 17 -20 -3 -14 8 -30 16 -23 5 4 2 12 -5 16 -9 6 -10 11
-3 15 9 5 32 -21 32 -37 0 -10 -40 -14 -46 -5 -4 6 -10 5 -15 -3 -7 -11 -9
-10 -9 4 0 11 -5 15 -11 11 -8 -4 -8 0 0 15 11 19 8 25 -11 22 -5 0 -8 4 -8
10 0 8 -4 9 -13 0 -8 -6 -17 -8 -20 -4 -4 3 -16 -2 -27 -12 -17 -15 -20 -16
-15 -3 5 13 0 16 -27 14 -18 -1 -38 2 -44 6 -19 14 -54 18 -51 6 4 -17 -32
-17 -43 0 -9 14 -10 14 -5 -4 6 -24 -19 -41 -31 -22 -4 7 -3 8 4 4 7 -4 12 -2
12 4 0 7 -6 10 -12 7 -7 -2 -12 -12 -10 -21 2 -9 -4 -23 -13 -32 -23 -24 -18
-30 22 -26 32 4 35 3 22 -11 -9 -10 -16 -11 -21 -4 -10 16 -40 -13 -33 -31 4
-12 3 -12 -9 -3 -8 7 -28 16 -44 21 -25 6 -30 5 -25 -6 3 -8 9 -11 15 -8 5 3
16 3 24 0 12 -5 13 -8 2 -20 -8 -9 -19 -11 -29 -6 -10 6 -19 3 -27 -11 -7 -11
-8 -19 -2 -19 5 0 10 5 10 10 0 16 27 12 34 -5 3 -8 0 -14 -6 -12 -6 1 -13 -4
-15 -10 -3 -9 4 -12 21 -11 14 1 26 5 26 9 0 9 59 9 64 0 3 -4 -8 -7 -24 -6
-23 1 -30 -3 -30 -16 0 -10 -4 -21 -10 -24 -6 -3 -7 1 -4 9 3 9 2 16 -4 16
-12 0 -24 -29 -16 -41 3 -5 1 -9 -3 -9 -5 0 -17 -15 -28 -32 l-19 -33 26 17
c17 11 28 14 30 7 2 -7 22 -15 43 -20 l40 -8 -38 2 c-30 3 -36 0 -32 -12 3 -9
3 -12 -1 -9 -11 12 -46 -12 -40 -28 3 -8 2 -14 -3 -14 -4 0 -12 -10 -18 -22
-8 -19 -10 -20 -16 -4 -4 9 -3 15 2 11 14 -8 25 35 13 47 -14 14 -56 -26 -49
-46 4 -9 1 -15 -6 -13 -7 1 -11 -4 -9 -11 2 -10 -2 -10 -17 -3 -14 8 -21 7
-24 -2 -3 -6 -6 -1 -6 12 -1 17 3 22 15 17 8 -3 12 -2 9 3 -3 6 13 24 35 42
43 35 49 52 25 75 -8 9 -15 24 -15 35 0 11 -5 17 -10 14 -6 -4 -8 -10 -5 -15
4 -7 -31 -23 -47 -21 -5 1 -8 -6 -8 -14 0 -8 6 -15 13 -15 8 0 7 -4 -3 -10 -8
-5 -19 -10 -25 -10 -5 0 -3 5 5 10 12 8 11 10 -7 10 -12 0 -25 5 -28 10 -4 6
-11 8 -16 4 -5 -3 -7 -9 -5 -13 3 -4 0 -13 -5 -21 -8 -13 -10 -13 -19 0 -11
17 -13 10 -4 -14 4 -11 10 -13 18 -8 6 5 30 12 54 15 43 5 44 5 25 -16 -15
-17 -16 -20 -1 -14 11 4 15 1 13 -11 -2 -9 -4 -19 -4 -22 -1 -2 -6 1 -13 8
-20 20 -37 14 -31 -10 4 -22 3 -21 -19 5 -13 15 -29 27 -35 27 -6 0 -18 10
-26 23 l-16 22 6 -24 c5 -21 4 -22 -16 -12 -11 7 -21 16 -21 21 0 6 -4 10 -10
10 -13 0 -13 -30 0 -50 8 -12 11 -13 19 -1 5 8 11 9 15 3 3 -5 -1 -15 -10 -22
-12 -11 -12 -15 -2 -21 10 -7 9 -9 -4 -9 -11 0 -20 10 -24 25 -3 14 -10 25
-15 25 -6 0 -5 -9 1 -20 8 -15 7 -18 -2 -15 -8 3 -18 15 -23 27 -6 12 -20 25
-33 29 -13 5 -21 5 -18 0 3 -5 -3 -11 -14 -14 -11 -3 -20 -10 -20 -17 0 -6 4
-8 10 -5 5 3 10 -1 10 -9 0 -21 -16 -20 -24 1 -6 15 -8 15 -16 3 -8 -13 -10
-13 -10 -1 0 11 -4 9 -15 -5 -14 -18 -14 -18 -8 3 3 14 18 26 39 33 19 7 34
16 34 21 0 6 -4 7 -10 4 -5 -3 -10 -2 -10 4 0 6 14 8 33 6 l32 -5 -27 11 c-16
6 -28 15 -28 21 0 6 7 7 16 4 9 -3 22 -6 30 -6 8 0 14 -7 14 -15 0 -8 6 -14
13 -13 6 2 11 -3 9 -9 -4 -23 13 -14 25 13 11 25 11 26 -12 20 -15 -4 -25 -2
-25 4 0 6 4 9 9 6 5 -3 11 3 14 14 5 19 -7 28 -16 13 -2 -5 -2 -3 -1 4 2 7 -1
15 -6 18 -6 4 -10 -5 -10 -19 0 -18 -4 -24 -15 -20 -26 10 -65 -4 -58 -22 4
-10 -2 -17 -16 -21 -14 -4 -20 -11 -17 -20 4 -9 1 -13 -6 -10 -7 2 -12 9 -11
15 3 11 -35 4 -54 -10 -7 -5 -17 -7 -23 -3 -5 3 -10 1 -10 -4 0 -6 3 -11 8
-12 4 0 15 -2 24 -4 10 -2 20 1 24 6 3 5 13 9 22 8 11 0 12 -2 4 -6 -6 -2 -9
-9 -6 -15 5 -7 -2 -9 -20 -6 -29 6 -37 -15 -10 -26 8 -3 13 -10 9 -15 -6 -11
-35 -4 -33 7 2 21 -5 19 -32 -10 -20 -20 -30 -26 -30 -16 0 9 9 18 20 21 30 8
24 22 -11 23 -27 2 -30 -1 -25 -22 4 -13 1 -26 -6 -30 -7 -5 -9 -2 -5 9 3 9 0
18 -9 21 -11 4 -13 -1 -10 -19 3 -15 1 -23 -5 -20 -5 4 -7 10 -4 15 3 5 1 11
-5 15 -5 3 6 20 25 37 29 25 35 37 35 70 0 32 -7 47 -34 74 -30 30 -40 34 -79
32 -25 -2 -43 -6 -41 -10 5 -8 -15 -22 -22 -15 -3 3 -1 14 4 24 7 13 6 23 -3
36 -16 22 -26 22 -18 0 5 -12 3 -14 -7 -8 -8 5 -11 4 -6 -3 3 -6 2 -13 -4 -17
-16 -10 -12 -38 5 -32 23 9 26 -8 9 -42 -12 -25 -13 -38 -5 -62 17 -49 52 -84
81 -82 17 2 31 -5 44 -23 18 -25 18 -25 -3 -12 -12 7 -21 16 -21 20 0 5 -9 8
-20 8 -11 0 -20 -6 -20 -14 0 -8 -7 -16 -15 -20 -8 -3 -14 -11 -13 -17 2 -6
-7 -15 -20 -20 -15 -6 -21 -5 -17 1 3 6 -3 10 -14 10 -13 0 -21 -7 -21 -17 0
-23 -11 -10 -14 18 -5 37 -17 59 -29 52 -5 -3 -8 -2 -4 3 3 5 -5 22 -18 38
-18 23 -23 25 -22 11 2 -15 -7 -21 -35 -26 -60 -10 -102 -57 -100 -112 0 -16
6 -35 13 -43 10 -13 10 -17 -2 -25 -11 -8 -10 -9 6 -8 11 1 36 -5 55 -14 33
-15 37 -14 68 4 46 26 55 23 11 -4 -20 -12 -35 -28 -33 -35 1 -7 0 -8 -3 -2
-6 13 -69 40 -93 40 -9 0 -29 -9 -44 -21 -14 -11 -32 -19 -39 -16 -6 2 5 12
25 21 21 10 36 22 33 26 -3 5 -1 11 5 15 22 13 -1 22 -39 15 -22 -4 -46 -3
-53 1 -15 10 -2 13 49 10 37 -2 39 3 19 40 -15 30 -13 73 4 94 9 11 9 18 -3
30 -24 23 -33 18 -11 -7 18 -20 18 -21 1 -15 -10 4 -21 7 -23 7 -2 0 -4 7 -4
15 0 8 -4 15 -10 15 -5 0 -7 -7 -4 -15 4 -8 1 -15 -5 -15 -16 0 -51 -75 -46
-99 4 -21 -5 -25 -51 -22 -12 1 -25 -8 -34 -23 -7 -14 -17 -23 -21 -20 -4 2
-11 -1 -15 -7 -5 -8 1 -10 20 -7 22 4 26 2 20 -11 -13 -33 -13 -60 2 -54 8 3
12 8 10 12 -3 4 -1 13 3 20 6 10 12 9 25 -4 9 -10 14 -20 10 -24 -4 -3 -9 0
-11 7 -7 19 -19 14 -20 -8 -1 -13 2 -18 10 -14 7 4 8 3 4 -2 -12 -13 -78 -12
-67 1 11 14 10 65 -2 65 -5 0 -16 6 -23 14 -12 12 -10 16 14 26 20 8 28 18 27
33 -1 12 3 25 8 29 5 3 2 13 -7 23 -24 23 -21 32 3 10 11 -10 20 -16 20 -12 0
3 3 13 7 23 4 12 3 15 -5 10 -7 -4 -10 -2 -7 6 4 10 -2 14 -19 13 -32 0 -39
-8 -40 -47 -2 -30 -5 -33 -29 -30 -19 2 -27 -2 -27 -12 0 -9 6 -13 14 -10 8 3
17 1 21 -5 12 -20 23 -11 31 22 7 31 8 31 14 7 5 -20 1 -29 -19 -42 -14 -10
-27 -14 -29 -8 -2 5 -9 7 -17 4 -8 -3 -11 -12 -8 -20 6 -17 -27 -15 -49 3 -16
13 -43 1 -43 -19 -2 -50 -20 -134 -29 -140 -15 -11 -54 -10 -60 1 -3 5 9 8 26
7 l33 -1 10 73 c8 57 15 78 33 92 20 16 21 20 7 28 -13 7 -9 9 14 9 35 0 83
38 108 86 11 22 17 26 27 18 8 -6 21 -8 30 -5 13 5 14 9 5 20 -10 12 -9 13 6
8 15 -6 16 -5 4 15 -8 11 -16 21 -19 21 -3 0 -5 23 -5 50 0 40 3 49 15 45 8
-4 11 -3 8 0 -4 4 7 25 23 48 38 52 64 139 50 165 -6 11 -8 22 -5 25 3 3 0 8
-7 13 -8 4 -10 3 -5 -4 5 -8 -2 -12 -21 -12 -34 0 -87 -51 -123 -116 -18 -34
-27 -41 -50 -40 -24 1 -28 4 -25 26 1 14 3 27 4 29 0 2 9 -5 19 -16 9 -10 13
-13 8 -6 -5 8 -6 17 -2 20 4 4 10 3 14 -3 5 -7 14 -4 27 9 20 20 20 20 -2 8
-15 -7 -24 -8 -28 -1 -4 6 -11 8 -16 5 -5 -4 0 10 12 29 12 20 26 33 32 29 6
-3 7 -1 3 5 -4 7 -22 12 -40 12 -27 0 -36 -6 -55 -40 -12 -22 -27 -38 -32 -35
-5 3 -7 0 -4 -7 3 -7 -4 -26 -16 -43 -14 -20 -19 -24 -15 -10 2 11 10 46 16
77 10 53 13 57 30 48 17 -9 19 -8 11 12 -4 12 -13 23 -20 24 -6 1 -7 0 -1 -3
14 -7 13 -21 -2 -20 -7 0 -27 -1 -44 -1 l-31 -2 -13 -94 c-10 -73 -16 -93 -26
-89 -8 3 -14 -1 -14 -8 0 -7 -3 -10 -6 -7 -9 10 19 132 33 141 7 4 13 13 13
20 0 7 -4 6 -10 -3 -8 -12 -10 -9 -10 13 0 24 -4 27 -32 28 -18 1 -25 3 -15 6
14 4 16 8 7 18 -9 11 -15 12 -25 2 -7 -7 -11 -16 -8 -20 3 -5 2 -20 -1 -33 -6
-21 -9 -24 -21 -14 -13 10 -15 8 -15 -16 0 -23 2 -26 11 -14 11 16 10 7 -6
-47 -8 -27 -32 -30 -38 -5 -3 10 -5 5 -6 -12 -1 -22 2 -27 15 -22 13 5 15 2
10 -16 -3 -13 -6 -29 -6 -35 0 -7 -7 -13 -15 -13 -8 0 -15 -5 -15 -11 0 -5 5
-7 10 -4 13 8 13 8 -6 -56 -9 -30 -25 -88 -35 -129 -20 -80 -19 -65 8 130 10
69 19 114 21 101 3 -18 6 -21 12 -11 5 8 4 22 -2 33 -9 18 -5 87 9 145 5 20 2
22 -41 22 -42 0 -46 -2 -46 -25 0 -29 -26 -35 -33 -7 -3 9 -4 -35 -3 -98 1
-63 -1 -142 -4 -175 -5 -40 -8 1 -9 122 -1 158 1 182 14 177 8 -4 15 -11 15
-17 0 -6 3 -7 7 -4 3 4 -3 16 -15 27 -12 12 -23 16 -27 10 -3 -6 -24 -10 -46
-10 l-39 0 -1 -302 c-1 -167 -3 -295 -6 -286 -2 10 -10 15 -19 11 -9 -3 -14 2
-14 16 0 14 5 19 15 15 12 -5 15 5 15 56 0 42 -3 59 -11 54 -8 -5 -8 -1 0 14
15 27 14 122 0 122 -6 0 -9 -6 -6 -13 3 -8 1 -20 -4 -28 -23 -36 -28 30 -29
349 l0 332 1317 0 c855 0 1313 -4 1303 -10z m-231 -403 c19 -33 21 -39 6 -27
-10 8 -27 14 -37 12 -16 -3 -19 0 -13 19 6 18 4 21 -9 16 -9 -4 -16 -2 -16 3
0 5 -34 8 -74 6 -41 -1 -73 1 -70 6 3 4 47 8 97 8 l92 0 24 -43z m-2205 -61
c-4 -31 -9 -54 -12 -52 -2 3 -1 30 3 61 3 31 9 55 11 52 3 -2 2 -30 -2 -61z
m576 40 c0 -19 -34 -76 -53 -89 -13 -8 -30 -29 -37 -46 -7 -17 -17 -28 -22
-25 -6 4 -6 10 1 17 6 6 11 18 11 27 0 13 -1 13 -10 0 -5 -8 -10 -10 -10 -5 0
6 -5 3 -10 -5 -5 -8 -10 -10 -10 -5 0 17 14 33 35 38 l20 5 -20 1 c-11 0 -28
-6 -38 -14 -22 -16 -15 -50 14 -65 30 -16 24 -38 -8 -32 -25 5 -25 6 -8 13 14
5 15 8 5 9 -8 1 -23 3 -32 5 -23 4 -32 -24 -10 -31 37 -12 47 -22 45 -50 l-2
-29 19 25 c11 14 20 20 20 14 0 -11 -37 -54 -47 -54 -3 0 -2 15 1 34 7 37 5
40 -37 50 -25 6 -27 4 -24 -16 2 -13 2 -17 0 -10 -3 6 -11 12 -18 12 -8 0 -17
4 -20 10 -4 6 1 7 11 3 12 -4 15 -3 10 6 -8 13 30 50 52 51 10 0 10 4 -2 16
-18 17 -22 39 -6 29 6 -3 10 -1 10 4 0 14 -17 14 -25 1 -4 -6 -11 -8 -16 -5
-13 8 -11 -9 2 -22 8 -8 3 -19 -20 -42 -18 -17 -36 -31 -41 -31 -8 0 -40 -61
-40 -75 0 -8 46 9 52 19 11 16 10 26 -3 26 -5 0 -8 -4 -5 -9 3 -5 -1 -12 -9
-15 -13 -4 -14 -2 -5 14 13 24 28 26 36 5 4 -8 10 -13 14 -10 12 8 18 -17 12
-53 -4 -28 -7 -32 -26 -25 -11 4 -31 7 -43 8 -11 0 -19 4 -16 8 2 4 20 5 38 1
31 -5 33 -4 31 19 -1 23 -2 24 -18 10 -9 -8 -21 -12 -26 -9 -22 14 -42 -9 -58
-65 -9 -33 -19 -57 -22 -55 -2 3 -13 1 -23 -5 -11 -5 -19 -6 -19 -1 0 5 10 14
23 20 l22 11 -25 1 -25 2 24 7 c20 5 32 25 61 96 29 71 133 255 144 255 10 0
-3 -43 -15 -51 -9 -5 -10 -9 -2 -9 6 0 15 5 18 10 4 6 10 8 15 5 5 -3 11 -1
15 5 4 7 13 6 27 -1 15 -8 19 -8 14 0 -8 13 21 10 44 -3 8 -5 12 -6 8 -1 -11
11 11 47 24 39 7 -4 8 -3 4 4 -8 14 0 32 15 32 5 0 9 -2 9 -4z m1587 -73 c30
-43 37 -61 14 -34 -12 13 -21 18 -21 12 0 -6 -8 -11 -17 -11 -15 0 -14 2 3 14
11 8 15 18 10 23 -5 4 -11 2 -13 -4 -3 -7 -9 -13 -14 -13 -6 0 -7 5 -4 10 7
11 3 11 -87 14 -90 2 -76 12 21 15 87 2 89 2 108 -26z m-1121 -8 c-8 -8 -18
-15 -22 -15 -3 0 -1 7 6 15 7 8 17 15 22 15 5 0 3 -7 -6 -15z m1247 -25 c10
-16 16 -30 13 -30 -2 0 -14 14 -26 30 -12 17 -18 30 -13 30 5 0 17 -13 26 -30z
m-2048 -42 c-11 -65 -56 -173 -66 -156 -12 21 32 186 50 191 9 3 18 5 19 6 2
0 1 -18 -3 -41z m-88 -10 c-3 -8 -6 -5 -6 6 -1 11 2 17 5 13 3 -3 4 -12 1 -19z
m1608 12 c-3 -5 -1 -10 4 -10 6 0 11 -8 11 -17 -1 -17 -1 -17 -11 0 -6 9 -14
15 -20 12 -5 -3 -6 1 -3 9 3 9 10 16 16 16 5 0 6 -4 3 -10z m-615 -19 c15 -30
12 -33 -10 -11 -33 33 -55 18 -30 -20 8 -13 10 -12 10 3 0 9 5 17 10 17 14 0
13 -13 -2 -28 -10 -10 -10 -15 2 -23 13 -9 13 -10 0 -6 -21 5 -45 51 -37 70 9
23 44 21 57 -2z m1111 -56 c8 -16 6 -15 -10 4 -12 13 -21 28 -21 35 0 12 14
-5 31 -39z m-1774 3 c-3 -7 -5 -2 -5 12 0 14 2 19 5 13 2 -7 2 -19 0 -25z
m1654 -15 c28 -41 29 -45 7 -25 -13 12 -34 22 -46 22 -15 0 -20 4 -16 15 5 13
9 13 22 3 13 -11 14 -10 10 2 -6 20 -94 26 -116 8 -10 -8 -13 -9 -9 -1 5 7 -1
13 -15 16 -13 2 12 5 54 6 l77 1 32 -47z m229 3 c0 -6 -7 -1 -15 10 -8 10 -15
23 -15 28 0 6 7 1 15 -10 8 -10 15 -23 15 -28z m-1200 15 c0 -6 -4 -13 -10
-16 -5 -3 -10 1 -10 9 0 9 5 16 10 16 6 0 10 -4 10 -9z m436 -31 c0 -11 -6
-20 -13 -20 -15 0 -15 2 -7 24 9 22 20 20 20 -4z m-1046 6 c0 -2 -7 -9 -15
-16 -13 -11 -14 -10 -9 4 5 14 24 23 24 12z m930 -5 c0 -15 -16 -22 -34 -15
-25 9 -19 24 9 24 14 0 25 -4 25 -9z m150 5 c0 -3 -4 -8 -10 -11 -5 -3 -10 -1
-10 4 0 6 5 11 10 11 6 0 10 -2 10 -4z m-1806 -41 c-5 -11 -2 -13 10 -9 9 3
16 1 16 -6 0 -6 -4 -8 -10 -5 -10 6 -14 -7 -11 -32 1 -6 -3 -14 -8 -17 -5 -4
-9 13 -9 39 0 25 4 45 9 45 4 0 6 -7 3 -15z m1801 5 c-3 -5 -2 -10 3 -10 6 0
13 -7 16 -16 5 -14 4 -15 -9 -4 -12 10 -15 10 -16 -1 0 -8 -4 -5 -8 6 -9 22
-5 35 10 35 6 0 7 -4 4 -10z m-49 -38 c-15 -15 -15 -15 -4 10 7 15 15 23 17
17 2 -6 -4 -18 -13 -27z m-867 14 c9 -11 9 -16 0 -22 -8 -5 -9 -3 -4 6 6 10 4
12 -8 7 -11 -4 -14 -2 -10 9 6 17 8 17 22 0z m1126 -6 c-2 -11 1 -20 6 -20 6
0 7 -4 4 -10 -3 -5 1 -10 10 -10 9 0 14 4 10 9 -3 5 0 13 7 17 7 4 10 4 6 -1
-4 -4 -3 -14 3 -22 13 -15 14 -14 -25 -19 -16 -2 -32 -8 -36 -14 -5 -7 -9 -4
-13 9 -6 23 8 39 16 19 3 -8 6 -6 6 5 1 9 -5 17 -11 17 -9 0 -8 4 2 10 8 5 11
10 7 10 -5 0 -5 5 -2 10 10 16 14 12 10 -10z m-1722 -25 c-5 -25 -7 -27 -13
-10 -4 11 -3 26 3 33 14 17 16 12 10 -23z m1351 23 c-3 -4 -11 -5 -19 -1 -21
7 -19 12 4 10 11 0 18 -5 15 -9z m80 -2 c3 2 4 1 1 -3 -10 -12 -73 -9 -68 3 3
8 14 10 33 4 16 -4 31 -6 34 -4z m141 4 c3 -5 2 -10 -4 -10 -5 0 -13 5 -16 10
-3 6 -2 10 4 10 5 0 13 -4 16 -10z m634 -24 c-3 -3 -11 5 -18 17 -13 21 -12
21 5 5 10 -10 16 -20 13 -22z m-2149 -8 c0 -5 -4 -8 -10 -8 -5 0 -10 10 -10
23 0 18 2 19 10 7 5 -8 10 -18 10 -22z m971 -18 c15 0 40 -33 35 -46 -3 -7 -1
-16 5 -19 5 -4 7 -11 3 -16 -10 -17 -23 1 -18 27 4 21 2 25 -11 20 -9 -3 -14
-2 -10 3 3 5 -8 19 -25 31 -16 12 -30 26 -30 31 0 5 10 1 22 -11 12 -11 25
-20 29 -20z m122 26 c4 -10 1 -13 -8 -9 -8 3 -12 9 -9 14 7 12 11 11 17 -5z
m335 -11 c0 -19 -6 -25 -22 -24 -19 0 -19 1 -3 8 10 4 18 10 18 14 -2 16 -1
27 3 27 2 0 4 -11 4 -25z m52 -2 c0 4 10 1 23 -8 26 -17 39 -11 29 13 -5 15
-4 15 11 3 16 -13 15 -16 -15 -36 -25 -17 -37 -20 -52 -13 -13 7 -21 6 -27 -3
-5 -8 -9 -9 -9 -4 0 6 -5 3 -10 -5 -6 -9 -10 -10 -10 -3 0 12 32 34 47 32 19
-3 34 2 29 10 -3 5 -15 7 -26 4 -11 -3 -20 -1 -20 4 0 17 13 24 22 11 4 -7 8
-10 8 -5z m145 -11 c1 -9 5 -28 8 -42 4 -14 4 -19 1 -11 -5 11 -8 11 -16 0 -7
-10 -8 -8 -5 9 4 18 -1 26 -19 34 l-25 12 23 12 c26 14 31 12 33 -14z m415 -5
c0 -4 -6 -2 -14 5 -8 7 -12 17 -9 22 5 8 23 -12 23 -27z m-1935 13 c3 -5 1
-10 -4 -10 -6 0 -11 5 -11 10 0 6 2 10 4 10 3 0 8 -4 11 -10z m445 6 c0 -3 -4
-8 -10 -11 -5 -3 -10 -1 -10 4 0 6 5 11 10 11 6 0 10 -2 10 -4z m-624 -52 c-8
-20 -26 -18 -26 4 0 15 2 15 11 2 8 -11 9 -8 5 15 -5 25 -4 27 5 12 6 -10 8
-25 5 -33z m574 16 c-6 -12 -9 -28 -6 -36 3 -8 2 -13 -3 -9 -5 3 -11 -1 -14
-7 -2 -7 -8 -9 -13 -5 -5 4 -3 11 4 15 6 5 13 19 14 32 2 14 7 28 13 32 15 11
18 1 5 -22z m173 13 c-7 -3 -13 -9 -13 -14 0 -6 4 -7 10 -4 6 4 7 -1 3 -11 -4
-11 -2 -15 4 -11 6 4 13 0 17 -8 7 -20 -3 -19 -26 2 -21 19 -24 49 -5 56 6 2
14 2 17 -1 3 -2 -1 -7 -7 -9z m359 -31 c-4 -11 -6 -11 -13 0 -5 7 -9 22 -9 32
0 19 0 19 14 1 8 -11 11 -25 8 -33z m798 44 c0 -7 -60 -12 -70 -6 -6 4 7 7 30
8 22 1 40 0 40 -2z m60 -6 c-13 -8 -13 -10 2 -10 10 0 23 -10 29 -22 11 -21
11 -22 -4 -10 -9 8 -22 10 -28 6 -8 -5 -9 -3 -4 6 6 10 4 12 -8 7 -12 -4 -14
-2 -10 10 4 10 2 14 -5 9 -6 -3 -13 -2 -17 4 -4 6 7 10 27 10 25 0 29 -3 18
-10z m-1903 -14 c0 -8 -5 -14 -10 -13 -6 1 -16 -8 -22 -20 -7 -13 -15 -20 -18
-17 -6 7 33 62 44 63 3 1 6 -5 6 -13z m743 -21 c0 -8 -5 -15 -12 -15 -6 0 -8
3 -5 7 4 3 -1 15 -10 26 -17 19 -17 20 5 8 12 -6 22 -18 22 -26z m368 13 c-8
-12 -21 -24 -29 -26 -8 -3 -3 7 10 22 30 32 39 34 19 4z m302 -2 c8 -3 5 -4
-7 -2 -20 4 -27 -4 -25 -25 1 -4 -9 -4 -21 -1 -17 5 -18 7 -5 10 9 2 20 13 24
24 3 11 9 16 13 11 3 -6 13 -13 21 -17z m-1748 -80 c1 -64 4 -86 14 -86 7 0
18 8 23 18 8 12 10 -3 11 -60 0 -44 -4 -78 -10 -78 -5 0 -7 7 -3 16 3 9 0 20
-8 25 -8 5 -9 9 -4 9 6 0 12 16 13 35 2 28 0 33 -13 29 -9 -4 -14 -13 -10 -22
4 -12 3 -12 -8 -3 -10 8 -15 40 -16 113 -1 56 1 99 5 96 3 -4 6 -45 6 -92z
m908 63 c0 -5 -9 -4 -19 3 -11 7 -17 16 -14 20 5 10 33 -10 33 -23z m1019 8
c0 -9 -2 -8 -6 1 -7 19 -23 4 -16 -16 6 -15 5 -15 -10 -3 -16 13 -16 14 0 26
19 14 33 11 32 -8z m-1426 1 c-2 -5 -17 -8 -32 -8 -51 0 -60 -33 -16 -58 17
-10 16 -11 -11 -6 -26 5 -35 1 -55 -23 l-24 -28 -32 32 c-36 37 -30 45 7 10
22 -21 26 -22 42 -8 10 9 18 21 18 28 0 7 4 13 8 13 4 0 8 10 9 22 1 11 8 25
15 29 16 10 78 7 71 -3z m1051 -2 c-5 -14 -47 -46 -59 -46 -5 0 57 59 62 60 1
0 0 -6 -3 -14z m76 -6 c-20 -13 -30 -12 -30 1 0 5 4 8 9 4 5 -3 13 0 16 6 4 5
10 8 13 4 4 -3 0 -10 -8 -15z m-410 0 c0 -5 -5 -10 -11 -10 -5 0 -7 5 -4 10 3
6 8 10 11 10 2 0 4 -4 4 -10z m450 -25 c0 -5 -5 -3 -10 5 -5 8 -10 20 -10 25
0 6 5 3 10 -5 5 -8 10 -19 10 -25z m-1140 3 c0 -6 -13 -8 -30 -6 -16 2 -32 0
-34 -6 -2 -6 -5 -3 -5 7 -1 14 4 16 24 11 16 -4 25 -2 25 6 0 6 5 8 10 5 6 -3
10 -11 10 -17z m360 12 c0 -5 -7 -10 -15 -10 -8 0 -15 5 -15 10 0 6 7 10 15
10 8 0 15 -4 15 -10z m406 -22 c-11 -3 -15 -6 -8 -7 6 -1 12 -6 12 -12 0 -6
-7 -8 -16 -5 -12 4 -15 2 -11 -9 4 -8 2 -17 -2 -20 -5 -3 -12 3 -15 12 -6 14
-9 15 -15 4 -5 -7 -12 -13 -17 -14 -5 -1 -8 -5 -6 -9 3 -11 -10 -10 -28 2 -13
8 -13 10 2 10 9 0 24 9 32 21 8 12 19 18 24 15 6 -3 13 1 16 10 4 10 2 13 -6
8 -7 -5 -8 -3 -4 5 5 7 14 10 22 7 8 -3 14 -1 14 5 0 5 6 4 14 -3 12 -11 11
-14 -8 -20z m461 13 c-1 -12 -8 -19 -19 -18 -11 1 -14 5 -8 13 6 6 7 14 3 17
-3 4 1 7 10 7 9 0 15 -8 14 -19z m-1660 -163 c-2 -35 -3 -9 -3 57 0 66 1 94 3
63 2 -32 2 -86 0 -120z m110 150 c-3 -8 -6 -5 -6 6 -1 11 2 17 5 13 3 -3 4
-12 1 -19z m941 -1 c-1 -13 -7 -24 -13 -24 -8 0 -9 7 -1 24 14 29 16 29 14 0z
m702 6 c7 -10 7 -10 -2 -3 -18 15 -32 12 -19 -3 6 -8 7 -17 3 -21 -4 -4 -2 -7
3 -6 21 5 32 -1 32 -15 0 -18 -17 -20 -17 -2 0 6 -5 4 -11 -5 -5 -10 -16 -18
-23 -18 -8 0 -19 -7 -26 -15 -10 -12 -7 -14 24 -10 19 3 38 0 41 -6 5 -7 15
-5 31 5 29 20 30 20 38 0 3 -8 2 -12 -4 -9 -6 3 -10 -2 -11 -12 0 -16 -1 -17
-7 -1 -5 12 -11 15 -21 8 -11 -6 -12 -12 -3 -22 6 -8 7 -19 3 -27 -6 -10 -11
-5 -16 17 -8 37 -40 55 -33 19 3 -18 0 -24 -11 -23 -9 0 -15 -5 -13 -11 1 -7
-3 -13 -8 -13 -6 0 -8 10 -4 24 6 27 -14 46 -27 25 -7 -12 -9 -12 -9 0 0 8 8
23 18 34 16 19 16 19 -6 12 -21 -6 -22 -5 -11 13 11 18 14 19 24 5 11 -14 13
-14 19 2 4 12 -1 27 -16 44 -19 22 -20 23 -2 8 27 -22 42 -22 21 1 -15 17 -15
18 8 17 13 0 29 -6 35 -12z m-1597 -21 c-3 -9 -12 -24 -20 -33 -7 -9 -10 -19
-6 -22 3 -4 1 -7 -5 -7 -16 0 -15 11 3 34 8 11 15 28 15 39 0 10 4 16 10 12 5
-3 6 -13 3 -23z m514 13 c-4 -8 -2 -17 3 -20 6 -4 10 -11 10 -16 0 -6 -7 -3
-16 6 -15 14 -13 45 2 45 3 0 4 -7 1 -15z m655 -5 c-2 -8 4 -11 16 -8 11 3 19
0 19 -7 0 -10 -7 -11 -23 -5 -12 5 -24 7 -26 5 -2 -2 -4 5 -4 16 0 10 5 17 11
15 5 -2 9 -9 7 -16z m-232 -11 c0 -5 -7 -9 -15 -9 -15 0 -20 12 -9 23 8 8 24
-1 24 -14z m776 -1 c-9 -12 -16 -26 -16 -30 0 -10 33 3 42 16 8 12 48 16 48 4
0 -4 -7 -8 -16 -8 -8 0 -12 -5 -9 -10 4 -6 2 -17 -4 -24 -14 -17 -3 -49 13
-39 6 4 4 -2 -4 -12 -14 -18 -15 -18 -18 3 -2 16 -9 21 -24 19 -11 -2 -30 6
-42 17 -20 20 -20 22 -4 34 10 7 18 19 18 27 0 11 10 19 28 24 2 1 -4 -9 -12
-21z m650 -10 c-2 -20 -10 -34 -19 -36 -13 -3 -13 1 1 32 10 20 18 35 19 36 2
0 1 -15 -1 -32z m-2341 -18 c-10 -11 -23 -20 -29 -20 -6 0 1 11 14 24 30 28
41 25 15 -4z m370 21 c-3 -6 3 -14 12 -20 15 -8 16 -12 4 -23 -10 -9 -12 -10
-7 0 5 8 -2 12 -24 12 -19 0 -29 4 -25 10 4 6 10 8 15 5 4 -3 10 2 14 10 3 8
8 15 11 15 4 0 4 -4 0 -9z m193 -5 c11 -6 11 -11 -1 -24 -8 -10 -17 -26 -21
-36 -3 -10 -9 -16 -13 -12 -4 3 3 20 16 36 12 17 17 30 12 30 -5 0 -13 -4 -16
-10 -10 -16 -21 -12 -22 8 -2 19 21 23 45 8z m652 10 c0 -3 -4 -8 -10 -11 -5
-3 -10 -1 -10 4 0 6 5 11 10 11 6 0 10 -2 10 -4z m257 -13 c0 -10 -4 -21 -10
-24 -5 -4 -5 -14 2 -26 9 -18 7 -20 -17 -15 -15 3 -21 7 -14 10 6 2 9 8 6 14
-7 10 15 58 26 58 4 0 7 -8 7 -17z m693 2 c0 -8 -4 -15 -10 -15 -5 0 -7 7 -4
15 4 8 8 15 10 15 2 0 4 -7 4 -15z m-2283 -32 c-3 -10 -5 -4 -5 12 0 17 2 24
5 18 2 -7 2 -21 0 -30z m2178 10 l18 -28 -21 19 c-12 11 -22 23 -22 28 0 14 7
9 25 -19z m-1750 -69 c-7 -68 -13 -78 -35 -63 -13 7 -12 9 3 9 13 0 17 9 19
38 5 90 8 111 15 94 3 -8 2 -42 -2 -78z m1098 69 c-3 -7 -9 -10 -14 -7 -16 9
-33 -7 -18 -18 11 -8 11 -9 -1 -5 -14 3 -21 23 -13 38 6 13 51 4 46 -8z m-333
-2 c0 -5 -7 -11 -14 -14 -10 -4 -13 -1 -9 9 6 15 23 19 23 5z m36 -13 c-3 -13
-6 -29 -6 -35 0 -7 -5 -13 -11 -13 -5 0 -7 5 -3 12 4 7 3 8 -4 4 -7 -4 -12
-15 -13 -24 -1 -10 -4 -7 -8 8 -6 20 -3 26 13 31 13 3 20 12 18 22 -2 9 2 17
9 17 7 0 9 -9 5 -22z m64 8 c-7 -7 -13 -7 -20 0 -6 6 -3 10 10 10 13 0 16 -4
10 -10z m165 -4 c-3 -3 1 -12 7 -21 10 -13 10 -14 -2 -3 -8 6 -23 12 -34 12
-15 0 -17 3 -8 8 14 9 45 12 37 4z m986 -14 c20 5 20 -99 0 -106 -10 -3 -12 0
-8 12 4 9 2 16 -4 16 -7 0 -9 -10 -6 -23 4 -12 2 -29 -3 -37 -5 -8 -10 -12
-11 -7 -1 4 -3 12 -4 17 -1 6 -3 13 -4 16 0 3 -5 3 -11 -1 -5 -3 -6 -15 -1
-28 8 -22 -5 -67 -20 -67 -10 0 -20 30 -14 40 3 5 12 7 21 3 12 -4 13 -1 4 22
-11 30 -6 45 16 45 10 0 14 11 14 38 0 41 -19 83 -21 47 -1 -11 -1 -23 0 -27
0 -5 -4 -7 -10 -5 -6 1 -14 -4 -17 -12 -3 -10 1 -13 16 -9 15 4 19 2 15 -8 -3
-8 -9 -12 -13 -9 -5 3 -11 2 -14 -3 -5 -9 -47 -9 -63 1 -7 4 -19 -3 -27 -15
-9 -12 -16 -17 -16 -11 0 7 10 22 22 33 21 19 23 19 29 4 4 -13 8 -14 13 -6 4
7 12 10 17 7 5 -4 9 1 9 9 0 10 -6 13 -17 10 -10 -4 -3 3 15 15 31 20 40 35
25 44 -5 2 -2 2 5 1 6 -2 12 1 12 7 0 6 9 5 23 -3 12 -7 25 -11 28 -10z
m-2144 6 c-3 -3 -12 -4 -19 -1 -8 3 -5 6 6 6 11 1 17 -2 13 -5z m660 -11 c0
-10 -4 -24 -10 -31 -17 -22 0 -25 22 -3 25 25 28 16 4 -11 -9 -10 -13 -21 -9
-25 4 -4 11 -1 16 7 8 13 12 12 24 -5 15 -20 15 -20 9 3 -4 18 -2 21 11 16 9
-4 15 -9 12 -12 -3 -2 -1 -13 5 -23 13 -24 -7 -26 -33 -3 -14 13 -21 14 -32 5
-11 -9 -15 -8 -20 4 -3 9 -11 13 -17 9 -8 -4 -9 -3 -5 4 4 7 2 12 -5 12 -8 0
-8 4 1 15 9 10 9 15 1 15 -6 0 -11 8 -11 17 0 15 2 14 16 -3 12 -15 14 -15 11
-2 -3 9 -3 19 0 22 9 9 10 8 10 -11z m-920 -20 c0 -16 -2 -22 -4 -15 -3 6 -9
9 -15 6 -5 -3 -4 3 4 15 7 12 13 21 14 21 1 0 1 -12 1 -27z m114 10 c13 -16
12 -17 -3 -4 -22 17 -23 3 -2 -29 l16 -25 -21 24 c-22 24 -28 51 -12 51 5 0
15 -8 22 -17z m320 7 c8 12 9 10 4 -8 -5 -17 -3 -22 7 -20 7 1 27 -7 45 -20
17 -12 34 -18 37 -13 4 5 0 12 -6 14 -8 3 -8 6 -2 6 15 1 54 -33 54 -48 0 -17
33 -51 43 -44 6 3 7 1 3 -5 -7 -12 5 -16 33 -13 7 2 10 -2 7 -8 -9 -14 32 -54
46 -45 6 4 8 3 4 -4 -3 -6 -2 -13 4 -17 5 -3 10 0 10 7 0 10 2 10 9 -1 6 -9
11 -10 15 -2 5 8 12 7 22 -3 20 -20 18 -26 -8 -20 -13 3 -29 6 -35 6 -7 1 -28
15 -47 32 -19 17 -41 36 -49 41 -8 6 -31 23 -51 39 l-36 28 -20 -23 c-10 -13
-19 -27 -20 -30 0 -3 28 -28 62 -55 99 -78 95 -75 79 -72 -8 2 -25 14 -38 28
-23 23 -24 24 -18 4 4 -15 0 -24 -11 -28 -14 -5 -15 -4 -4 9 8 10 9 15 2 15
-6 0 -9 6 -6 13 3 8 -2 20 -11 27 -8 7 -15 9 -15 4 0 -4 -9 2 -21 14 -11 12
-24 20 -30 17 -14 -9 -11 -25 4 -19 7 2 13 -4 14 -16 1 -11 -2 -20 -8 -20 -5
0 -9 4 -9 9 0 9 -30 24 -36 18 -2 -1 3 -16 11 -31 13 -25 13 -27 1 -16 -9 6
-20 9 -26 5 -6 -4 -19 -4 -28 0 -15 6 -15 8 3 16 18 9 18 9 -3 5 -15 -3 -45 8
-83 30 -52 31 -57 37 -45 50 8 8 21 14 28 14 8 0 9 -3 3 -8 -10 -6 -11 -19 -5
-39 1 -5 5 3 9 17 8 27 -5 54 -21 43 -6 -3 -9 0 -6 8 3 8 13 16 23 17 10 3 15
0 11 -7 -4 -6 0 -11 9 -11 12 0 14 -4 5 -19 -12 -24 1 -66 25 -75 27 -10 55
-7 55 7 0 8 4 7 10 -3 6 -10 10 -11 10 -2 0 6 7 12 15 12 8 0 15 7 15 16 0 9
-5 12 -12 8 -7 -5 -8 -3 -4 5 5 7 15 10 23 7 8 -3 11 -2 8 3 -7 12 -65 11 -65
-1 0 -5 5 -6 10 -3 6 3 10 1 10 -5 0 -7 -7 -10 -15 -6 -8 3 -15 1 -15 -5 0 -6
-7 -9 -15 -6 -8 4 -17 2 -20 -3 -4 -6 -10 -10 -16 -10 -13 0 -11 27 3 36 8 5
9 2 5 -10 -4 -10 -3 -15 3 -11 13 8 13 35 -1 35 -5 0 -7 5 -4 10 10 17 25 11
25 -10 0 -11 5 -20 11 -20 6 0 8 7 5 16 -4 10 -2 13 6 8 8 -5 9 -2 5 9 -7 20
4 22 20 6 9 -9 11 -6 7 12 -4 22 -4 23 5 3 10 -23 37 -38 52 -28 5 3 13 14 19
24 8 15 3 24 -29 49 l-39 31 -28 -25 c-15 -14 -29 -23 -32 -20 -3 3 3 12 14
21 13 11 15 17 7 20 -7 3 -13 15 -13 27 0 18 2 19 10 7 9 -13 11 -13 21 0z
m59 -11 c0 -5 -4 -9 -10 -9 -5 0 -10 7 -10 16 0 8 5 12 10 9 6 -3 10 -10 10
-16z m510 -20 c0 -7 -6 -4 -15 7 -19 25 -19 40 0 20 8 -8 15 -20 15 -27z
m1304 28 c-6 -16 -44 -40 -44 -28 0 6 10 17 22 25 27 19 29 19 22 3z m-2274
-22 c14 -19 14 -19 -2 -6 -10 7 -18 18 -18 24 0 6 1 8 3 6 1 -2 9 -13 17 -24z
m228 8 c-2 -9 -10 -18 -18 -20 -12 -4 -13 -3 -1 5 7 5 10 15 7 21 -4 6 -2 11
4 11 6 0 10 -8 8 -17z m574 -27 c-8 -19 -8 -26 1 -30 7 -2 4 -5 -7 -5 -16 -1
-17 -3 -5 -18 12 -16 12 -17 -2 -6 -13 11 -19 9 -35 -8 -19 -21 -19 -22 2 -15
19 6 30 -6 50 -54 2 -5 -40 -5 -56 0 -3 1 6 6 20 12 24 10 24 10 5 18 -11 4
-26 5 -32 3 -7 -3 -13 -1 -13 5 0 9 -21 8 -58 -4 -7 -2 -10 -9 -6 -15 4 -8 9
-7 15 2 7 12 9 12 9 0 0 -10 3 -11 14 -2 11 9 15 8 20 -4 3 -9 2 -13 -4 -10
-6 3 -13 -1 -16 -9 -4 -12 -11 -13 -24 -6 -9 5 -20 7 -22 4 -3 -2 -4 7 -2 21
1 15 -5 34 -14 44 -26 27 -26 43 0 39 13 -2 33 6 47 20 28 26 62 32 41 7 -7
-8 -16 -13 -20 -10 -10 6 -62 -50 -53 -58 13 -14 61 -6 87 14 34 27 58 73 49
96 -5 15 -3 16 7 6 10 -10 11 -18 2 -37z m236 28 c13 -2 27 -6 30 -9 3 -3 -13
-3 -36 0 l-43 5 7 -35 c6 -33 -8 -51 -18 -22 -8 21 12 78 24 70 7 -3 23 -8 36
-9z m222 12 c0 -9 -30 -14 -35 -6 -4 6 3 10 14 10 12 0 21 -2 21 -4z m47 -11
c0 -8 -4 -12 -9 -9 -4 3 -8 9 -8 15 0 5 4 9 8 9 5 0 9 -7 9 -15z m33 11 c0 -3
-4 -8 -10 -11 -5 -3 -10 -1 -10 4 0 6 5 11 10 11 6 0 10 -2 10 -4z m-1400 -39
c12 -4 11 -6 -2 -6 -22 -1 -24 -21 -3 -21 8 0 15 -4 15 -10 0 -13 -17 -13 -25
1 -5 7 -14 4 -28 -8 -21 -18 -21 -18 -4 7 9 13 17 34 17 45 0 12 3 16 8 9 4
-6 14 -14 22 -17z m631 8 c5 4 6 -1 3 -9 -9 -23 -20 -19 -21 7 0 12 1 16 4 9
3 -6 9 -10 14 -7z m653 -27 c32 -26 15 -21 -23 6 -20 15 -27 26 -19 28 7 3 15
0 17 -6 2 -6 13 -19 25 -28z m60 26 c5 -13 4 -14 -7 -6 -8 7 -18 8 -22 4 -5
-4 -5 -1 -1 6 10 17 23 15 30 -4z m-1151 -15 c11 9 17 8 27 -4 7 -8 19 -15 27
-15 13 0 13 -3 3 -15 -15 -18 -40 -3 -40 24 -1 14 -2 14 -14 -2 -10 -13 -15
-14 -23 -5 -17 22 -25 44 -9 24 12 -15 18 -16 29 -7z m962 11 c-3 -5 -11 -10
-16 -10 -6 0 -7 5 -4 10 3 6 11 10 16 10 6 0 7 -4 4 -10z m459 -14 c-3 -9 -10
-13 -15 -10 -5 3 -3 11 4 19 15 16 19 13 11 -9z m-721 -1 c4 -8 1 -17 -5 -21
-7 -4 -8 -3 -4 4 4 7 2 12 -4 12 -6 0 -8 5 -5 10 8 14 12 13 18 -5z m1324 -11
c2 -13 1 -15 -4 -4 -3 8 -11 19 -17 23 -7 6 -6 7 4 4 8 -2 16 -12 17 -23z
m-2177 5 c0 -5 5 -7 10 -4 6 3 10 2 10 -3 0 -6 -8 -13 -17 -16 -10 -4 -14 -4
-10 0 4 4 2 13 -4 21 -9 9 -8 13 0 13 6 0 11 -5 11 -11z m54 -14 c16 -25 16
-25 -2 -14 -10 6 -19 18 -19 25 0 19 2 18 21 -11z m401 4 c-8 -12 -35 -12 -35
1 0 5 7 6 17 3 12 -5 14 -3 8 7 -5 9 -4 11 4 6 6 -4 9 -12 6 -17z m166 4 c13
-16 12 -17 -3 -4 -10 7 -18 15 -18 17 0 8 8 3 21 -13z m1129 3 c0 -8 -4 -18
-10 -21 -5 -3 -10 3 -10 14 0 12 5 21 10 21 6 0 10 -6 10 -14z m38 -21 c-9 -9
-30 14 -23 25 6 9 10 8 17 -4 6 -10 8 -19 6 -21z m-714 14 c22 -10 23 -13 10
-26 -8 -8 -11 -20 -7 -26 3 -7 3 -9 -2 -5 -13 12 -37 -30 -30 -52 4 -11 2 -20
-4 -20 -6 0 -11 5 -11 11 0 5 -4 7 -10 4 -18 -11 -11 14 10 35 12 12 15 20 8
21 -7 0 -3 4 9 9 22 9 23 40 2 40 -5 0 -9 5 -9 10 0 13 3 13 34 -1z m90 -1
c-3 -4 -14 -8 -25 -8 -11 0 -18 4 -14 9 3 6 14 9 25 8 10 -1 16 -5 14 -9z m31
-9 c-10 -15 -25 -10 -19 6 4 8 10 12 15 9 5 -3 7 -10 4 -15z m255 13 c0 -4
-10 -9 -22 -9 -18 -2 -20 0 -8 7 18 12 30 13 30 2z m68 -48 c27 -2 32 -4 32
-15 0 -8 -4 -8 -15 1 -8 6 -19 9 -25 5 -5 -3 -15 5 -22 19 -6 14 -15 26 -20
26 -5 0 -6 5 -2 11 4 8 13 1 23 -17 9 -16 22 -29 29 -30z m13 47 c6 10 9 7 9
-10 0 -20 -2 -21 -15 -11 -8 7 -15 18 -14 24 0 6 3 5 6 -3 5 -11 7 -11 14 0z
m-1744 -33 c-3 -7 -5 -2 -5 12 0 14 2 19 5 13 2 -7 2 -19 0 -25z m321 8 c-12
-9 -14 -17 -6 -31 9 -20 9 -20 -6 -1 -14 18 -14 21 1 38 9 10 19 15 22 12 3
-3 -1 -11 -11 -18z m1532 20 c0 -3 -4 -8 -10 -11 -5 -3 -10 -1 -10 4 0 6 5 11
10 11 6 0 10 -2 10 -4z m-1225 -16 c3 -5 -1 -10 -10 -10 -9 0 -13 5 -10 10 3
6 8 10 10 10 2 0 7 -4 10 -10z m480 -1 c11 -16 1 -19 -13 -3 -7 8 -8 14 -3 14
5 0 13 -5 16 -11z m825 7 c0 -2 -8 -10 -17 -17 -16 -13 -17 -12 -4 4 13 16 21
21 21 13z m-1583 -21 c0 -8 -4 -12 -9 -9 -5 3 -6 10 -3 15 9 13 12 11 12 -6z
m1028 6 c3 -5 1 -12 -5 -16 -5 -3 -10 1 -10 9 0 18 6 21 15 7z m655 -16 c14
-19 14 -19 -2 -6 -10 7 -18 18 -18 24 0 6 1 8 3 6 1 -2 9 -13 17 -24z m-1890
5 c0 -5 -5 -10 -11 -10 -5 0 -7 5 -4 10 3 6 8 10 11 10 2 0 4 -4 4 -10z m42
-2 c-7 -7 -12 -21 -13 -32 -1 -18 -2 -17 -8 4 -4 15 -3 28 3 32 18 12 31 9 18
-4z m1038 -18 c-7 -4 -9 -13 -6 -19 4 -6 2 -11 -4 -11 -7 0 -9 -7 -6 -16 5
-13 4 -14 -7 -6 -8 7 -18 8 -23 4 -5 -4 -1 2 9 14 19 23 23 39 7 29 -5 -3 -10
-1 -10 4 0 6 9 11 20 11 11 0 20 6 21 13 0 8 2 8 6 -2 3 -7 0 -17 -7 -21z
m279 -2 c-2 -31 -2 -31 -6 -5 -3 16 -9 25 -15 21 -7 -4 -8 -2 -4 4 14 22 26
12 25 -20z m97 21 c3 -6 0 -15 -7 -20 -19 -12 -42 -11 -34 1 4 6 11 7 17 4 7
-5 9 -1 5 9 -7 19 8 23 19 6z m871 -8 c16 -25 -5 -46 -25 -25 -9 10 -9 14 -1
14 6 0 9 7 5 15 -8 21 7 19 21 -4z m33 15 c0 -2 -7 -6 -15 -10 -8 -3 -15 -1
-15 4 0 6 7 10 15 10 8 0 15 -2 15 -4z m-2060 -32 c0 -2 -9 0 -20 6 -11 6 -20
13 -20 16 0 2 9 0 20 -6 11 -6 20 -13 20 -16z m887 6 c-6 -23 9 -38 16 -15 4
11 4 10 3 -2 -1 -11 -9 -17 -19 -15 -12 2 -17 -4 -17 -23 0 -14 -5 -25 -12
-25 -9 0 -9 -3 0 -12 8 -8 16 -7 29 8 10 11 15 15 11 10 -12 -16 -9 -26 8 -26
9 0 12 5 8 12 -5 8 -2 9 10 5 10 -4 21 -7 24 -7 4 0 1 -4 -7 -9 -12 -8 -12
-12 -2 -25 8 -9 9 -16 3 -16 -6 0 -13 6 -15 13 -4 9 -8 8 -17 -3 -10 -13 -11
-12 -6 4 5 16 1 18 -32 14 -36 -3 -38 -2 -34 23 2 15 -1 30 -7 33 -21 13 -12
34 14 31 23 -2 31 9 26 38 0 4 4 7 10 7 6 0 9 -9 6 -20z m223 16 c0 -2 -7 -7
-16 -10 -8 -3 -12 -2 -9 4 6 10 25 14 25 6z m290 -21 c0 -9 -8 -11 -22 -7 -12
3 -17 7 -10 10 7 2 10 8 7 13 -4 5 1 6 9 3 9 -3 16 -12 16 -19z m-980 5 c0 -5
-5 -10 -11 -10 -5 0 -7 5 -4 10 3 6 8 10 11 10 2 0 4 -4 4 -10z m190 6 c0 -3
-4 -8 -10 -11 -5 -3 -10 -1 -10 4 0 6 5 11 10 11 6 0 10 -2 10 -4z m1566 -30
c1 -35 -6 -38 -31 -14 -14 14 -16 19 -5 16 10 -2 14 3 12 16 -2 11 1 17 10 14
7 -3 13 -17 14 -32z m-2477 8 c6 4 11 2 11 -3 0 -6 -6 -11 -12 -11 -7 0 -5 -5
5 -11 9 -5 21 -8 26 -4 5 3 13 0 17 -6 4 -8 3 -9 -4 -5 -7 4 -12 2 -12 -4 0
-6 -11 -3 -26 7 -25 16 -27 16 -40 -3 -7 -10 -18 -24 -23 -30 -16 -19 19 -45
42 -32 14 7 28 3 60 -19 35 -23 42 -34 43 -60 0 -18 -5 -33 -11 -33 -7 0 -10
12 -7 29 6 45 -30 73 -89 68 -38 -3 -46 -1 -41 12 3 9 1 12 -6 7 -7 -4 -9 1
-7 15 3 13 10 26 17 31 7 4 9 8 3 8 -5 0 0 7 12 15 14 10 20 22 17 33 -5 13
-4 14 4 3 5 -7 15 -10 21 -7z m1012 -7 c-10 -9 -11 -8 -5 6 3 10 9 15 12 12 3
-3 0 -11 -7 -18z m309 2 c0 -6 -4 -7 -10 -4 -5 3 -10 11 -10 16 0 6 5 7 10 4
6 -3 10 -11 10 -16z m-1372 -14 c-3 -3 -9 2 -12 12 -6 14 -5 15 5 6 7 -7 10
-15 7 -18z m174 3 c-7 -7 -12 -8 -12 -2 0 14 12 26 19 19 2 -3 -1 -11 -7 -17z
m124 15 c-11 -11 -48 -14 -41 -3 3 5 16 10 27 10 12 0 18 -3 14 -7z m699 -29
c23 9 18 -2 -27 -55 -43 -49 -58 -59 -58 -38 0 5 5 7 10 4 6 -3 10 1 10 10 0
8 6 18 14 21 8 3 12 13 9 22 -4 15 -3 15 6 2 6 -8 11 -13 12 -10 0 3 2 13 4
22 2 9 -3 19 -11 22 -8 3 -11 12 -7 22 5 15 8 14 15 -5 5 -15 14 -21 23 -17z
m35 32 c0 -3 -4 -8 -10 -11 -5 -3 -10 -1 -10 4 0 6 5 11 10 11 6 0 10 -2 10
-4z m266 -12 c-5 -13 -4 -14 7 -6 8 7 17 9 20 5 13 -13 7 -23 -15 -23 -22 -1
-23 -1 -4 -15 19 -15 19 -15 -2 -15 -18 0 -22 6 -22 35 0 19 5 35 11 35 6 0 8
-7 5 -16z m1110 -4 c0 -20 -7 -25 -19 -13 -4 3 -2 12 4 20 15 17 15 17 15 -7z
m-693 -2 c-4 -7 -8 -16 -8 -20 0 -16 -12 -15 -23 2 -10 16 -9 18 3 14 8 -4 15
-1 15 5 0 6 5 11 11 11 6 0 7 -5 2 -12z m-1493 -8 c0 -5 -10 -18 -22 -30 -12
-11 -16 -20 -10 -20 8 0 11 -10 9 -25 -5 -36 -15 -41 -26 -11 -7 16 -18 26
-31 26 -12 0 -18 5 -15 10 3 6 17 10 30 10 14 0 32 10 42 25 20 27 23 29 23
15z m1147 -18 c19 -26 19 -28 2 -28 -9 0 -15 4 -13 8 3 4 1 8 -3 8 -5 0 -9 9
-9 20 0 11 1 20 1 20 1 0 11 -13 22 -28z m449 9 c1 -6 0 -7 -2 -2 -3 6 -12 7
-20 4 -8 -3 -14 -1 -14 5 0 14 33 8 36 -7z m519 9 c3 -6 -1 -7 -9 -4 -18 7
-21 14 -7 14 6 0 13 -4 16 -10z m-2069 -7 c16 -6 16 -7 -2 -14 -17 -7 -17 -8
4 -8 12 -1 22 -6 22 -12 0 -7 -9 -9 -21 -6 -15 4 -19 2 -15 -9 8 -20 -11 -64
-28 -64 -7 0 -17 -7 -20 -16 -4 -9 -9 -14 -13 -10 -4 4 8 20 26 37 22 20 30
34 24 42 -5 7 -9 19 -8 27 5 46 3 44 31 33z m1153 -23 c-8 -6 -8 -9 0 -14 6
-4 16 -4 22 0 7 4 7 -1 -1 -16 -6 -12 -14 -19 -17 -16 -4 3 -12 1 -20 -6 -11
-9 -12 -7 -5 13 5 13 8 35 5 48 -3 20 -1 22 12 11 12 -10 13 -15 4 -20z m223
8 c18 18 28 14 27 -10 0 -19 -2 -20 -7 -6 -6 16 -9 15 -32 -3 -14 -11 -20 -19
-15 -18 21 3 35 -1 35 -12 0 -5 -4 -8 -9 -5 -13 8 -21 -20 -10 -31 6 -6 4 -15
-7 -24 -12 -9 -15 -10 -10 -1 8 13 -23 17 -39 5 -6 -5 -7 -4 -2 2 4 5 7 16 7
24 0 11 -4 10 -15 -5 -14 -18 -14 -18 -8 4 6 24 18 29 29 11 4 -8 10 -7 18 1
7 8 7 14 1 16 -25 10 -39 24 -32 31 5 4 12 1 17 -7 7 -11 10 -8 10 15 0 22 -3
26 -12 17 -7 -7 -16 -12 -22 -12 -5 0 -1 6 10 14 17 13 21 12 37 -2 13 -12 20
-13 29 -4z m408 -3 c4 3 13 -2 20 -10 9 -10 9 -15 1 -15 -6 0 -11 6 -11 13 0
8 -4 7 -10 -3 -7 -11 -10 -11 -10 -2 0 7 -4 10 -10 7 -12 -7 -14 18 -2 29 4 4
8 1 10 -8 2 -9 7 -14 12 -11z m-2137 -42 c-5 -12 -3 -14 7 -8 9 5 11 4 6 -4
-13 -20 -26 -1 -25 37 0 32 1 34 9 14 5 -12 6 -30 3 -39z m1857 53 c0 -11 -19
-15 -25 -6 -3 5 1 10 9 10 9 0 16 -2 16 -4z m-1810 -16 c0 -5 -2 -10 -4 -10
-3 0 -8 5 -11 10 -3 6 -1 10 4 10 6 0 11 -4 11 -10z m2050 4 c0 -8 -19 -13
-24 -6 -3 5 1 9 9 9 8 0 15 -2 15 -3z m282 -29 c-6 -35 -19 -31 -14 5 2 16 8
28 12 25 4 -2 5 -16 2 -30z m45 14 c-13 -21 -37 -33 -37 -20 0 5 7 12 16 15 8
3 13 10 10 14 -3 5 1 9 8 9 11 0 12 -4 3 -18z m-1224 -19 c-3 -11 -9 -20 -13
-20 -5 0 -11 -8 -13 -17 -2 -10 -3 -7 0 7 2 14 5 32 7 40 3 8 5 16 5 18 1 2 5
1 10 -2 5 -3 7 -15 4 -26z m431 22 c2 -4 -4 -9 -15 -9 -11 -1 -17 2 -14 8 7
11 22 12 29 1z m241 -2 c3 -5 1 -10 -4 -10 -6 0 -11 5 -11 10 0 6 2 10 4 10 3
0 8 -4 11 -10z m625 -25 c-7 -8 -8 -15 -3 -15 6 0 15 10 22 23 11 22 11 22 5
-3 -8 -34 -16 -41 -34 -30 -12 7 -12 13 -1 37 8 17 15 23 18 15 3 -7 -1 -19
-7 -27z m116 8 c-7 -7 -26 7 -26 19 0 6 6 6 15 -2 9 -7 13 -15 11 -17z m-1189
-5 c-3 -8 -6 -5 -6 6 -1 11 2 17 5 13 3 -3 4 -12 1 -19z m523 18 c0 -3 -4 -8
-10 -11 -5 -3 -10 -1 -10 4 0 6 5 11 10 11 6 0 10 -2 10 -4z m-1825 -16 c3 -5
2 -10 -4 -10 -5 0 -13 5 -16 10 -3 6 -2 10 4 10 5 0 13 -4 16 -10z m1037 -12
c-9 -9 -15 -9 -24 1 -9 10 -9 12 -1 7 6 -3 15 -1 18 5 4 5 10 8 13 4 3 -3 0
-11 -6 -17z m428 -3 c0 -14 -4 -25 -10 -25 -5 0 -10 6 -10 14 0 8 -3 16 -7 19
-5 2 -2 2 5 1 6 -2 12 1 12 6 0 6 2 10 5 10 3 0 5 -11 5 -25z m550 3 c0 -6 -6
-8 -14 -5 -9 4 -12 0 -9 -12 3 -11 -2 -21 -11 -24 -10 -4 -13 -1 -9 9 3 7 1
14 -5 14 -6 0 -8 8 -5 18 3 14 11 18 29 14 13 -2 24 -9 24 -14z m420 18 c0 -3
-4 -8 -10 -11 -5 -3 -10 -1 -10 4 0 6 5 11 10 11 6 0 10 -2 10 -4z m-1825 -16
c3 -5 1 -10 -4 -10 -6 0 -11 5 -11 10 0 6 2 10 4 10 3 0 8 -4 11 -10z m509 -6
c5 -14 4 -15 -9 -4 -17 14 -19 20 -6 20 5 0 12 -7 15 -16z m1362 1 c10 -8 15
-14 9 -14 -5 0 -19 6 -29 14 -11 8 -15 15 -10 15 6 0 19 -7 30 -15z m-2286 -5
c0 -5 -5 -10 -11 -10 -5 0 -7 5 -4 10 3 6 8 10 11 10 2 0 4 -4 4 -10z m401 -6
c15 -13 16 -21 8 -37 -8 -14 -13 -16 -19 -7 -11 18 -30 3 -23 -18 4 -13 3 -14
-6 -6 -9 8 -8 17 3 39 8 16 13 32 10 37 -9 14 9 9 27 -8z m1714 6 c4 -6 -1 -7
-12 -3 -16 6 -16 5 -5 -9 10 -12 11 -22 3 -37 -8 -14 -8 -21 2 -25 6 -3 2 -3
-10 -1 -14 4 -26 -1 -36 -15 -7 -11 -17 -17 -20 -13 -4 3 -7 -2 -7 -13 0 -16
-2 -17 -10 -4 -12 19 -13 33 -2 26 13 -8 52 22 48 37 -1 6 -1 9 1 5 3 -5 9 -8
14 -8 6 0 7 5 4 10 -3 6 -1 10 4 10 6 0 11 5 11 11 0 5 -4 7 -10 4 -5 -3 -10
0 -10 8 0 25 23 36 35 17z m-1941 -16 c5 -13 9 -14 21 -4 10 8 15 9 15 2 0
-22 -23 -24 -43 -3 -12 11 -16 21 -10 21 6 0 14 -7 17 -16z m432 -45 c-2 -33
-8 -64 -11 -67 -4 -4 -5 10 -2 30 3 21 1 35 -4 32 -5 -3 -9 -11 -9 -19 0 -10
-10 -13 -30 -12 -17 1 -30 8 -30 15 0 7 -5 10 -11 6 -8 -4 -8 0 0 15 13 24 23
29 15 7 -3 -8 4 -19 16 -26 18 -10 24 -8 36 7 8 10 17 30 20 46 11 46 15 30
10 -34z m171 7 c-12 -18 -23 -33 -24 -32 -6 5 11 55 17 51 5 -3 11 -1 15 5 6
9 -8 14 -28 11 -5 -1 -6 3 -2 9 4 7 12 7 25 0 18 -10 18 -11 -3 -44z m362 20
c-3 -3 -11 5 -18 17 -13 21 -12 21 5 5 10 -10 16 -20 13 -22z m91 30 c0 -3 -4
-8 -10 -11 -5 -3 -10 -1 -10 4 0 6 5 11 10 11 6 0 10 -2 10 -4z m440 -27 c11
-19 13 -19 29 -5 21 19 31 20 31 4 0 -6 -3 -8 -6 -5 -4 4 -15 -2 -24 -13 -16
-19 -17 -19 -39 10 -12 17 -17 30 -12 30 6 0 15 -9 21 -21z m550 11 c0 -5 -5
-10 -11 -10 -5 0 -7 5 -4 10 3 6 8 10 11 10 2 0 4 -4 4 -10z m-2493 -14 c-5
-15 -24 -18 -24 -3 0 8 6 14 14 14 7 0 12 -5 10 -11z m359 -22 c1 -9 -1 -13
-4 -9 -4 4 -7 10 -7 13 0 4 -4 14 -9 22 -7 12 -6 13 4 3 8 -7 15 -20 16 -29z
m234 26 c0 -5 -8 -10 -17 -10 -15 0 -16 2 -3 10 19 12 20 12 20 0z m874 1 c3
-5 -5 -11 -19 -13 -28 -6 -35 8 -7 15 9 3 18 5 19 6 1 0 4 -3 7 -8z m852 -3
c4 -7 4 -10 -1 -6 -4 4 -15 2 -24 -5 -14 -11 -14 -10 -2 6 16 20 18 21 27 5z
m-2292 -36 c-18 -28 -20 -28 -36 -12 -15 14 -15 17 -3 17 8 0 15 -4 15 -9 0
-5 4 -7 10 -3 5 3 6 13 3 22 -4 11 -3 14 5 9 7 -4 12 -2 12 5 0 7 3 10 6 6 4
-3 -2 -19 -12 -35z m293 8 c-1 -11 -4 -20 -8 -20 -4 0 -6 11 -5 24 0 13 4 22
8 20 4 -2 6 -13 5 -24z m417 19 c-4 -8 1 -9 17 -5 13 3 18 3 11 0 -6 -3 -10
-10 -6 -15 3 -5 2 -9 -3 -8 -16 4 -48 -14 -72 -40 l-24 -26 17 27 c21 35 20
44 -1 27 -13 -10 -13 -8 2 10 11 13 29 27 40 32 27 11 27 11 19 -2z m646 -5
c0 -8 -5 -12 -10 -9 -6 4 -8 11 -5 16 9 14 15 11 15 -7z m135 6 c3 -6 -1 -7
-9 -4 -18 7 -21 14 -7 14 6 0 13 -4 16 -10z m45 -10 c11 -11 16 -20 12 -20 -5
0 -16 -15 -25 -32 -10 -21 -15 -26 -14 -13 2 11 6 26 10 32 4 7 3 22 -3 33
-14 26 -6 26 20 0z m-385 1 c19 -8 19 -8 -2 -20 -20 -10 -22 -9 -16 6 5 13 3
15 -11 10 -10 -4 -15 -3 -11 3 7 11 12 12 40 1z m107 -23 c-7 -7 -10 -5 -7 8
5 29 6 30 12 16 3 -8 1 -18 -5 -24z m961 15 c-7 -3 -13 -13 -13 -24 0 -21 -15
-25 -26 -7 -4 7 -3 8 4 4 7 -4 12 -2 12 3 0 6 -6 11 -12 11 -7 1 -2 7 12 15
14 7 27 11 30 8 3 -3 -1 -8 -7 -10z m200 -3 c3 -11 0 -23 -5 -27 -7 -3 -8 -1
-4 5 4 7 1 12 -7 12 -7 0 -14 7 -14 15 0 22 24 18 30 -5z m-2182 -17 c-12 -20
-14 -14 -5 12 4 9 9 14 11 11 3 -2 0 -13 -6 -23z m123 -8 c-26 -19 -31 -9 -8
16 11 12 20 16 22 9 2 -6 -4 -17 -14 -25z m710 20 c-7 -16 -24 -21 -24 -6 0 8
7 13 27 20 1 1 0 -6 -3 -14z m141 5 c3 -5 2 -10 -4 -10 -5 0 -13 5 -16 10 -3
6 -2 10 4 10 5 0 13 -4 16 -10z m255 0 c0 -5 -3 -10 -7 -10 -5 0 -18 -3 -30
-6 -15 -4 -23 -2 -23 6 0 7 7 10 15 7 8 -4 17 -2 20 3 8 13 25 13 25 0z m1010
0 c-13 -9 -13 -10 0 -11 8 -1 22 0 30 1 11 1 12 -1 4 -10 -9 -9 -17 -9 -33 0
-12 6 -26 8 -31 5 -6 -3 -7 1 -4 9 3 9 16 16 28 16 17 0 18 -2 6 -10z m-2410
-10 c-21 -6 -22 -8 -8 -15 9 -4 22 -4 28 0 5 3 10 1 10 -4 0 -16 -35 -14 -49
2 -13 17 -4 27 23 26 18 -1 18 -2 -4 -9z m124 -5 c-4 -8 -11 -12 -16 -9 -6 4
-5 10 3 15 19 12 19 11 13 -6z m1121 5 c3 -5 1 -10 -4 -10 -6 0 -11 5 -11 10
0 6 2 10 4 10 3 0 8 -4 11 -10z m186 -13 c-10 -9 -11 -8 -5 6 3 10 9 15 12 12
3 -3 0 -11 -7 -18z m326 -9 c-3 -7 -5 -2 -5 12 0 14 2 19 5 13 2 -7 2 -19 0
-25z m159 19 c14 5 20 -12 6 -21 -10 -6 -43 20 -35 28 4 4 9 3 11 -3 2 -5 10
-7 18 -4z m563 -104 c-1 -65 -5 -104 -8 -88 -5 24 -8 26 -13 13 -4 -10 -14
-18 -23 -18 -8 0 -15 -6 -16 -12 0 -10 -2 -10 -6 0 -2 6 -14 12 -24 12 -11 0
-18 4 -14 10 3 5 12 7 19 4 8 -3 17 -1 21 5 3 7 -2 11 -14 11 -12 0 -21 5 -21
12 0 12 -8 8 -9 -5 0 -4 -7 -15 -16 -23 -18 -19 -11 -36 12 -27 21 8 8 -13
-16 -26 -15 -9 -17 -5 -14 26 1 20 -3 44 -10 52 -11 14 -10 14 6 2 9 -7 17 -9
17 -3 0 15 -26 22 -39 9 -13 -13 -15 2 -2 22 6 9 16 11 32 5 13 -4 30 -7 38
-5 7 1 10 -2 7 -8 -4 -5 -2 -12 3 -16 6 -3 15 3 20 14 14 25 -15 54 -29 31 -7
-12 -10 -11 -16 3 -3 9 -11 14 -18 10 -22 -15 -59 -15 -53 -1 2 8 -1 22 -9 33
-8 10 -14 24 -14 29 1 6 8 -2 16 -17 8 -15 19 -25 24 -22 6 4 10 1 10 -4 0 -6
7 -11 15 -11 8 0 15 5 15 12 0 9 3 9 12 0 19 -19 33 -14 36 14 1 14 -2 23 -7
19 -5 -3 -13 0 -17 6 -4 8 -3 9 4 5 7 -4 12 -1 13 6 0 10 2 10 6 0 2 -6 9 -10
13 -7 5 3 8 -7 7 -22 -2 -21 2 -28 15 -27 10 1 15 -3 12 -8 -3 -5 -12 -7 -20
-4 -8 3 -14 1 -14 -3 0 -15 27 -20 39 -8 9 9 11 8 6 -5 -4 -10 -13 -18 -20
-18 -8 0 -11 -8 -8 -20 6 -22 18 -26 28 -9 4 5 8 45 10 87 3 84 3 82 10 82 3
0 5 -53 4 -117z m-1429 86 c0 -6 -4 -7 -10 -4 -5 3 -10 11 -10 16 0 6 5 7 10
4 6 -3 10 -11 10 -16z m-1170 1 c0 -5 -4 -10 -9 -10 -6 0 -13 5 -16 10 -3 6 1
10 9 10 9 0 16 -4 16 -10z m550 -20 c0 -6 -9 -2 -20 7 -11 10 -20 19 -20 21 0
1 9 -2 20 -8 11 -6 20 -15 20 -20z m594 15 c3 -8 1 -15 -4 -15 -6 0 -10 7 -10
15 0 8 2 15 4 15 2 0 6 -7 10 -15z m960 0 c-4 -8 -11 -12 -17 -8 -6 4 -8 0 -4
-10 9 -24 0 -21 -14 4 -6 12 -7 19 -2 16 5 -3 15 -2 23 4 20 12 20 11 14 -6z
m91 5 c-3 -5 -12 -10 -18 -10 -7 0 -6 4 3 10 19 12 23 12 15 0z m255 0 c0 -5
-4 -10 -9 -10 -6 0 -13 5 -16 10 -3 6 1 10 9 10 9 0 16 -4 16 -10z m-1085 -10
c4 -6 16 -8 28 -5 21 6 21 5 4 -9 -12 -9 -14 -16 -8 -21 6 -3 11 -14 10 -23 0
-14 -2 -14 -6 -2 -3 8 -17 27 -31 43 -14 15 -21 27 -14 27 6 0 14 -5 17 -10z
m128 -48 c7 -9 7 -16 0 -20 -5 -4 -12 -14 -15 -22 -3 -8 -5 5 -5 29 1 29 -3
46 -12 49 -11 4 -11 6 0 13 10 6 15 2 17 -14 2 -12 9 -28 15 -35z m517 48 c0
-5 -4 -10 -10 -10 -5 0 -10 5 -10 10 0 6 5 10 10 10 6 0 10 -4 10 -10z m269
-21 c-10 -6 -11 -9 -1 -9 6 0 12 -5 12 -10 0 -6 -8 -5 -20 2 -11 7 -20 16 -20
21 0 4 5 5 10 2 6 -3 13 2 17 11 5 13 8 14 11 5 2 -7 -2 -17 -9 -22z m-1525
12 c3 -5 -2 -15 -12 -22 -15 -12 -16 -12 -5 2 7 9 10 19 6 22 -3 4 -4 7 0 7 3
0 8 -4 11 -9z m27 -14 c-13 -15 -19 -30 -15 -40 3 -10 2 -17 -4 -17 -15 0 -9
37 10 60 10 11 21 20 25 20 3 0 -3 -11 -16 -23z m762 3 c-3 -11 -7 -20 -9 -20
-2 0 -4 9 -4 20 0 11 4 20 9 20 5 0 7 -9 4 -20z m397 -1 c0 -6 -4 -7 -10 -4
-5 3 -10 11 -10 16 0 6 5 7 10 4 6 -3 10 -11 10 -16z m535 0 c-10 -15 -25 -10
-19 6 4 8 10 12 15 9 5 -3 7 -10 4 -15z m-2035 7 c0 -3 -4 -8 -10 -11 -5 -3
-10 -1 -10 4 0 6 5 11 10 11 6 0 10 -2 10 -4z m680 -27 c-14 -26 -18 -24 -12
6 2 14 8 22 13 19 5 -3 5 -14 -1 -25z m220 21 c0 -5 -4 -10 -10 -10 -5 0 -10
5 -10 10 0 6 5 10 10 10 6 0 10 -4 10 -10z m267 -27 c-8 -9 -30 -17 -49 -19
-23 -3 -29 -1 -18 5 8 6 18 8 22 5 13 -8 48 16 49 34 0 12 2 13 6 4 3 -8 -2
-21 -10 -29z m522 18 c-13 -11 -26 -17 -28 -15 -5 5 30 33 43 34 4 0 -2 -9
-15 -19z m-2039 -11 c33 -17 40 -25 39 -48 l-2 -27 -4 27 c-4 28 -40 47 -62
33 -7 -3 -8 0 -5 9 10 27 -32 19 -55 -10 -12 -15 -21 -23 -21 -18 0 13 43 54
57 54 8 0 32 -9 53 -20z m95 10 c3 -5 2 -10 -4 -10 -5 0 -13 5 -16 10 -3 6 -2
10 4 10 5 0 13 -4 16 -10z m271 -16 c-13 -9 -14 -13 -4 -17 9 -4 9 -6 1 -6
-19 -1 -26 19 -9 25 9 3 13 11 9 17 -4 6 -1 7 7 2 10 -6 9 -11 -4 -21z m444
-21 c0 -12 -3 -14 -8 -6 -4 7 -13 9 -20 4 -10 -6 -10 -11 3 -21 16 -14 21 -45
5 -35 -6 4 -8 10 -5 14 2 5 -4 16 -15 26 -11 10 -17 22 -14 26 3 5 -2 9 -11 9
-9 0 -13 5 -10 11 5 7 13 5 24 -5 24 -22 34 -20 25 6 -6 20 -5 21 10 6 9 -9
16 -25 16 -35z m1100 -5 c0 -24 -2 -27 -14 -16 -10 9 -11 15 -2 20 8 5 7 14
-3 30 -13 21 -13 22 2 9 10 -7 17 -27 17 -43z m180 31 c0 -5 -4 -9 -10 -9 -5
0 -10 7 -10 16 0 8 5 12 10 9 6 -3 10 -10 10 -16z m-1635 -21 c15 -31 15 -31
0 -13 -9 11 -20 19 -25 18 -5 -2 -7 4 -4 12 8 21 11 19 29 -17z m650 14 c-3
-3 -11 0 -18 7 -9 10 -8 11 6 5 10 -3 15 -9 12 -12z m60 -5 c29 11 60 -5 60
-31 0 -13 -3 -22 -7 -19 -5 2 -8 10 -8 18 0 20 -21 30 -31 14 -7 -12 -9 -12
-9 0 0 10 -8 7 -25 -9 -27 -25 -35 -22 -9 4 14 15 14 16 0 16 -9 0 -16 7 -16
16 0 14 2 14 15 0 9 -8 22 -13 30 -9z m1118 2 c4 -16 3 -18 -9 -8 -7 6 -11 15
-8 20 8 13 11 11 17 -12z m-1993 7 c0 -2 -8 -10 -17 -17 -16 -13 -17 -12 -4 4
13 16 21 21 21 13z m1467 -45 c-6 -9 -13 -18 -15 -21 -3 -3 -1 5 2 17 5 16 2
23 -14 28 -11 3 -20 11 -20 16 0 6 13 2 30 -7 24 -15 27 -21 17 -33z m394 29
c6 0 7 5 3 12 -4 7 -3 8 4 4 7 -4 11 -19 11 -34 -1 -17 -3 -21 -6 -9 -2 9 -9
17 -15 17 -5 0 -7 -7 -4 -16 3 -8 2 -13 -3 -10 -5 3 -8 18 -8 33 0 16 2 22 4
16 3 -7 9 -13 14 -13z m-1971 -5 c11 -13 10 -14 -4 -9 -9 3 -16 10 -16 15 0
13 6 11 20 -6z m545 -6 c-8 -12 -35 -11 -35 2 0 5 5 7 10 4 6 -3 10 -1 10 5 0
6 5 8 10 5 6 -4 8 -11 5 -16z m1275 9 c0 -4 -4 -8 -9 -8 -6 0 -12 4 -15 8 -3
5 1 9 9 9 8 0 15 -4 15 -9z m-720 -14 c0 -10 5 -14 16 -10 8 3 12 2 9 -4 -10
-16 -29 -12 -43 10 -10 17 -10 20 3 20 8 0 15 -7 15 -16z m678 -2 c-9 -2 -19
-11 -21 -20 -3 -10 -5 -6 -6 10 -1 22 2 25 22 20 17 -5 18 -7 5 -10z m82 14
c0 -11 -19 -15 -25 -6 -3 5 1 10 9 10 9 0 16 -2 16 -4z m-1910 -26 c-7 -4 -10
-12 -8 -16 3 -5 -10 -22 -29 -38 -19 -16 -33 -23 -31 -15 2 8 11 17 21 21 10
4 23 21 28 38 6 16 15 27 21 24 6 -4 6 -9 -2 -14z m115 10 c-3 -5 3 -10 14
-10 11 0 22 -4 26 -9 3 -6 -7 -8 -22 -6 -16 2 -36 4 -45 4 -36 2 -17 24 25 30
5 0 5 -3 2 -9z m103 -15 c-3 -3 -9 2 -12 12 -6 14 -5 15 5 6 7 -7 10 -15 7
-18z m1456 9 c3 -8 2 -12 -4 -9 -6 3 -10 10 -10 16 0 14 7 11 14 -7z m62 7
c-4 -5 -1 -12 4 -14 6 -3 5 -4 -2 -3 -15 3 -23 26 -8 26 6 0 9 -4 6 -9z m412
-25 c-1 -15 -7 -22 -15 -19 -14 5 -18 35 -7 46 12 12 24 -4 22 -27z m-1637 1
c-10 -9 -11 -8 -5 6 3 10 9 15 12 12 3 -3 0 -11 -7 -18z m102 -2 c-3 -8 -1
-15 5 -15 6 0 12 6 14 12 3 7 7 3 10 -9 5 -20 3 -20 -24 -11 -17 6 -33 7 -37
2 -9 -14 -41 -16 -41 -4 0 6 5 8 10 5 6 -3 10 -2 10 4 0 5 -5 11 -12 13 -7 3
-5 7 6 11 10 4 15 3 11 -3 -7 -11 6 -13 29 -4 9 3 13 11 9 17 -3 6 -1 7 5 3 6
-4 9 -13 5 -21z m594 -7 c-3 -7 -5 -2 -5 12 0 14 2 19 5 13 2 -7 2 -19 0 -25z
m720 5 c0 -16 -2 -21 -7 -14 -4 7 -19 14 -33 14 -14 1 -23 6 -20 10 3 5 11 6
17 4 9 -4 41 7 41 13 0 0 1 -12 2 -27z m69 -41 c-3 -3 -6 2 -6 11 0 10 -4 17
-9 17 -5 0 -6 10 -3 23 5 20 7 19 14 -12 5 -18 7 -36 4 -39z m-139 31 c7 -15
11 -29 8 -31 -7 -8 -35 26 -35 42 0 24 14 19 27 -11z m335 0 c-3 -16 -7 -22
-10 -15 -4 13 4 42 11 42 2 0 2 -12 -1 -27z m-1226 -15 c-18 -26 -22 -17 -5
14 6 11 13 17 16 15 3 -3 -2 -16 -11 -29z m101 10 c-3 -8 -6 -5 -6 6 -1 11 2
17 5 13 3 -3 4 -12 1 -19z m-984 5 c-7 -2 -21 -2 -30 0 -10 3 -4 5 12 5 17 0
24 -2 18 -5z m1957 -21 c0 -15 -2 -15 -10 -2 -13 20 -13 33 0 25 6 -3 10 -14
10 -23z m-2216 4 c-3 -9 -12 -12 -22 -9 -15 6 -9 11 25 22 1 1 0 -5 -3 -13z
m76 11 c0 -2 -10 -12 -22 -23 l-23 -19 19 23 c18 21 26 27 26 19z m207 -14
c-14 -14 -19 -15 -29 -4 -11 11 -10 13 5 8 9 -4 17 -2 17 3 0 6 5 10 12 10 8
0 6 -6 -5 -17z m58 7 c3 -5 1 -10 -4 -10 -6 0 -11 5 -11 10 0 6 2 10 4 10 3 0
8 -4 11 -10z m35 0 c0 -5 -2 -10 -4 -10 -3 0 -8 5 -11 10 -3 6 -1 10 4 10 6 0
11 -4 11 -10z m829 1 c8 -5 9 -11 3 -15 -5 -3 -15 1 -22 9 -14 16 -3 20 19 6z
m687 -19 c-18 -16 -18 -16 -6 6 6 13 14 21 18 18 3 -4 -2 -14 -12 -24z m254
13 c7 -9 8 -15 2 -15 -5 0 -12 7 -16 15 -3 8 -4 15 -2 15 2 0 9 -7 16 -15z
m-1489 -12 c13 -16 12 -17 -3 -4 -10 7 -18 15 -18 17 0 8 8 3 21 -13z m120
-16 c-6 -8 -9 -22 -5 -31 10 -25 0 -19 -26 17 -13 17 -16 26 -7 19 20 -17 38
-7 30 16 -5 14 -3 15 7 5 10 -9 10 -15 1 -26z m619 29 c0 -3 -4 -8 -10 -11 -5
-3 -10 -1 -10 4 0 6 5 11 10 11 6 0 10 -2 10 -4z m30 0 c0 -2 -8 -10 -17 -17
-16 -13 -17 -12 -4 4 13 16 21 21 21 13z m-519 -78 c18 -32 2 -19 -26 23 -23
33 -30 37 -37 25 -5 -9 -16 -16 -24 -16 -11 0 -12 -4 -4 -19 16 -30 12 -36
-10 -16 -15 14 -17 21 -9 32 6 7 17 13 24 13 7 0 16 8 20 18 6 15 10 13 31
-13 14 -16 29 -38 35 -47z m586 40 c-3 -7 -5 -2 -5 12 0 14 2 19 5 13 2 -7 2
-19 0 -25z m903 22 c0 -5 -5 -10 -11 -10 -5 0 -7 5 -4 10 3 6 8 10 11 10 2 0
4 -4 4 -10z m-2002 -25 c-3 -3 -9 2 -12 12 -6 14 -5 15 5 6 7 -7 10 -15 7 -18z
m1074 -17 c-6 -6 -7 0 -4 19 5 21 7 23 10 9 2 -10 0 -22 -6 -28z m-1445 26
c-3 -3 -12 -4 -19 -1 -8 3 -5 6 6 6 11 1 17 -2 13 -5z m1896 -9 c-3 -9 -8 -14
-10 -11 -3 3 -2 9 2 15 9 16 15 13 8 -4z m311 -7 c-4 -13 -10 -25 -13 -28 -4
-3 -6 -15 -5 -27 1 -13 -2 -23 -7 -23 -8 0 -2 77 7 92 11 18 25 7 18 -14z
m-2033 -12 c-8 -9 -8 -15 -1 -18 5 -1 1 -9 -10 -16 -16 -10 -20 -10 -20 1 0
17 30 60 37 53 3 -3 1 -12 -6 -20z m1984 -45 c1 -29 0 -49 -4 -46 -3 4 -6 21
-6 38 0 18 -4 43 -9 57 -6 19 -6 22 4 13 7 -6 13 -34 15 -62z m148 54 c-3 -9
-8 -14 -10 -11 -3 3 -2 9 2 15 9 16 15 13 8 -4z m-2265 -20 c-3 -3 -9 2 -12
12 -6 14 -5 15 5 6 7 -7 10 -15 7 -18z m272 6 c0 -13 -29 -8 -34 5 -3 7 2 10
15 7 10 -3 19 -9 19 -12z m2183 -5 c-10 -13 -19 -23 -21 -21 -7 6 19 45 29 45
5 0 2 -11 -8 -24z m-2413 4 c0 -5 -2 -10 -4 -10 -3 0 -8 5 -11 10 -3 6 -1 10
4 10 6 0 11 -4 11 -10z m1900 -5 c0 -8 -2 -15 -4 -15 -2 0 -6 7 -10 15 -3 8
-1 15 4 15 6 0 10 -7 10 -15z m113 1 c3 3 3 -3 0 -15 -3 -12 -10 -21 -15 -21
-6 0 -8 6 -5 14 3 7 0 20 -6 27 -10 11 -9 11 4 1 9 -6 18 -9 22 -6z m-2153
-16 c0 -5 -5 -10 -11 -10 -5 0 -7 5 -4 10 3 6 8 10 11 10 2 0 4 -4 4 -10z
m2360 0 c0 -5 -7 -7 -15 -4 -8 4 -15 8 -15 10 0 2 7 4 15 4 8 0 15 -4 15 -10z
m64 -5 c-4 -8 -11 -12 -16 -9 -6 4 -5 10 3 15 19 12 19 11 13 -6z m-2125 -9
c9 -11 9 -16 0 -22 -8 -4 -9 -3 -5 4 4 7 1 12 -8 12 -9 0 -16 5 -16 10 0 14
16 12 29 -4z m1881 -2 c0 -8 -5 -12 -10 -9 -6 4 -8 11 -5 16 9 14 15 11 15 -7z
m-660 -30 c0 -11 -3 -12 -12 -4 -7 6 -22 17 -33 25 -18 13 -17 14 13 4 17 -6
32 -17 32 -25z m1005 26 c3 -5 2 -10 -4 -10 -5 0 -13 5 -16 10 -3 6 -2 10 4
10 5 0 13 -4 16 -10z m30 -16 c-23 -24 -18 -52 13 -68 21 -12 23 -15 8 -16
-16 0 -17 -2 -5 -17 10 -12 10 -14 1 -9 -7 4 -15 1 -18 -8 -3 -9 -10 -13 -15
-10 -5 3 -5 13 1 24 7 13 5 21 -6 31 -8 7 -12 19 -9 28 4 11 0 10 -16 -5 l-22
-19 18 28 c10 16 13 27 6 27 -6 0 -11 -4 -11 -10 0 -5 -7 -10 -16 -10 -9 0
-12 -5 -8 -12 4 -7 3 -9 -1 -5 -13 11 -15 37 -4 37 6 0 7 5 3 12 -5 7 -3 8 7
3 27 -17 58 -14 64 6 4 11 11 17 16 14 5 -4 2 -13 -6 -21z m-2491 0 c6 2 7 1
2 -2 -4 -2 -2 -9 5 -14 11 -7 9 -8 -5 -4 -12 4 -23 0 -32 -11 -10 -15 -15 -16
-26 -5 -11 11 -10 12 5 7 17 -7 22 2 17 35 -1 12 1 12 10 3 7 -6 18 -10 24 -9z
m69 1 c-3 -9 -8 -14 -10 -11 -3 3 -2 9 2 15 9 16 15 13 8 -4z m67 -54 c-1 -13
-29 45 -29 59 0 8 6 0 14 -19 8 -18 15 -36 15 -40z m743 54 c-3 -9 -8 -14 -10
-11 -3 3 -2 9 2 15 9 16 15 13 8 -4z m502 5 c-3 -5 -1 -10 4 -10 6 0 11 -5 11
-10 0 -7 -7 -7 -21 1 -17 9 -19 13 -8 20 18 11 22 11 14 -1z m948 -3 c4 3 7
-1 7 -9 0 -14 -5 -15 -30 -5 -19 7 -25 14 -18 19 7 4 17 3 24 -2 6 -6 14 -7
17 -3z m58 -4 c-5 -10 -15 -31 -22 -47 -13 -27 -14 -28 -17 -8 -2 12 4 29 12
38 9 8 16 20 16 25 0 5 5 9 10 9 6 0 7 -7 1 -17z m-1337 -6 c17 -13 18 -14 2
-20 -10 -4 -14 -3 -11 2 3 6 -3 14 -12 20 -10 6 -13 11 -7 11 5 0 18 -6 28
-13z m1476 9 c0 -2 -8 -10 -17 -17 -16 -13 -17 -12 -4 4 13 16 21 21 21 13z
m-1700 -17 c0 -5 -4 -8 -9 -5 -5 4 -11 0 -14 -6 -2 -7 -8 -10 -12 -6 -4 4 -4
11 0 17 8 14 35 14 35 0z m280 -9 c0 -5 -2 -10 -4 -10 -3 0 -8 5 -11 10 -3 6
-1 10 4 10 6 0 11 -4 11 -10z m211 -9 c-13 -10 -21 -23 -17 -30 4 -6 3 -11 -3
-11 -21 0 -16 26 8 42 34 23 42 23 12 -1z m796 -13 c-3 -7 -5 -2 -5 12 0 14 2
19 5 13 2 -7 2 -19 0 -25z m-2047 7 c0 -9 -9 -15 -22 -15 -12 0 -38 -15 -58
-32 l-35 -33 34 38 c19 20 43 37 53 37 10 0 18 5 18 10 0 6 2 10 5 10 3 0 5
-7 5 -15z m2230 -3 c0 -4 -10 -8 -22 -9 -11 -1 -25 -8 -29 -15 -5 -7 -9 -8 -9
-3 0 15 13 31 30 37 16 6 30 1 30 -10z m-1451 -2 c6 -7 -10 -53 -16 -47 -2 3
0 15 7 26 12 23 10 24 -14 15 -9 -3 -14 -9 -12 -13 3 -4 1 -13 -5 -21 -7 -13
-9 -12 -9 3 0 9 -4 17 -10 17 -5 0 -10 -5 -10 -11 0 -5 -5 -7 -11 -3 -8 4 -7
9 2 15 8 5 10 9 6 9 -5 0 -6 3 -4 8 6 8 70 10 76 2z m165 -6 c3 -8 2 -12 -4
-9 -6 3 -10 10 -10 16 0 14 7 11 14 -7z m426 6 c0 -5 -2 -10 -4 -10 -3 0 -8 5
-11 10 -3 6 -1 10 4 10 6 0 11 -4 11 -10z m17 -12 c-3 -8 -6 -5 -6 6 -1 11 2
17 5 13 3 -3 4 -12 1 -19z m877 1 c-8 -14 -21 -11 -21 5 0 8 6 12 14 9 7 -3
10 -9 7 -14z m-2149 -28 c2 -12 0 -19 -6 -16 -5 4 -7 11 -4 16 4 5 -1 12 -9
15 -9 3 -13 11 -10 16 8 13 23 -3 29 -31z m55 35 c0 -3 -4 -8 -10 -11 -5 -3
-10 -1 -10 4 0 6 5 11 10 11 6 0 10 -2 10 -4z m1137 -11 c0 -8 -4 -12 -9 -9
-5 3 -6 10 -3 15 9 13 12 11 12 -6z m790 -7 c-3 -8 -6 -5 -6 6 -1 11 2 17 5
13 3 -3 4 -12 1 -19z m-1100 6 c-3 -3 -12 -4 -19 -1 -8 3 -5 6 6 6 11 1 17 -2
13 -5z m358 -4 c3 -5 1 -10 -4 -10 -6 0 -11 5 -11 10 0 6 2 10 4 10 3 0 8 -4
11 -10z m-161 -8 c3 -5 -1 -9 -9 -9 -8 0 -12 4 -9 9 3 4 7 8 9 8 2 0 6 -4 9
-8z m866 -6 c0 -3 -4 -8 -10 -11 -5 -3 -10 -1 -10 4 0 6 5 11 10 11 6 0 10 -2
10 -4z m194 -17 c-3 -5 -14 -5 -25 1 -26 14 -24 18 6 12 14 -2 22 -8 19 -13z
m84 9 c8 -10 4 -13 -18 -13 -16 0 -32 4 -36 8 -5 4 -1 5 8 2 9 -4 19 -2 23 4
8 14 10 14 23 -1z m42 -3 c-7 -9 -15 -13 -19 -10 -3 3 1 10 9 15 21 14 24 12
10 -5z m-2215 -5 c-3 -5 -14 -10 -23 -9 -14 0 -13 2 3 9 27 11 27 11 20 0z
m2013 -8 c6 -18 -15 -14 -22 4 -4 10 -1 14 6 12 6 -2 14 -10 16 -16z m-1046
-4 c-9 -9 -8 -16 6 -32 16 -20 16 -20 -3 -6 -11 8 -22 16 -24 17 -5 3 20 33
27 33 3 0 1 -5 -6 -12z m-412 -12 c-7 -7 -13 -7 -20 0 -6 6 -3 10 10 10 13 0
16 -4 10 -10z m28 -11 c-6 -14 -13 -23 -15 -21 -5 5 15 46 22 46 3 0 -1 -11
-7 -25z m532 19 c0 -8 -19 -13 -24 -6 -3 5 1 9 9 9 8 0 15 -2 15 -3z m100 -4
c0 -5 -2 -10 -4 -10 -3 0 -8 5 -11 10 -3 6 -1 10 4 10 6 0 11 -4 11 -10z
m1018 -17 c1 -16 11 -35 22 -45 25 -20 25 -24 0 -24 -13 0 -19 5 -16 13 3 7
-1 13 -9 13 -9 0 -12 6 -9 15 4 8 1 21 -5 29 -6 7 -8 16 -4 19 12 13 19 7 21
-20z m-1075 2 c-3 -9 -8 -14 -10 -11 -3 3 -2 9 2 15 9 16 15 13 8 -4z m754 -7
c-3 -8 -6 -5 -6 6 -1 11 2 17 5 13 3 -3 4 -12 1 -19z m178 4 c-3 -3 -11 0 -18
7 -9 10 -8 11 6 5 10 -3 15 -9 12 -12z m40 8 c3 -5 1 -10 -4 -10 -6 0 -11 5
-11 10 0 6 2 10 4 10 3 0 8 -4 11 -10z m48 -21 c5 -3 2 -9 -7 -12 -12 -5 -16
0 -16 15 0 12 3 17 8 12 4 -5 11 -12 15 -15z m102 -6 c-9 -8 -19 -13 -22 -9
-9 8 18 37 28 30 5 -3 2 -12 -6 -21z m-1075 12 c0 -7 -30 -13 -34 -7 -3 4 4 9
15 9 10 1 19 0 19 -2z m-350 -33 c0 -8 -1 -13 -3 -11 -1 2 -9 12 -16 22 -12
15 -12 17 3 11 9 -3 16 -13 16 -22z m1265 10 c-3 -3 -11 0 -18 7 -9 10 -8 11
6 5 10 -3 15 -9 12 -12z m-2398 2 c-3 -3 -12 -4 -19 -1 -8 3 -5 6 6 6 11 1 17
-2 13 -5z m1423 2 c0 -2 -7 -9 -15 -16 -13 -11 -14 -10 -9 4 5 14 24 23 24 12z
m860 -6 c0 -5 -8 -10 -17 -10 -15 0 -16 2 -3 10 19 12 20 12 20 0z m64 -5 c-4
-8 -8 -15 -10 -15 -2 0 -4 7 -4 15 0 8 4 15 10 15 5 0 7 -7 4 -15z m130 0 c-4
-8 -11 -15 -16 -15 -6 0 -5 6 2 15 7 8 14 15 16 15 2 0 1 -7 -2 -15z m-1646
-20 c-6 -14 -13 -23 -15 -21 -5 5 15 46 22 46 3 0 -1 -11 -7 -25z m442 10 c-7
-9 -15 -13 -19 -10 -3 3 1 10 9 15 21 14 24 12 10 -5z m200 -22 c0 -13 -3 -13
-15 -3 -8 7 -15 16 -15 21 0 5 7 6 15 3 8 -4 15 -13 15 -21z m413 12 c4 -8 2
-17 -3 -20 -6 -4 -10 3 -10 14 0 25 6 27 13 6z m492 5 c-3 -5 -12 -10 -18 -10
-7 0 -6 4 3 10 19 12 23 12 15 0z m80 -13 c6 -5 3 -7 -7 -3 -10 3 -18 0 -18
-6 0 -6 -3 -9 -6 -5 -4 3 -4 14 0 23 4 9 10 13 14 8 4 -5 12 -13 17 -17z m61
-34 c-1 -7 -5 -15 -9 -18 -4 -3 -5 -2 -2 2 3 3 1 11 -4 17 -4 6 -11 20 -15 31
-7 20 -7 20 12 0 11 -11 18 -25 18 -32z m-2519 15 c-3 -8 -6 -5 -6 6 -1 11 2
17 5 13 3 -3 4 -12 1 -19z m1364 -1 c-10 -9 -11 -8 -5 6 3 10 9 15 12 12 3 -3
0 -11 -7 -18z m794 5 c-3 -3 -11 0 -18 7 -9 10 -8 11 6 5 10 -3 15 -9 12 -12z
m-575 -17 c14 -19 14 -19 -2 -6 -10 7 -18 18 -18 24 0 6 1 8 3 6 1 -2 9 -13
17 -24z m-1620 5 c0 -5 -5 -10 -11 -10 -5 0 -7 5 -4 10 3 6 8 10 11 10 2 0 4
-4 4 -10z m1320 4 c0 -8 -19 -13 -24 -6 -3 5 1 9 9 9 8 0 15 -2 15 -3z m1263
-19 c-7 -21 -12 -19 -10 4 0 11 5 18 9 15 4 -3 5 -11 1 -19z m-1223 -4 c0 -4
-7 -16 -16 -27 -14 -18 -15 -18 -4 4 6 12 8 28 4 34 -4 7 -3 8 4 4 7 -4 12
-11 12 -15z m-1320 -1 c0 -5 -7 -10 -15 -10 -8 0 -15 -5 -15 -12 0 -6 -3 -8
-7 -4 -5 4 1 14 11 22 23 17 26 17 26 4z m1113 -5 c-3 -9 -8 -14 -10 -11 -3 3
-2 9 2 15 9 16 15 13 8 -4z m526 -4 c10 -17 9 -18 -14 -7 -28 12 -33 26 -10
26 8 0 19 -9 24 -19z m591 9 c0 -5 -5 -10 -11 -10 -5 0 -7 5 -4 10 3 6 8 10
11 10 2 0 4 -4 4 -10z m45 0 c3 -5 2 -10 -4 -10 -5 0 -13 5 -16 10 -3 6 -2 10
4 10 5 0 13 -4 16 -10z m59 -16 c5 -14 4 -15 -9 -4 -17 14 -19 20 -6 20 5 0
12 -7 15 -16z m-1269 -15 c-3 -4 -12 -6 -20 -2 -8 3 -15 -1 -15 -8 0 -7 -2
-10 -5 -7 -12 12 7 36 26 31 10 -3 16 -9 14 -14z m1073 -40 c-15 -9 -28 -2
-28 14 0 7 4 6 10 -3 10 -16 13 -10 11 30 0 23 0 23 9 -5 7 -20 6 -31 -2 -36z
m116 53 c3 -5 -1 -9 -9 -9 -8 0 -12 4 -9 9 3 4 7 8 9 8 2 0 6 -4 9 -8z m142
-11 c0 -11 -4 -17 -8 -15 -4 3 -8 0 -8 -7 0 -7 -2 -10 -5 -8 -6 7 6 49 14 49
4 0 7 -9 7 -19z m-1002 -7 c3 -8 2 -12 -4 -9 -6 3 -10 10 -10 16 0 14 7 11 14
-7z m44 -9 c-13 -28 -31 -35 -21 -7 5 14 21 31 30 32 2 0 -3 -11 -9 -25z
m1028 10 c-5 -13 5 -20 27 -16 14 2 19 -29 7 -44 -16 -19 -61 -19 -86 0 -10 8
-14 15 -9 15 6 0 3 5 -5 10 -13 8 -12 10 4 10 12 0 16 -5 13 -14 -7 -19 22
-29 57 -20 15 3 26 13 26 23 0 14 -2 14 -10 1 -8 -13 -11 -12 -24 5 -17 23
-19 29 -9 38 11 12 15 8 9 -8z m-742 -11 c3 -8 2 -12 -4 -9 -6 3 -10 10 -10
16 0 14 7 11 14 -7z m-386 -19 c-3 -3 -9 2 -12 12 -6 14 -5 15 5 6 7 -7 10
-15 7 -18z m-278 11 c0 -3 -4 -8 -10 -11 -5 -3 -10 -1 -10 4 0 6 5 11 10 11 6
0 10 -2 10 -4z m440 -6 c0 -5 -2 -10 -4 -10 -3 0 -8 5 -11 10 -3 6 -1 10 4 10
6 0 11 -4 11 -10z m680 0 c0 -5 -5 -10 -11 -10 -5 0 -7 5 -4 10 3 6 8 10 11
10 2 0 4 -4 4 -10z m-2203 -22 c-3 -8 -6 -5 -6 6 -1 11 2 17 5 13 3 -3 4 -12
1 -19z m1120 0 c-3 -8 -6 -5 -6 6 -1 11 2 17 5 13 3 -3 4 -12 1 -19z m213 18
c0 -11 -19 -15 -25 -6 -3 5 1 10 9 10 9 0 16 -2 16 -4z m910 0 c0 -2 -7 -7
-16 -10 -8 -3 -12 -2 -9 4 6 10 25 14 25 6z m46 -7 c3 -6 1 -16 -5 -22 -9 -9
-10 -7 -5 7 5 13 4 17 -4 12 -7 -4 -12 -2 -12 3 0 14 17 14 26 0z m280 -14
c-21 -21 -20 -29 0 -21 14 5 15 4 4 -9 -7 -8 -16 -13 -20 -10 -4 3 -11 -2 -14
-11 -4 -11 -2 -15 7 -11 9 3 13 -2 12 -16 -1 -19 -35 -35 -35 -16 0 5 5 9 11
9 5 0 7 5 4 10 -4 6 -10 8 -15 5 -11 -7 32 78 45 87 17 12 18 0 1 -17z m-1399
-1 c-3 -3 -12 -4 -19 -1 -8 3 -5 6 6 6 11 1 17 -2 13 -5z m269 -28 c-6 -19
-12 -33 -14 -31 -7 6 9 65 17 65 5 0 3 -15 -3 -34z m104 20 c0 -8 -4 -18 -10
-21 -6 -4 -7 1 -3 11 5 13 3 15 -7 9 -9 -5 -11 -4 -6 3 10 17 26 15 26 -2z
m710 10 c0 -3 -4 -8 -10 -11 -5 -3 -10 -1 -10 4 0 6 5 11 10 11 6 0 10 -2 10
-4z m184 -38 c4 3 4 -1 1 -11 -6 -13 -10 -14 -19 -4 -7 6 -15 21 -19 32 -6 18
-5 18 12 -2 10 -12 22 -19 25 -15z m-2447 0 c-3 -8 -6 -5 -6 6 -1 11 2 17 5
13 3 -3 4 -12 1 -19z m1845 15 c-6 -2 -9 -10 -6 -15 4 -7 2 -8 -5 -4 -13 9 -5
26 12 25 9 0 8 -2 -1 -6z m310 -31 c-4 -11 -6 -11 -13 0 -5 7 -9 19 -9 26 0
10 3 10 14 0 7 -7 11 -19 8 -26z m-827 18 c3 -6 -1 -7 -9 -4 -18 7 -21 14 -7
14 6 0 13 -4 16 -10z m645 -5 c11 -13 10 -14 -4 -9 -9 3 -16 10 -16 15 0 13 6
11 20 -6z m364 6 c3 -5 -1 -11 -9 -14 -9 -4 -12 -1 -8 9 6 16 10 17 17 5z
m-932 -15 c7 4 8 2 4 -5 -9 -13 -26 -5 -25 12 0 9 2 8 6 -1 2 -6 10 -9 15 -6z
m888 4 c-8 -5 -19 -10 -25 -10 -5 0 -3 5 5 10 8 5 20 10 25 10 6 0 3 -5 -5
-10z m66 -22 c4 -7 3 -8 -4 -4 -7 4 -12 2 -12 -3 0 -6 5 -11 12 -11 6 0 4 -6
-7 -13 -10 -8 -15 -19 -11 -25 4 -7 3 -12 -2 -12 -5 0 -12 9 -15 20 -3 11 -1
18 3 15 5 -3 11 -1 14 4 4 5 1 13 -5 17 -8 4 -7 9 2 15 18 11 17 11 25 -3z
m114 3 c0 -5 -7 -14 -15 -21 -16 -14 -18 -10 -9 14 6 17 24 22 24 7z m-288
-36 c2 -14 -3 -20 -19 -21 -12 -1 -20 3 -17 8 3 5 13 7 23 4 13 -5 13 -4 -2 8
-13 10 -15 15 -5 19 16 5 15 6 20 -18z m294 0 c-13 -10 -15 -15 -6 -15 7 0 11
-3 7 -6 -3 -3 -11 -3 -17 1 -13 8 5 35 24 35 6 0 2 -7 -8 -15z m-2499 -17 c-3
-8 -6 -5 -6 6 -1 11 2 17 5 13 3 -3 4 -12 1 -19z m1252 -18 c0 -10 -3 -8 -9 5
-12 27 -12 43 0 25 5 -8 9 -22 9 -30z m1220 -1 c3 -9 -1 -8 -13 4 -10 9 -22
17 -27 17 -5 0 -9 5 -9 11 0 15 42 -13 49 -32z m-1059 27 c0 -2 -8 -10 -17
-17 -16 -13 -17 -12 -4 4 13 16 21 21 21 13z m910 -6 c0 -5 -5 -10 -11 -10 -5
0 -7 5 -4 10 3 6 8 10 11 10 2 0 4 -4 4 -10z m260 -23 c0 -7 -4 -6 -10 3 -8
12 -10 12 -10 1 0 -8 -3 -12 -6 -8 -9 9 6 28 17 22 5 -4 9 -12 9 -18z m-1390
1 c0 -4 -9 -8 -20 -8 -11 0 -20 4 -20 8 0 4 9 8 20 8 11 0 20 -4 20 -8z m1070
2 c0 -5 -5 -10 -11 -10 -5 0 -7 5 -4 10 3 6 8 10 11 10 2 0 4 -4 4 -10z m-940
-35 c0 -5 -5 -3 -10 5 -5 8 -10 20 -10 25 0 6 5 3 10 -5 5 -8 10 -19 10 -25z
m610 25 c0 -5 -5 -10 -11 -10 -5 0 -7 5 -4 10 3 6 8 10 11 10 2 0 4 -4 4 -10z
m271 -13 c-10 -9 -11 -8 -5 6 3 10 9 15 12 12 3 -3 0 -11 -7 -18z m121 16 c-6
-2 -9 -10 -6 -15 4 -7 2 -8 -5 -4 -13 9 -5 26 12 25 9 0 8 -2 -1 -6z m273 -33
c13 -6 15 -9 5 -9 -8 0 -22 4 -30 9 -18 12 -2 12 25 0z m-428 -6 c-3 -3 -12
-4 -19 -1 -8 3 -5 6 6 6 11 1 17 -2 13 -5z m83 -27 c0 -5 -4 -5 -10 -2 -5 3
-10 14 -10 23 0 15 2 15 10 2 5 -8 10 -19 10 -23z m-895 13 c13 -6 15 -9 5 -9
-8 0 -22 4 -30 9 -18 12 -2 12 25 0z m1015 6 c0 -3 -4 -8 -10 -11 -5 -3 -10
-1 -10 4 0 6 5 11 10 11 6 0 10 -2 10 -4z m-160 -20 c0 -3 -4 -8 -10 -11 -5
-3 -10 -1 -10 4 0 6 5 11 10 11 6 0 10 -2 10 -4z m227 -16 c-1 -11 -5 -20 -9
-20 -10 0 -10 4 -2 24 8 22 13 20 11 -4z m-1020 4 c-3 -3 -12 -4 -19 -1 -8 3
-5 6 6 6 11 1 17 -2 13 -5z m-227 -14 c0 -5 -2 -10 -4 -10 -3 0 -8 5 -11 10
-3 6 -1 10 4 10 6 0 11 -4 11 -10z m677 -12 c-3 -8 -6 -5 -6 6 -1 11 2 17 5
13 3 -3 4 -12 1 -19z m623 -29 c0 -4 -5 -11 -12 -15 -8 -5 -9 -2 -5 9 3 9 2
19 -3 22 -6 4 -10 12 -10 18 1 13 30 -21 30 -34z m34 32 c3 -5 -1 -11 -9 -14
-9 -4 -12 -1 -8 9 6 16 10 17 17 5z m54 -18 c2 -12 -4 -23 -15 -27 -14 -6 -16
-5 -5 5 14 15 16 43 2 34 -5 -3 -10 -1 -10 5 0 20 25 5 28 -17z m42 17 c0 -5
-5 -10 -11 -10 -5 0 -7 5 -4 10 3 6 8 10 11 10 2 0 4 -4 4 -10z m-635 -10 c3
-6 -1 -7 -9 -4 -18 7 -21 14 -7 14 6 0 13 -4 16 -10z m-1740 -18 c-3 -3 -11 0
-18 7 -9 10 -8 11 6 5 10 -3 15 -9 12 -12z m145 8 c0 -5 -2 -10 -4 -10 -3 0
-8 5 -11 10 -3 6 -1 10 4 10 6 0 11 -4 11 -10z m1285 1 c3 -5 2 -12 -3 -15 -5
-3 -9 1 -9 9 0 17 3 19 12 6z m-1331 -17 c5 -14 4 -15 -9 -4 -17 14 -19 20 -6
20 5 0 12 -7 15 -16z m866 10 c0 -8 -19 -13 -24 -6 -3 5 1 9 9 9 8 0 15 -2 15
-3z m507 0 c-3 -3 -12 -4 -19 -1 -8 3 -5 6 6 6 11 1 17 -2 13 -5z m900 -9 c0
-8 -4 -12 -9 -9 -5 3 -6 10 -3 15 9 13 12 11 12 -6z m-882 -5 c-3 -5 -1 -10 4
-10 6 0 11 -5 11 -11 0 -8 -5 -8 -15 1 -13 11 -12 30 1 30 3 0 2 -4 -1 -10z
m785 0 c0 -5 -5 -10 -11 -10 -5 0 -7 5 -4 10 3 6 8 10 11 10 2 0 4 -4 4 -10z
m-740 -10 c0 -5 -5 -10 -11 -10 -5 0 -7 5 -4 10 3 6 8 10 11 10 2 0 4 -4 4
-10z m160 -10 c0 -5 -5 -10 -11 -10 -5 0 -7 5 -4 10 3 6 8 10 11 10 2 0 4 -4
4 -10z m668 -3 c7 -9 8 -17 1 -27 -9 -13 -10 -13 -6 0 2 8 -3 20 -12 27 -9 7
-11 13 -5 13 6 0 16 -6 22 -13z m-93 -8 c-4 -6 -1 -10 6 -8 8 1 21 1 29 0 13
-1 13 -3 1 -10 -9 -6 -24 -5 -38 2 -17 8 -20 13 -11 19 17 11 20 10 13 -3z
m-685 -3 c0 -2 -7 -6 -15 -10 -8 -3 -15 -1 -15 4 0 6 7 10 15 10 8 0 15 -2 15
-4z m-1410 -16 c0 -5 -8 -10 -17 -10 -15 0 -16 2 -3 10 19 12 20 12 20 0z
m715 0 c3 -6 -1 -7 -9 -4 -18 7 -21 14 -7 14 6 0 13 -4 16 -10z m1455 0 c0 -5
-5 -10 -11 -10 -5 0 -7 5 -4 10 3 6 8 10 11 10 2 0 4 -4 4 -10z m-2060 -28 c0
-12 -3 -12 -15 -2 -8 7 -15 13 -15 15 0 1 7 2 15 2 8 0 15 -7 15 -15z m619 2
c10 -9 -35 -3 -49 6 -11 8 -7 9 15 4 17 -4 32 -8 34 -10z m-718 -11 c13 -16
12 -17 -3 -4 -10 7 -18 15 -18 17 0 8 8 3 21 -13z m1909 13 c0 -3 -4 -8 -10
-11 -5 -3 -10 -1 -10 4 0 6 5 11 10 11 6 0 10 -2 10 -4z m-556 -14 c2 -4 -5
-9 -17 -9 -17 -2 -19 0 -7 7 18 12 18 12 24 2z m-80 -37 l17 -30 -20 24 c-12
13 -21 28 -21 34 0 12 0 11 24 -28z m166 31 c0 -2 -8 -10 -17 -17 -16 -13 -17
-12 -4 4 13 16 21 21 21 13z m744 -12 c3 -8 2 -12 -4 -9 -6 3 -10 10 -10 16 0
14 7 11 14 -7z m-284 -4 c0 -5 -2 -10 -4 -10 -3 0 -8 5 -11 10 -3 6 -1 10 4
10 6 0 11 -4 11 -10z m130 0 c0 -5 -5 -10 -11 -10 -5 0 -7 5 -4 10 3 6 8 10
11 10 2 0 4 -4 4 -10z m-1999 -18 c-7 -2 -18 1 -23 6 -8 8 -4 9 13 5 13 -4 18
-8 10 -11z m989 15 c0 -2 -12 -14 -27 -28 l-28 -24 24 28 c23 25 31 32 31 24z
m517 -3 c-3 -3 -12 -4 -19 -1 -8 3 -5 6 6 6 11 1 17 -2 13 -5z m-1342 -24 c3
-5 1 -10 -4 -10 -6 0 -11 5 -11 10 0 6 2 10 4 10 3 0 8 -4 11 -10z m-292 -25
c-3 -9 -8 -14 -10 -11 -3 3 -2 9 2 15 9 16 15 13 8 -4z m1551 -11 c3 -8 2 -12
-4 -9 -6 3 -10 10 -10 16 0 14 7 11 14 -7z m-144 -4 c0 -5 -2 -10 -4 -10 -3 0
-8 5 -11 10 -3 6 -1 10 4 10 6 0 11 -4 11 -10z m266 -18 c1 -7 0 -8 -3 -2 -2
5 -9 8 -13 5 -5 -3 -12 0 -15 6 -5 7 -1 10 10 7 10 -1 20 -9 21 -16z m98 2 c3
-8 2 -12 -4 -9 -6 3 -10 10 -10 16 0 14 7 11 14 -7z m-1386 -19 c-3 -3 -9 2
-12 12 -6 14 -5 15 5 6 7 -7 10 -15 7 -18z m1469 -1 c-3 -3 -12 -4 -19 -1 -8
3 -5 6 6 6 11 1 17 -2 13 -5z m410 0 c-3 -3 -12 -4 -19 -1 -8 3 -5 6 6 6 11 1
17 -2 13 -5z m-647 -8 c0 -3 -4 -8 -10 -11 -5 -3 -10 -1 -10 4 0 6 5 11 10 11
6 0 10 -2 10 -4z m260 -10 c0 -2 -8 -10 -17 -17 -16 -13 -17 -12 -4 4 13 16
21 21 21 13z m-133 -22 c-3 -3 -12 -4 -19 -1 -8 3 -5 6 6 6 11 1 17 -2 13 -5z
m73 3 c0 -2 -10 -12 -22 -23 l-23 -19 19 23 c18 21 26 27 26 19z m470 -13 c0
-8 -5 -12 -10 -9 -6 4 -8 11 -5 16 9 14 15 11 15 -7z m-615 -14 c-3 -5 -1 -10
6 -10 7 0 10 -3 6 -6 -9 -9 -28 6 -22 17 4 5 8 9 11 9 3 0 2 -4 -1 -10z m590
-8 c-3 -3 -11 0 -18 7 -9 10 -8 11 6 5 10 -3 15 -9 12 -12z m-970 -10 c-3 -3
-11 0 -18 7 -9 10 -8 11 6 5 10 -3 15 -9 12 -12z m555 3 c0 -1 -11 -5 -24 -7
-16 -3 -23 -1 -19 7 3 10 43 10 43 0z m40 -25 c0 -5 -2 -10 -4 -10 -3 0 -8 5
-11 10 -3 6 -1 10 4 10 6 0 11 -4 11 -10z m-71 -55 c16 -20 16 -20 -6 -1 -13
11 -23 26 -22 35 0 14 1 14 6 1 3 -8 13 -24 22 -35z m468 23 c-3 -8 -6 -5 -6
6 -1 11 2 17 5 13 3 -3 4 -12 1 -19z m-117 -2 c0 -3 -4 -8 -10 -11 -5 -3 -10
-1 -10 4 0 6 5 11 10 11 6 0 10 -2 10 -4z m-990 -40 c0 -3 -4 -8 -10 -11 -5
-3 -10 -1 -10 4 0 6 5 11 10 11 6 0 10 -2 10 -4z m131 -79 c-10 -9 -11 -8 -5
6 3 10 9 15 12 12 3 -3 0 -11 -7 -18z m694 -21 c-11 -16 -22 -22 -36 -19 -17
5 -15 8 13 23 18 10 34 18 36 19 1 0 -5 -10 -13 -23z m-1658 -48 c-3 -8 -6 -5
-6 6 -1 11 2 17 5 13 3 -3 4 -12 1 -19z m1103 18 c0 -2 -8 -10 -17 -17 -16
-13 -17 -12 -4 4 13 16 21 21 21 13z m-1113 -68 c-3 -7 -5 -2 -5 12 0 14 2 19
5 13 2 -7 2 -19 0 -25z m1642 15 c0 -11 -3 -13 -6 -5 -2 6 -10 9 -15 6 -7 -4
-8 -2 -4 4 11 18 26 14 25 -5z m248 -25 c-3 -8 -6 -5 -6 6 -1 11 2 17 5 13 3
-3 4 -12 1 -19z m-290 -113 c0 -8 -4 -12 -9 -9 -5 3 -6 10 -3 15 9 13 12 11
12 -6z m-2058 -49 c-3 -3 -11 5 -18 17 -13 21 -12 21 5 5 10 -10 16 -20 13
-22z m161 -28 c0 -23 -3 -29 -9 -19 -8 12 -4 51 5 51 2 0 4 -15 4 -32z m-43
-25 c-3 -10 -5 -2 -5 17 0 19 2 27 5 18 2 -10 2 -26 0 -35z m-270 5 c-3 -8 -6
-5 -6 6 -1 11 2 17 5 13 3 -3 4 -12 1 -19z m2276 -55 c-7 -2 -19 -2 -25 0 -7
3 -2 5 12 5 14 0 19 -2 13 -5z m-76 -39 c-3 -3 -12 -4 -19 -1 -8 3 -5 6 6 6
11 1 17 -2 13 -5z m-1640 -46 c-3 -8 -6 -5 -6 6 -1 11 2 17 5 13 3 -3 4 -12 1
-19z m1210 -4 c-3 -3 -12 -4 -19 -1 -8 3 -5 6 6 6 11 1 17 -2 13 -5z m-937
-94 c0 -5 -5 -10 -11 -10 -5 0 -7 5 -4 10 3 6 8 10 11 10 2 0 4 -4 4 -10z
m1377 -12 c-3 -8 -6 -5 -6 6 -1 11 2 17 5 13 3 -3 4 -12 1 -19z"/>
<path d="M323 3235 c0 -8 4 -15 9 -15 4 0 8 4 8 9 0 6 -4 12 -8 15 -5 3 -9 -1
-9 -9z"/>
<path d="M358 3243 c7 -3 16 -2 19 1 4 3 -2 6 -13 5 -11 0 -14 -3 -6 -6z"/>
<path d="M418 3120 c2 -69 6 -128 10 -132 8 -8 68 -9 925 -8 l637 0 0 130 c0
128 0 130 -22 130 -13 1 -367 2 -788 3 l-765 2 3 -125z m1349 40 c2 0 3 -7 3
-15 0 -18 -26 -20 -36 -3 -5 8 -2 9 10 5 10 -4 15 -3 11 3 -10 16 -57 12 -77
-7 -39 -35 -9 -94 45 -88 16 2 32 7 35 11 4 4 -1 4 -11 1 -11 -4 -16 -3 -12 3
7 12 35 13 35 2 0 -33 -90 -44 -122 -15 -19 17 -26 49 -8 38 6 -3 10 -1 10 4
0 6 -4 11 -10 11 -16 0 -12 27 6 45 9 9 23 14 30 11 7 -3 16 -1 19 4 3 5 19 5
38 -1 17 -5 33 -9 34 -9z m-1179 -18 c2 -13 -2 -30 -8 -38 -14 -16 -70 -19
-70 -4 0 6 9 10 20 10 10 0 24 8 30 18 11 16 11 16 6 0 -3 -10 -1 -18 4 -18
12 0 13 21 2 35 -4 6 -20 10 -37 10 -24 0 -31 -5 -34 -25 -3 -23 -4 -24 -12
-5 -7 17 -8 17 -8 -7 -1 -16 4 -28 9 -28 6 0 10 -11 10 -25 0 -16 -6 -25 -15
-25 -12 0 -15 14 -15 65 l0 66 58 -3 c51 -3 57 -5 60 -26z m74 1 c3 -25 7 -28
38 -28 31 0 35 3 38 28 2 15 9 27 18 27 11 0 14 -15 14 -65 0 -51 -3 -65 -15
-65 -10 0 -15 9 -14 28 l1 27 8 -25 8 -25 1 28 c1 26 -1 27 -49 27 -49 0 -50
-1 -50 -30 0 -19 -5 -30 -14 -30 -11 0 -15 17 -18 65 -3 56 -1 65 14 65 11 0
18 -10 20 -27z m188 -38 c0 -61 -1 -65 -22 -64 -17 1 -19 2 -5 6 9 2 17 8 17
13 0 5 -7 7 -15 4 -12 -5 -15 4 -15 50 0 49 2 56 20 56 18 0 20 -7 20 -65z
m69 38 l-1 -28 -8 25 c-6 18 -8 9 -8 -35 1 -51 2 -55 8 -25 7 31 7 32 9 8 1
-26 4 -28 46 -28 25 0 45 -4 45 -10 0 -6 -27 -10 -60 -10 l-60 0 0 65 c0 51 3
65 15 65 10 0 15 -9 14 -27z m221 13 c0 -6 11 -35 25 -63 23 -50 23 -53 5 -53
-11 0 -24 9 -30 20 -6 12 -21 20 -36 20 -17 0 -28 -7 -31 -20 -3 -12 -14 -20
-25 -20 -12 0 -18 5 -15 13 48 115 48 116 78 115 16 -1 29 -6 29 -12z m150
-38 c8 -29 13 -56 12 -60 -1 -5 3 -8 8 -8 5 0 10 14 10 32 0 22 3 29 11 21 5
-5 7 -22 3 -37 -8 -35 -49 -34 -48 1 0 12 -4 19 -9 16 -5 -3 -8 5 -7 18 4 47
0 59 -20 59 -13 0 -20 -7 -20 -20 0 -11 5 -20 10 -20 6 0 10 -18 10 -40 0 -28
-4 -40 -14 -40 -11 0 -15 17 -18 65 l-3 65 31 0 c28 0 31 -4 44 -52z m110 -13
c0 -58 -2 -65 -20 -65 -16 0 -20 7 -20 30 0 18 6 33 15 36 18 7 20 35 3 32 -7
-2 -12 3 -10 10 1 8 -3 12 -10 9 -7 -2 -12 -15 -10 -28 2 -17 0 -21 -9 -12
-20 20 -1 53 32 53 l29 0 0 -65z m188 33 c9 -19 9 -33 1 -54 -13 -37 -25 -44
-76 -44 -41 0 -72 18 -74 43 -6 67 16 89 86 85 43 -3 52 -7 63 -30z m334 -33
c25 -61 26 -65 8 -65 -10 0 -22 9 -25 20 -5 14 -15 20 -37 20 -21 0 -31 -6
-35 -20 -3 -11 -14 -20 -24 -20 -20 0 -22 -6 28 118 3 6 17 12 32 12 23 0 29
-8 53 -65z"/>
<path d="M1640 3076 c0 -2 8 -10 18 -17 15 -13 16 -12 3 4 -13 16 -21 21 -21
13z"/>
<path d="M643 3115 c0 -27 2 -38 4 -22 2 15 2 37 0 50 -2 12 -4 0 -4 -28z"/>
<path d="M824 3120 c0 -11 4 -20 8 -20 4 0 8 9 8 20 0 11 -4 20 -8 20 -4 0 -8
-9 -8 -20z"/>
<path d="M1087 3154 c-10 -10 -9 -26 2 -20 4 3 6 -5 3 -19 -3 -19 0 -24 17
-22 16 1 20 6 15 22 -8 26 -28 47 -37 39z"/>
<path d="M1120 3155 c0 -5 5 -17 10 -25 5 -8 10 -10 10 -5 0 6 -5 17 -10 25
-5 8 -10 11 -10 5z"/>
<path d="M1066 3103 c-6 -14 -5 -15 5 -6 7 7 10 15 7 18 -3 3 -9 -2 -12 -12z"/>
<path d="M1046 3065 c-3 -8 -1 -15 4 -15 6 0 10 7 10 15 0 8 -2 15 -4 15 -2 0
-6 -7 -10 -15z"/>
<path d="M1375 3090 c-3 -5 -1 -10 4 -10 6 0 11 5 11 10 0 6 -2 10 -4 10 -3 0
-8 -4 -11 -10z"/>
<path d="M1476 3149 c2 -4 1 -15 -2 -24 -5 -13 -8 -14 -15 -3 -6 9 -9 3 -9
-18 0 -18 7 -37 18 -45 14 -11 15 -11 5 1 -7 8 -13 20 -13 28 0 9 9 4 21 -12
16 -21 28 -26 49 -22 38 6 50 14 50 34 0 14 -1 14 -12 -1 -11 -15 -13 -12 -13
22 -1 35 1 38 15 29 13 -10 13 -10 2 2 -12 14 -105 23 -96 9z"/>
<path d="M1856 3126 c-5 -18 8 -35 25 -36 3 0 6 13 5 28 -1 33 -22 38 -30 8z"/>
<path d="M1910 3070 c6 -11 12 -20 14 -20 2 0 2 9 -1 20 -3 11 -9 20 -15 20
-5 0 -4 -9 2 -20z"/>
<path d="M2045 3240 c3 -5 8 -10 11 -10 2 0 4 5 4 10 0 6 -5 10 -11 10 -5 0
-7 -4 -4 -10z"/>
<path d="M2149 3237 c7 -7 14 -8 21 -1 6 6 2 10 -12 11 -16 2 -18 -1 -9 -10z"/>
<path d="M2200 3235 c0 -8 4 -15 10 -15 5 0 7 7 4 15 -4 8 -8 15 -10 15 -2 0
-4 -7 -4 -15z"/>
<path d="M2246 3240 c10 -4 25 -5 32 -3 6 3 12 0 12 -6 0 -6 5 -11 11 -11 5 0
8 4 4 9 -3 6 17 12 47 14 29 2 13 3 -36 3 -49 0 -81 -3 -70 -6z"/>
<path d="M2412 3239 c2 -6 8 -10 13 -10 5 0 11 4 13 10 2 6 -4 11 -13 11 -9 0
-15 -5 -13 -11z"/>
<path d="M2651 3238 c-1 -10 -8 -18 -17 -18 -8 0 -12 -4 -9 -10 4 -6 15 -4 30
6 14 9 30 12 37 8 9 -6 9 -3 -1 10 -10 12 -16 14 -21 5 -6 -8 -9 -8 -13 2 -4
10 -6 9 -6 -3z"/>
<path d="M2723 3243 c4 -3 1 -13 -6 -22 -11 -14 -10 -14 5 -2 16 12 16 31 1
31 -4 0 -3 -3 0 -7z"/>
<path d="M2750 3239 c0 -6 6 -9 12 -7 7 3 31 -13 52 -34 42 -41 44 -42 63 -30
10 7 10 12 -1 28 -8 10 -18 16 -22 12 -4 -4 -1 -15 7 -24 13 -16 12 -16 -7 -6
-12 6 -33 25 -47 42 -25 30 -57 40 -57 19z"/>
<path d="M2875 3240 c-3 -6 1 -7 9 -4 18 7 21 14 7 14 -6 0 -13 -4 -16 -10z"/>
<path d="M2540 3231 c0 -5 7 -12 16 -15 14 -5 15 -4 4 9 -14 17 -20 19 -20 6z"/>
<path d="M2244 3215 c11 -8 34 -14 50 -14 20 1 24 3 11 6 -11 2 -33 8 -50 13
-28 9 -29 9 -11 -5z"/>
<path d="M373 3213 c-7 -2 -13 -20 -13 -38 0 -18 6 -35 13 -38 6 -2 4 -3 -5
-2 -20 3 -22 -3 -10 -37 11 -29 -5 -91 -21 -85 -8 3 -13 -3 -13 -14 0 -14 5
-17 16 -12 8 3 26 7 40 7 20 1 26 6 25 24 0 12 -6 26 -13 31 -11 7 -11 9 1 14
22 8 20 137 -2 137 -14 0 -14 1 -1 10 16 10 4 12 -17 3z m12 -183 c3 -5 -1
-10 -10 -10 -9 0 -13 5 -10 10 3 6 8 10 10 10 2 0 7 -4 10 -10z"/>
<path d="M2000 3213 c0 -12 28 -38 34 -32 2 2 -5 13 -15 23 -11 11 -19 15 -19
9z"/>
<path d="M2395 3210 c3 -5 8 -10 11 -10 2 0 4 5 4 10 0 6 -5 10 -11 10 -5 0
-7 -4 -4 -10z"/>
<path d="M2590 3216 c0 -2 8 -10 18 -17 15 -13 16 -12 3 4 -13 16 -21 21 -21
13z"/>
<path d="M2909 3218 c-7 -23 -4 -39 7 -49 10 -8 14 -8 14 0 0 6 -4 11 -9 11
-5 0 -7 9 -4 20 3 11 3 20 -1 20 -3 0 -6 -1 -7 -2z"/>
<path d="M2500 3201 c0 -6 4 -12 8 -15 5 -3 9 1 9 9 0 8 -4 15 -9 15 -4 0 -8
-4 -8 -9z"/>
<path d="M323 3168 c0 -44 2 -46 18 -17 7 13 7 19 1 15 -6 -3 -12 4 -15 16 -2
13 -4 6 -4 -14z"/>
<path d="M2545 3185 c20 -16 37 -16 36 0 0 6 -13 11 -28 13 -27 2 -27 2 -8
-13z"/>
<path d="M2100 3183 c1 -5 8 -19 16 -33 10 -17 13 -18 8 -5 -3 11 -7 26 -7 33
0 6 -4 12 -9 12 -4 0 -8 -3 -8 -7z"/>
<path d="M2248 3183 c6 -2 18 -2 25 0 6 3 1 5 -13 5 -14 0 -19 -2 -12 -5z"/>
<path d="M2655 3179 c-4 -6 -5 -12 -2 -15 2 -3 7 2 10 11 7 17 1 20 -8 4z"/>
<path d="M2006 3166 c3 -7 11 -13 19 -13 22 0 18 14 -4 20 -13 3 -18 0 -15 -7z"/>
<path d="M2050 3176 c0 -2 7 -7 16 -10 8 -3 12 -2 9 4 -6 10 -25 14 -25 6z"/>
<path d="M2158 3162 c-6 -23 2 -26 36 -13 18 7 18 8 3 14 -10 4 -17 1 -18 -6
0 -7 -4 -3 -8 7 -7 19 -8 19 -13 -2z"/>
<path d="M2316 3172 c-3 -6 -1 -14 5 -17 14 -9 20 -2 10 14 -6 8 -11 9 -15 3z"/>
<path d="M2360 3176 c0 -2 7 -7 16 -10 8 -3 12 -2 9 4 -6 10 -25 14 -25 6z"/>
<path d="M2606 3173 c5 -5 12 -12 16 -18 4 -6 8 -2 8 8 0 9 -7 17 -17 17 -9 0
-12 -3 -7 -7z"/>
<path d="M2708 3162 c3 -10 7 -12 10 -4 2 8 8 8 19 -3 8 -8 20 -15 26 -15 14
0 -33 34 -50 36 -7 1 -9 -5 -5 -14z"/>
<path d="M2250 3157 c-13 -7 -29 -21 -35 -32 -5 -11 -17 -19 -25 -18 -8 2 -23
-4 -34 -12 -18 -14 -18 -15 8 -60 15 -25 24 -45 20 -45 -5 0 0 -6 11 -13 11
-9 15 -19 10 -27 -5 -9 -4 -11 4 -6 6 4 14 1 17 -8 6 -16 35 -31 31 -16 -1 5
6 15 17 23 15 11 16 17 7 35 -6 11 -8 28 -5 36 3 9 1 16 -6 16 -6 0 -8 -5 -4
-12 4 -6 3 -8 -3 -5 -19 12 -37 67 -25 79 18 18 39 2 69 -51 31 -56 40 -60 72
-33 l21 17 -30 47 c-35 55 -35 58 -14 58 8 0 12 5 8 11 -4 7 -9 8 -17 0 -7 -7
-18 -4 -35 9 -29 23 -30 23 -62 7z"/>
<path d="M2430 3155 c0 -8 4 -15 10 -15 5 0 7 7 4 15 -4 8 -8 15 -10 15 -2 0
-4 -7 -4 -15z"/>
<path d="M2525 3160 c-3 -5 -1 -10 4 -10 6 0 11 5 11 10 0 6 -2 10 -4 10 -3 0
-8 -4 -11 -10z"/>
<path d="M2781 3154 c0 -11 3 -14 6 -6 3 7 2 16 -1 19 -3 4 -6 -2 -5 -13z"/>
<path d="M2800 3161 c0 -6 4 -12 8 -15 5 -3 9 1 9 9 0 8 -4 15 -9 15 -4 0 -8
-4 -8 -9z"/>
<path d="M2492 3136 c-9 -21 -8 -23 8 -19 12 3 16 11 13 24 -7 24 -8 24 -21
-5z"/>
<path d="M2580 3138 c0 -12 3 -18 7 -14 11 10 12 36 2 36 -5 0 -9 -10 -9 -22z"/>
<path d="M2541 3123 c7 -12 15 -20 18 -17 3 2 -3 12 -13 22 -17 16 -18 16 -5
-5z"/>
<path d="M2697 3129 c7 -7 15 -10 18 -7 3 3 -2 9 -12 12 -14 6 -15 5 -6 -5z"/>
<path d="M2835 3130 c-3 -5 -1 -10 4 -10 6 0 11 5 11 10 0 6 -2 10 -4 10 -3 0
-8 -4 -11 -10z"/>
<path d="M2050 3109 c-22 -18 -22 -19 -3 -10 12 6 25 16 28 21 9 15 3 12 -25
-11z"/>
<path d="M2805 3120 c3 -5 8 -10 11 -10 2 0 4 5 4 10 0 6 -5 10 -11 10 -5 0
-7 -4 -4 -10z"/>
<path d="M2626 3104 c-5 -14 -4 -15 9 -4 17 14 19 20 6 20 -5 0 -12 -7 -15
-16z"/>
<path d="M2507 3096 c-3 -8 1 -20 9 -27 14 -12 14 -15 -3 -27 -10 -8 -12 -12
-3 -8 8 3 23 9 33 12 16 6 16 8 -5 18 -13 7 -22 19 -20 29 4 21 -4 22 -11 3z"/>
<path d="M2595 3100 c-3 -5 -1 -10 4 -10 6 0 11 5 11 10 0 6 -2 10 -4 10 -3 0
-8 -4 -11 -10z"/>
<path d="M2665 3100 c4 -6 1 -19 -7 -28 -12 -15 -11 -16 5 -3 19 15 23 41 6
41 -5 0 -7 -5 -4 -10z"/>
<path d="M2697 3086 c-4 -10 -1 -13 9 -9 15 6 19 23 5 23 -5 0 -11 -7 -14 -14z"/>
<path d="M2745 3089 c-4 -6 -5 -12 -2 -15 2 -3 7 2 10 11 7 17 1 20 -8 4z"/>
<path d="M2244 3078 c-5 -7 -3 -8 6 -3 9 6 10 1 5 -16 -4 -17 -3 -20 3 -10 8
11 10 11 14 0 3 -8 9 -10 14 -5 5 5 4 11 -3 13 -7 3 -13 11 -13 19 0 17 -16
19 -26 2z"/>
<path d="M320 3061 c0 -11 4 -23 10 -26 6 -4 7 1 3 10 -3 10 0 21 8 26 11 7
11 9 -3 9 -11 0 -18 -8 -18 -19z"/>
<path d="M2004 3066 c-3 -7 -3 -26 -1 -42 2 -16 -3 -44 -12 -62 -12 -26 -13
-39 -4 -62 15 -39 5 -45 -23 -15 -13 14 -32 25 -42 25 -23 0 -72 -37 -72 -54
0 -8 -10 -11 -29 -8 -22 3 -36 -2 -56 -22 -14 -14 -28 -26 -30 -26 -3 0 -8 0
-12 0 -5 0 -16 -7 -26 -14 -16 -13 -16 -16 7 -57 14 -23 22 -47 19 -52 -3 -6
-1 -7 5 -3 11 6 13 3 12 -19 0 -3 8 -15 19 -26 18 -20 20 -20 45 -4 14 10 26
19 26 21 0 3 -13 30 -30 60 -16 31 -27 60 -24 65 12 20 34 6 63 -41 34 -55 37
-65 19 -54 -9 5 -9 2 1 -9 14 -18 26 -24 17 -8 -5 8 52 38 65 34 3 -1 6 3 6
10 0 7 2 18 4 26 2 8 -4 17 -14 19 -16 3 -17 1 -7 -17 6 -12 8 -21 5 -21 -12
0 -64 119 -54 125 18 12 37 -3 58 -42 36 -68 35 -67 70 -49 l31 17 -25 43
c-14 25 -22 47 -17 50 13 8 21 -4 15 -22 -3 -12 -2 -13 4 -5 7 10 16 10 41 1
62 -24 140 39 129 104 -8 52 -12 63 -22 67 -6 2 -19 10 -30 17 -25 18 -59 18
-93 0 -26 -13 -28 -13 -29 5 -1 11 2 17 8 14 5 -4 9 -1 9 4 0 6 -5 11 -11 11
-6 0 -9 7 -5 15 3 8 3 15 0 15 -2 0 -7 -6 -10 -14z m99 -113 c27 -31 26 -73
-2 -73 -24 0 -51 36 -51 67 0 28 30 31 53 6z"/>
<path d="M2090 2940 c0 -5 5 -10 11 -10 5 0 7 5 4 10 -3 6 -8 10 -11 10 -2 0
-4 -4 -4 -10z"/>
<path d="M2060 2926 c0 -2 8 -10 18 -17 15 -13 16 -12 3 4 -13 16 -21 21 -21
13z"/>
<path d="M2031 3075 c1 -19 18 -51 18 -35 0 8 -4 22 -9 30 -5 8 -9 11 -9 5z"/>
<path d="M2072 3060 c-7 -11 -8 -20 -3 -20 9 0 24 30 18 36 -1 2 -8 -6 -15
-16z"/>
<path d="M2480 3071 c0 -10 19 -25 25 -20 1 2 -3 10 -11 17 -8 7 -14 8 -14 3z"/>
<path d="M2805 3064 c9 -9 19 -13 23 -10 3 4 0 11 -8 16 -24 15 -33 11 -15 -6z"/>
<path d="M2100 3052 c0 -5 11 -14 25 -20 20 -9 23 -9 18 3 -3 8 -9 12 -14 9
-5 -3 -9 0 -9 5 0 6 -4 11 -10 11 -5 0 -10 -4 -10 -8z"/>
<path d="M2600 3040 c0 -5 5 -10 10 -10 6 0 10 5 10 10 0 6 -4 10 -10 10 -5 0
-10 -4 -10 -10z"/>
<path d="M2736 3025 c-3 -8 -1 -15 4 -15 6 0 10 7 10 15 0 8 -2 15 -4 15 -2 0
-6 -7 -10 -15z"/>
<path d="M2420 3010 c-8 -5 -12 -12 -9 -15 4 -3 12 1 19 10 14 17 11 19 -10 5z"/>
<path d="M2784 3008 c-4 -7 -3 -10 1 -5 5 4 18 -1 29 -10 21 -18 21 -18 2 5
-22 26 -23 26 -32 10z"/>
<path d="M2489 2993 c-13 -16 -12 -17 4 -4 9 7 17 15 17 17 0 8 -8 3 -21 -13z"/>
<path d="M2565 2999 c-4 -6 -5 -13 -2 -16 7 -7 27 6 27 18 0 12 -17 12 -25 -2z"/>
<path d="M2650 3001 c0 -7 -4 -9 -10 -6 -5 3 -18 1 -27 -4 -16 -9 -14 -10 9
-11 26 0 46 15 34 27 -3 4 -6 1 -6 -6z"/>
<path d="M2868 2993 c7 -3 16 -2 19 1 4 3 -2 6 -13 5 -11 0 -14 -3 -6 -6z"/>
<path d="M357 2975 c-4 -10 -3 -23 3 -29 8 -8 9 -6 4 7 -4 13 -2 16 9 11 8 -3
18 0 23 7 5 9 2 10 -9 6 -9 -3 -17 -1 -20 6 -2 6 -7 3 -10 -8z"/>
<path d="M2351 2977 c-6 -8 -7 -18 -3 -22 4 -5 -1 -5 -10 -2 -10 4 -18 2 -18
-3 0 -6 9 -10 19 -10 11 0 21 -6 24 -12 3 -10 7 -10 19 -1 8 7 18 10 21 6 4
-3 7 -1 7 5 0 6 -14 13 -30 17 -25 6 -29 9 -19 21 6 8 9 14 6 14 -2 0 -10 -6
-16 -13z"/>
<path d="M2870 2970 c0 -5 5 -10 11 -10 5 0 7 5 4 10 -3 6 -8 10 -11 10 -2 0
-4 -4 -4 -10z"/>
<path d="M520 2963 c0 -5 18 -9 40 -10 52 -1 52 11 0 15 -22 1 -40 -1 -40 -5z"/>
<path d="M640 2959 c0 -5 5 -7 10 -4 6 3 10 8 10 11 0 2 -4 4 -10 4 -5 0 -10
-5 -10 -11z"/>
<path d="M732 2958 c17 -10 48 -10 48 0 0 5 -14 9 -30 9 -20 0 -26 -3 -18 -9z"/>
<path d="M807 2951 c-3 -14 0 -21 9 -21 16 0 18 9 5 28 -6 10 -10 9 -14 -7z"/>
<path d="M933 2959 c9 -6 14 -15 11 -21 -4 -7 -2 -8 5 -4 6 4 9 11 6 16 -3 4
1 11 7 13 7 3 0 6 -17 6 -25 0 -27 -1 -12 -10z"/>
<path d="M990 2960 c-13 -8 -13 -10 2 -10 9 0 20 5 23 10 8 13 -5 13 -25 0z"/>
<path d="M1056 2961 c-3 -4 6 -6 19 -3 14 2 25 6 25 8 0 8 -39 4 -44 -5z"/>
<path d="M1294 2954 c9 -8 16 -18 16 -22 -1 -13 -72 -52 -82 -46 -6 4 -8 3 -5
-3 4 -6 -4 -20 -17 -32 -15 -15 -26 -19 -31 -12 -3 6 -12 11 -18 11 -7 0 -4
-5 5 -10 16 -10 15 -14 -7 -61 -26 -58 -42 -78 -42 -54 0 8 4 15 8 15 8 0 19
28 18 44 0 5 5 13 13 17 8 6 9 9 1 9 -6 0 -21 -21 -34 -47 -12 -27 -27 -51
-32 -54 -5 -4 -7 -11 -3 -17 3 -6 1 -14 -5 -17 -5 -4 -8 -13 -5 -21 3 -8 0
-14 -7 -14 -8 0 -8 -3 2 -9 11 -7 11 -10 -3 -12 -14 -3 -14 -6 5 -17 15 -10
19 -10 14 -1 -5 8 -4 10 4 5 13 -8 41 10 41 26 0 6 -6 6 -14 -1 -10 -8 -16 -9
-21 -1 -5 9 14 15 38 11 4 0 7 3 7 8 0 13 -28 22 -35 11 -4 -6 -11 -10 -17
-10 -6 0 -1 11 12 25 l24 26 14 -23 c7 -13 11 -15 8 -6 -2 9 2 19 10 22 8 3
14 13 14 23 0 15 -2 15 -14 -3 -8 -10 -17 -16 -21 -13 -3 4 12 21 34 38 l40
32 -57 -120 c-31 -66 -58 -119 -59 -117 -2 2 1 15 6 29 8 20 7 25 -3 21 -7 -3
-13 -10 -14 -17 0 -7 -4 -23 -8 -36 -5 -18 -4 -22 5 -17 7 5 3 -10 -8 -33 -27
-53 -27 -58 7 -53 27 3 37 21 145 250 63 136 118 254 121 262 3 8 4 -4 1 -27
-3 -34 -1 -41 10 -36 17 6 20 23 5 23 -7 0 -8 6 -2 16 10 18 5 54 -7 54 -4 0
-13 -6 -20 -12 -11 -10 -14 -10 -18 0 -3 6 -11 12 -20 12 -12 0 -12 -2 1 -16z
m-184 -254 c0 -5 -5 -10 -11 -10 -5 0 -7 5 -4 10 3 6 8 10 11 10 2 0 4 -4 4
-10z"/>
<path d="M1455 2960 c-3 -6 1 -7 9 -4 18 7 21 14 7 14 -6 0 -13 -4 -16 -10z"/>
<path d="M1540 2961 c0 -6 4 -13 10 -16 6 -3 7 1 4 9 -7 18 -14 21 -14 7z"/>
<path d="M1585 2955 c18 -13 18 -14 3 -15 -10 0 -18 -5 -18 -11 0 -5 5 -7 12
-3 8 5 9 2 5 -9 -3 -10 -2 -17 3 -17 6 0 10 9 10 20 0 11 5 21 10 21 6 1 15 3
20 4 6 1 15 3 20 4 6 0 10 5 10 9 0 5 -21 10 -47 11 -44 1 -46 0 -28 -14z"/>
<path d="M1662 2945 c-8 -17 -8 -32 -2 -47 10 -23 10 -23 7 2 -1 14 3 30 10
35 7 6 9 15 5 23 -6 9 -12 6 -20 -13z"/>
<path d="M1903 2963 c15 -2 39 -2 55 0 15 2 2 4 -28 4 -30 0 -43 -2 -27 -4z"/>
<path d="M397 2953 c-13 -12 -7 -22 12 -20 15 1 17 4 9 14 -12 15 -13 15 -21
6z"/>
<path d="M1375 2950 c3 -5 8 -10 11 -10 2 0 4 5 4 10 0 6 -5 10 -11 10 -5 0
-7 -4 -4 -10z"/>
<path d="M1410 2952 c0 -5 7 -9 15 -9 8 0 15 4 15 9 0 4 -7 8 -15 8 -8 0 -15
-4 -15 -8z"/>
<path d="M1720 2948 c0 -11 12 -10 30 2 12 7 10 9 -8 7 -12 0 -22 -5 -22 -9z"/>
<path d="M1786 2945 c-3 -9 -6 -22 -5 -28 0 -7 5 -1 10 12 5 13 8 26 5 28 -2
2 -6 -3 -10 -12z"/>
<path d="M495 2940 c3 -5 8 -10 11 -10 2 0 4 5 4 10 0 6 -5 10 -11 10 -5 0 -7
-4 -4 -10z"/>
<path d="M1018 2942 c-9 -2 -16 -12 -15 -22 1 -12 5 -16 12 -11 5 5 15 10 22
12 18 6 1 25 -19 21z"/>
<path d="M1947 2936 c-3 -8 1 -20 9 -26 11 -10 14 -9 14 8 0 25 -16 37 -23 18z"/>
<path d="M2863 2936 c3 -7 0 -19 -6 -25 -7 -7 -7 -11 -1 -11 6 0 16 11 22 25
10 21 9 25 -4 25 -10 0 -14 -6 -11 -14z"/>
<path d="M324 2929 c-9 -16 2 -22 21 -11 15 8 16 10 1 15 -8 3 -18 2 -22 -4z"/>
<path d="M735 2930 c4 -6 11 -8 16 -5 14 9 11 15 -7 15 -8 0 -12 -5 -9 -10z"/>
<path d="M1445 2930 c-3 -5 -1 -10 4 -10 6 0 11 5 11 10 0 6 -2 10 -4 10 -3 0
-8 -4 -11 -10z"/>
<path d="M1476 2924 c-10 -25 1 -29 14 -5 6 12 7 21 1 21 -5 0 -12 -7 -15 -16z"/>
<path d="M2275 2930 c-3 -5 -2 -10 4 -10 5 0 13 5 16 10 3 6 2 10 -4 10 -5 0
-13 -4 -16 -10z"/>
<path d="M2892 2928 c-18 -18 -14 -27 8 -21 21 6 26 18 12 27 -5 3 -14 0 -20
-6z"/>
<path d="M1151 2918 c0 -7 4 -22 9 -33 7 -17 9 -17 9 -2 1 9 7 17 15 17 8 0
18 5 22 12 4 6 3 8 -4 4 -6 -3 -13 -2 -17 4 -9 14 -35 12 -34 -2z m29 -2 c0
-3 -4 -8 -10 -11 -5 -3 -10 -1 -10 4 0 6 5 11 10 11 6 0 10 -2 10 -4z"/>
<path d="M1510 2915 c0 -10 9 -15 28 -14 16 1 20 3 10 6 -10 2 -18 9 -18 14 0
5 -4 9 -10 9 -5 0 -10 -7 -10 -15z"/>
<path d="M1690 2920 c-13 -8 -12 -10 3 -10 9 0 17 5 17 10 0 12 -1 12 -20 0z"/>
<path d="M1880 2920 c-13 -9 -13 -10 0 -10 8 0 22 5 30 10 13 9 13 10 0 10 -8
0 -22 -5 -30 -10z"/>
<path d="M2327 2919 c7 -7 15 -10 18 -7 3 3 -2 9 -12 12 -14 6 -15 5 -6 -5z"/>
<path d="M610 2908 c0 -4 12 -8 27 -8 14 0 23 3 19 7 -10 10 -46 11 -46 1z"/>
<path d="M1380 2908 c0 -11 38 -10 44 1 3 5 -5 8 -19 7 -14 0 -25 -4 -25 -8z"/>
<path d="M1610 2901 c0 -6 5 -13 10 -16 6 -3 10 1 10 9 0 9 -4 16 -10 16 -5 0
-10 -4 -10 -9z"/>
<path d="M320 2869 c0 -16 4 -28 9 -24 6 3 14 -3 20 -12 9 -16 10 -14 11 10 0
16 -5 26 -12 25 -7 -2 -12 5 -12 15 1 9 -2 17 -7 17 -5 0 -9 -14 -9 -31z"/>
<path d="M1730 2891 c0 -5 -3 -16 -6 -25 -3 -9 -2 -16 3 -16 5 0 10 11 11 25
1 14 0 25 -3 25 -3 0 -5 -4 -5 -9z"/>
<path d="M1790 2892 c0 -12 40 -33 50 -27 12 7 13 26 3 24 -5 -1 -10 0 -13 1
-17 6 -40 7 -40 2z"/>
<path d="M841 2873 c0 -11 3 -13 6 -5 2 6 9 10 14 6 5 -3 9 0 9 5 0 6 -7 11
-15 11 -8 0 -15 -8 -14 -17z"/>
<path d="M955 2880 c-8 -13 4 -32 16 -25 12 8 12 35 0 35 -6 0 -13 -4 -16 -10z"/>
<path d="M999 2873 c-13 -16 -12 -17 4 -4 9 7 17 15 17 17 0 8 -8 3 -21 -13z"/>
<path d="M1376 2866 c-7 -30 -23 -33 -43 -8 -8 9 -11 11 -8 4 4 -8 -3 -24 -15
-37 -19 -21 -21 -27 -10 -40 12 -14 15 -14 28 -1 12 12 13 18 4 29 -10 12 -7
14 18 13 26 -1 28 -4 23 -26 -5 -24 -5 -24 10 -5 10 13 12 26 6 41 -5 15 -4
24 4 27 9 3 9 8 1 16 -9 10 -13 6 -18 -13z m-57 -75 c-15 -5 -22 6 -14 19 6 9
10 9 16 -1 5 -8 4 -15 -2 -18z"/>
<path d="M1500 2877 c0 -21 27 -29 35 -9 3 9 3 13 -1 9 -4 -4 -13 -2 -21 4
-10 9 -13 8 -13 -4z"/>
<path d="M1585 2880 c-3 -5 -1 -10 4 -10 6 0 11 5 11 10 0 6 -2 10 -4 10 -3 0
-8 -4 -11 -10z"/>
<path d="M2190 2872 c-17 -19 -19 -37 -6 -49 5 -5 6 -2 1 6 -6 11 -3 13 13 9
15 -4 23 0 27 13 6 19 -1 40 -13 38 -4 0 -14 -8 -22 -17z m30 -12 c0 -5 -2
-10 -4 -10 -3 0 -8 5 -11 10 -3 6 -1 10 4 10 6 0 11 -4 11 -10z"/>
<path d="M2251 2874 c0 -11 3 -14 6 -6 3 7 2 16 -1 19 -3 4 -6 -2 -5 -13z"/>
<path d="M2850 2880 c0 -5 5 -10 10 -10 6 0 10 5 10 10 0 6 -4 10 -10 10 -5 0
-10 -4 -10 -10z"/>
<path d="M1418 2861 c-4 -13 -3 -32 3 -42 12 -24 11 -29 -5 -23 -19 7 -27 -8
-14 -26 8 -12 9 -12 4 3 -3 9 -1 17 4 17 4 0 11 -14 15 -30 4 -19 11 -28 18
-24 8 5 8 2 0 -6 -11 -12 -15 -11 -26 4 -7 9 -21 18 -31 20 -9 1 -22 9 -26 17
-8 12 -11 12 -22 0 -8 -9 -9 -11 -1 -7 6 3 14 2 18 -4 3 -5 -7 -13 -22 -16
-15 -4 -36 -16 -45 -27 -9 -10 -21 -16 -27 -13 -11 7 -36 -32 -27 -42 3 -3 6
-2 6 3 0 4 7 1 16 -6 14 -11 18 -10 29 5 8 10 18 16 22 13 5 -3 14 3 21 13 7
12 8 21 2 25 -6 3 -10 1 -10 -4 0 -6 -5 -11 -11 -11 -13 0 -7 22 8 27 6 2 18
-4 28 -13 13 -14 14 -19 3 -26 -10 -8 -10 -9 2 -5 9 2 14 14 12 29 -1 16 4 28
12 31 20 8 32 -13 15 -24 -11 -7 -9 -9 6 -10 11 -1 26 -2 33 -2 6 1 12 -9 12
-22 0 -13 7 -26 16 -29 8 -3 13 -10 10 -15 -7 -11 18 -33 27 -24 11 10 8 25
-3 18 -6 -3 -10 5 -10 19 0 18 -4 24 -15 20 -12 -5 -14 1 -11 27 2 19 -3 43
-11 56 -19 29 -14 35 31 36 20 1 36 5 36 10 0 4 -4 6 -9 2 -13 -7 -24 12 -15
26 5 8 9 8 14 -1 5 -7 13 -9 21 -5 9 6 6 11 -11 17 -20 7 -28 4 -46 -19 -24
-30 -30 -25 -36 32 -3 29 -3 29 -10 6z"/>
<path d="M1626 2859 c-10 -10 -22 -17 -25 -14 -4 2 -7 -4 -8 -14 -1 -10 6 -17
18 -18 12 -1 19 3 16 10 -2 7 3 17 11 23 8 6 13 15 11 21 -2 6 -12 2 -23 -8z"/>
<path d="M2891 2864 c0 -11 3 -14 6 -6 3 7 2 16 -1 19 -3 4 -6 -2 -5 -13z"/>
<path d="M601 2849 c0 -16 5 -29 14 -33 8 -3 15 -1 15 4 0 6 -4 10 -9 10 -5 0
-12 10 -14 23 -4 20 -4 19 -6 -4z"/>
<path d="M1754 2850 c0 -13 4 -16 10 -10 7 7 7 13 0 20 -6 6 -10 3 -10 -10z"/>
<path d="M1555 2850 c-3 -6 1 -7 9 -4 18 7 21 14 7 14 -6 0 -13 -4 -16 -10z"/>
<path d="M1680 2856 c0 -2 7 -9 15 -16 13 -11 14 -10 9 4 -5 14 -24 23 -24 12z"/>
<path d="M741 2834 c0 -11 3 -14 6 -6 3 7 2 16 -1 19 -3 4 -6 -2 -5 -13z"/>
<path d="M1657 2834 c-4 -4 -7 -16 -7 -27 0 -13 -5 -17 -15 -13 -8 3 -21 -1
-29 -9 -12 -12 -15 -11 -21 8 -4 14 -8 17 -12 9 -4 -10 -8 -9 -19 5 -12 17
-13 16 -7 -4 3 -13 12 -23 19 -23 8 0 14 -10 15 -22 0 -13 3 -18 5 -11 3 6 18
9 36 6 26 -4 30 -2 24 13 -5 14 -4 15 9 4 8 -7 15 -18 15 -25 0 -7 7 -18 15
-25 9 -8 15 -8 15 -2 0 6 -5 12 -11 14 -6 2 -12 16 -12 31 -1 15 -5 27 -9 27
-5 0 -8 9 -8 20 0 21 15 27 23 10 3 -6 4 -5 3 2 -3 14 -20 21 -29 12z"/>
<path d="M2147 2833 c-4 -7 -3 -14 3 -18 15 -9 2 -25 -15 -19 -8 4 -13 10 -10
14 3 5 -4 6 -14 3 -12 -3 -17 -11 -14 -19 8 -22 -13 -16 -29 8 -12 18 -17 19
-34 9 -19 -12 -19 -12 1 -7 13 3 26 -3 37 -18 17 -23 17 -24 -1 -19 -11 3 -21
-2 -25 -13 -5 -14 -4 -15 8 -5 11 9 15 8 19 -4 7 -17 35 -10 34 8 -1 35 4 46
18 41 8 -4 15 -13 15 -21 0 -22 25 -10 26 13 2 29 -11 60 -19 47z"/>
<path d="M1704 2808 l-19 -23 25 20 c14 11 27 21 29 22 2 2 0 3 -6 3 -5 0 -18
-10 -29 -22z"/>
<path d="M1897 2823 c-10 -9 -9 -23 1 -23 5 0 9 7 9 15 0 17 -1 18 -10 8z"/>
<path d="M320 2810 c0 -5 5 -10 10 -10 7 0 7 -6 1 -18 -6 -11 -6 -24 0 -35 7
-11 6 -17 -1 -17 -12 0 -9 -124 4 -137 4 -4 4 0 1 9 -4 9 -1 19 5 23 8 5 7 11
-2 23 -11 13 -10 15 5 9 11 -4 17 -1 17 9 0 9 -5 12 -12 8 -7 -5 -9 -2 -5 9 3
9 1 18 -6 21 -7 3 -6 5 3 5 21 1 25 51 5 51 -9 0 -12 6 -9 15 4 8 10 12 15 9
5 -3 9 -1 9 3 0 5 -9 14 -20 21 -12 7 -20 8 -20 2z"/>
<path d="M2223 2800 c-5 -19 -16 -25 -38 -20 -5 1 -7 -2 -3 -5 4 -4 -1 -15
-10 -24 -10 -9 -13 -13 -8 -8 6 4 17 7 26 7 14 0 24 13 48 63 2 4 0 7 -3 7 -4
0 -9 -9 -12 -20z"/>
<path d="M2265 2810 c-8 -13 5 -13 25 0 13 8 13 10 -2 10 -9 0 -20 -4 -23 -10z"/>
<path d="M2910 2805 c0 -8 4 -15 10 -15 5 0 7 7 4 15 -4 8 -8 15 -10 15 -2 0
-4 -7 -4 -15z"/>
<path d="M2190 2800 c0 -5 5 -10 11 -10 5 0 7 5 4 10 -3 6 -8 10 -11 10 -2 0
-4 -4 -4 -10z"/>
<path d="M732 2775 c0 -16 2 -22 5 -12 2 9 2 23 0 30 -3 6 -5 -1 -5 -18z"/>
<path d="M1280 2772 c0 -12 19 -26 26 -19 2 2 -2 10 -11 17 -9 8 -15 8 -15 2z"/>
<path d="M2240 2770 c-10 -6 -8 -9 6 -12 16 -4 14 -7 -11 -18 -16 -7 -39 -13
-51 -14 -12 -1 -28 -9 -37 -18 -15 -15 -15 -16 4 -21 36 -9 69 15 37 26 -7 2
-4 3 6 1 19 -3 86 23 86 33 0 14 -28 30 -40 23z"/>
<path d="M1786 2755 c4 -8 7 -15 9 -15 2 0 5 7 9 15 3 9 0 15 -9 15 -9 0 -12
-6 -9 -15z"/>
<path d="M2298 2758 c-6 -17 1 -38 13 -38 5 0 9 11 9 25 0 26 -14 34 -22 13z"/>
<path d="M2114 2744 c2 -10 8 -20 15 -22 8 -3 12 3 9 14 -4 23 -27 31 -24 8z"/>
<path d="M2335 2740 c3 -5 8 -10 11 -10 2 0 4 5 4 10 0 6 -5 10 -11 10 -5 0
-7 -4 -4 -10z"/>
<path d="M2005 2730 c-4 -6 -4 -14 0 -18 3 -3 10 -1 14 6 6 9 12 7 26 -8 11
-13 29 -19 47 -18 28 2 33 18 8 26 -7 3 -10 0 -6 -7 4 -6 1 -11 -8 -11 -9 0
-16 4 -16 9 0 5 -8 11 -17 15 -10 3 -23 8 -30 12 -6 3 -14 0 -18 -6z"/>
<path d="M1460 2710 c0 -5 6 -10 14 -10 8 0 18 -10 22 -22 6 -19 7 -20 16 -4
7 13 5 21 -9 31 -21 17 -43 19 -43 5z"/>
<path d="M2287 2704 c3 -7 9 -14 14 -14 14 0 10 17 -5 23 -10 4 -13 1 -9 -9z"/>
<path d="M1823 2686 c8 -16 14 -21 19 -13 11 17 10 29 -2 22 -5 -3 -10 -1 -10
4 0 6 -4 11 -9 11 -5 0 -4 -11 2 -24z"/>
<path d="M1370 2680 c-14 -10 -22 -22 -18 -26 4 -3 -3 -15 -15 -25 -13 -11
-17 -18 -9 -19 7 0 10 -5 6 -11 -4 -8 0 -7 15 1 13 6 19 16 14 23 -4 8 -1 7 9
-1 15 -12 15 -15 -4 -34 -17 -17 -24 -19 -39 -10 -15 9 -20 8 -28 -6 -7 -12
-10 -13 -11 -3 0 11 -3 11 -15 1 -22 -18 -18 -33 6 -27 20 5 20 5 4 -13 -10
-11 -22 -17 -26 -14 -5 3 -6 -2 -2 -11 3 -9 9 -13 12 -8 15 22 78 59 98 58 19
-2 21 1 12 16 -7 14 -6 19 5 19 18 0 92 -97 89 -118 -1 -9 0 -12 3 -6 2 6 15
9 27 7 13 -3 33 4 47 15 l24 19 -20 28 c-10 15 -26 38 -35 51 -9 13 -19 21
-22 17 -4 -4 5 -19 20 -35 15 -15 23 -28 17 -28 -9 0 -115 131 -122 151 -5 13
-14 11 -42 -11z"/>
<path d="M2028 2673 c7 -3 16 -2 19 1 4 3 -2 6 -13 5 -11 0 -14 -3 -6 -6z"/>
<path d="M2095 2670 c-3 -5 1 -10 9 -10 9 0 16 5 16 10 0 6 -4 10 -9 10 -6 0
-13 -4 -16 -10z"/>
<path d="M571 2654 c0 -11 3 -14 6 -6 3 7 2 16 -1 19 -3 4 -6 -2 -5 -13z"/>
<path d="M1313 2662 c-22 -3 -33 -22 -14 -22 5 0 7 -10 5 -22 -2 -13 -1 -16 2
-8 4 8 13 23 22 33 18 20 15 24 -15 19z"/>
<path d="M1224 2643 c3 -3 -2 -12 -10 -20 -17 -17 -14 -35 7 -42 12 -3 12 -1
-1 14 -14 17 -13 18 4 12 14 -6 17 -4 12 8 -3 8 -1 15 3 15 5 0 11 -7 15 -15
3 -8 1 -15 -4 -15 -6 0 -10 -7 -10 -15 0 -19 11 -19 34 -2 17 12 17 14 2 20
-9 4 -16 13 -16 21 0 7 -9 16 -21 19 -12 3 -18 3 -15 0z"/>
<path d="M2326 2631 c-17 -6 -17 -8 -3 -14 8 -3 21 1 27 9 13 15 6 17 -24 5z"/>
<path d="M1730 2604 c-12 -31 -11 -33 19 -39 22 -4 29 9 10 20 -6 4 -8 13 -5
21 3 7 1 16 -4 19 -6 4 -15 -6 -20 -21z m20 -24 c0 -5 -2 -10 -4 -10 -3 0 -8
5 -11 10 -3 6 -1 10 4 10 6 0 11 -4 11 -10z"/>
<path d="M2243 2575 c-3 -9 -3 -18 -1 -21 3 -3 8 4 11 16 6 23 -1 27 -10 5z"/>
<path d="M971 2476 c-7 -8 -8 -17 -3 -20 6 -3 13 1 16 10 9 23 2 28 -13 10z"/>
<path d="M1245 2469 c-4 -6 -5 -12 -2 -15 2 -3 7 2 10 11 7 17 1 20 -8 4z"/>
<path d="M896 2411 c-3 -5 2 -15 12 -22 9 -7 14 -9 10 -5 -4 5 -3 15 3 23 9
10 8 13 -4 13 -9 0 -18 -4 -21 -9z"/>
<path d="M826 2676 c-23 -36 -20 -44 5 -12 12 15 19 29 16 32 -2 2 -12 -7 -21
-20z"/>
<path d="M711 2674 c0 -11 3 -14 6 -6 3 7 2 16 -1 19 -3 4 -6 -2 -5 -13z"/>
<path d="M695 2624 c-4 -16 -11 -42 -16 -58 -5 -16 -7 -31 -5 -34 3 -2 12 21
21 53 9 31 14 59 11 62 -3 3 -8 -8 -11 -23z"/>
<path d="M2262 2326 c7 -8 16 -12 21 -9 4 2 7 -1 7 -8 0 -7 3 -9 7 -5 5 4 -1
14 -11 22 -25 18 -41 18 -24 0z"/>
<path d="M2912 2286 c7 -8 15 -12 17 -11 5 6 -10 25 -20 25 -5 0 -4 -6 3 -14z"/>
<path d="M1050 2230 c0 -6 4 -9 9 -6 5 4 12 1 14 -4 3 -6 4 -5 3 2 -3 15 -26
23 -26 8z"/>
<path d="M1190 2209 c0 -5 5 -7 10 -4 6 3 10 8 10 11 0 2 -4 4 -10 4 -5 0 -10
-5 -10 -11z"/>
<path d="M575 2080 c3 -5 8 -10 11 -10 2 0 4 5 4 10 0 6 -5 10 -11 10 -5 0 -7
-4 -4 -10z"/>
<path d="M1025 2030 c3 -5 8 -10 11 -10 2 0 4 5 4 10 0 6 -5 10 -11 10 -5 0
-7 -4 -4 -10z"/>
<path d="M1080 2000 c0 -5 5 -10 10 -10 6 0 10 5 10 10 0 6 -4 10 -10 10 -5 0
-10 -4 -10 -10z"/>
</g>
</svg>
